# Blender v2.79 (sub 0) OBJ File: 'polyswamp v1.1.blend'
# www.blender.org
g plank_02_Cube.005
v -0.114019 -0.723086 -0.026352
v -0.113927 -0.721917 0.028151
v -0.112883 0.730657 -0.029318
v -0.114128 0.734519 0.027046
v 0.117394 -0.723487 -0.031324
v 0.116591 -0.721680 0.030526
v 0.106876 0.730694 -0.028513
v 0.106876 0.730694 0.027446
v 0.108461 0.643195 -0.029276
v 0.107953 0.645467 0.025484
v 0.062206 0.698947 0.027569
v 0.059949 0.698686 -0.028802
v 0.076866 0.730694 0.027446
v 0.053568 0.735563 0.027446
v 0.053568 0.735563 -0.028513
v 0.076866 0.730694 -0.028513
v -0.033226 -0.722698 0.030444
v -0.032372 -0.723386 -0.026679
v -0.028120 0.729033 0.027878
v -0.028916 0.727858 -0.028501
v 0.063822 -0.724962 0.026677
v 0.063258 -0.722179 -0.028284
v 0.089845 -0.683182 0.028779
v 0.077354 -0.687495 0.028779
v 0.072939 -0.699949 0.028779
v 0.079923 -0.711167 0.028779
v 0.093048 -0.712701 0.028779
v 0.102430 -0.703396 0.028779
v 0.101005 -0.690259 0.028779
v 0.088078 -0.698307 0.032945
v 0.089845 -0.683182 0.026275
v 0.077354 -0.687495 0.026275
v 0.072939 -0.699949 0.026275
v 0.079923 -0.711167 0.026275
v 0.093048 -0.712701 0.026275
v 0.102430 -0.703396 0.026275
v 0.101005 -0.690259 0.026275
v -0.081534 -0.684163 0.028779
v -0.094717 -0.685077 0.028779
v -0.102221 -0.695953 0.028779
v -0.098397 -0.708602 0.028779
v -0.086124 -0.713498 0.028779
v -0.074643 -0.706955 0.028779
v -0.072601 -0.693900 0.028779
v -0.087177 -0.698307 0.032945
v -0.081534 -0.684163 0.026275
v -0.094717 -0.685077 0.026275
v -0.102221 -0.695953 0.026275
v -0.098397 -0.708602 0.026275
v -0.086124 -0.713498 0.026275
v -0.074643 -0.706955 0.026275
v -0.072601 -0.693900 0.026275
v 0.084691 0.703516 0.028779
v 0.072785 0.697782 0.028779
v 0.069845 0.684899 0.028779
v 0.078084 0.674568 0.028779
v 0.091298 0.674568 0.028779
v 0.099537 0.684899 0.028779
v 0.096597 0.697782 0.028779
v 0.084691 0.688288 0.032945
v 0.084691 0.703516 0.026275
v 0.072785 0.697782 0.026275
v 0.069845 0.684899 0.026275
v 0.078084 0.674568 0.026275
v 0.091298 0.674568 0.026275
v 0.099537 0.684899 0.026275
v 0.096597 0.697782 0.026275
v -0.088870 0.722142 0.028779
v -0.100776 0.716408 0.028779
v -0.103716 0.703525 0.028779
v -0.095477 0.693194 0.028779
v -0.082263 0.693194 0.028779
v -0.074024 0.703525 0.028779
v -0.076965 0.716408 0.028779
v -0.088870 0.706914 0.032945
v -0.088870 0.722142 0.026275
v -0.100776 0.716408 0.026275
v -0.103716 0.703525 0.026275
v -0.095477 0.693194 0.026275
v -0.082263 0.693194 0.026275
v -0.074024 0.703525 0.026275
v -0.076965 0.716408 0.026275
vt 0.392716 0.928431
vt 0.391100 0.928431
vt 0.391100 0.926065
vt 0.392716 0.926065
vt 0.093739 0.965461
vt 0.095018 0.925891
vt 0.093490 0.925985
vt 0.385511 0.971351
vt 0.387161 0.971351
vt 0.387161 0.973709
vt 0.385511 0.973709
vt 0.385546 0.925044
vt 0.387162 0.925054
vt 0.387091 0.927515
vt 0.385509 0.927571
vt 0.097796 0.925935
vt 0.100149 0.967918
vt 0.097724 0.967839
vt 0.392805 0.972970
vt 0.391100 0.930875
vt 0.392716 0.930875
vt 0.095157 0.966998
vt 0.095034 0.925972
vt 0.095062 0.967006
vt 0.095311 0.968063
vt 0.097670 0.967875
vt 0.094670 0.967923
vt 0.093803 0.967924
vt 0.093755 0.965397
vt 0.385511 0.968552
vt 0.387161 0.968552
vt 0.100153 0.968033
vt 0.097822 0.925956
vt 0.385551 0.924178
vt 0.387167 0.924187
vt 0.093468 0.925935
vt 0.387176 0.923178
vt 0.385548 0.923132
vt 0.391100 0.924987
vt 0.392716 0.924987
vt 0.093772 0.967923
vt 0.094639 0.967923
vt 0.385511 0.966995
vt 0.387161 0.966995
vt 0.095342 0.968063
vt 0.100153 0.925942
vt 0.391231 0.972957
vt 0.100153 0.925979
vt 0.873919 0.879543
vt 0.876598 0.867794
vt 0.878740 0.867310
vt 0.875619 0.880894
vt 0.852408 0.879496
vt 0.849805 0.867942
vt 0.863138 0.870932
vt 0.857083 0.858579
vt 0.869079 0.858283
vt 0.863071 0.884886
vt 0.856100 0.856645
vt 0.870067 0.856050
vt 0.850723 0.880822
vt 0.847719 0.867477
vt 0.863068 0.887023
vt 0.874678 0.879521
vt 0.876956 0.867794
vt 0.879047 0.867253
vt 0.876625 0.880945
vt 0.852945 0.879746
vt 0.850060 0.868022
vt 0.863639 0.871052
vt 0.857592 0.858749
vt 0.869408 0.858702
vt 0.863835 0.884833
vt 0.856665 0.856798
vt 0.870311 0.856770
vt 0.851252 0.881135
vt 0.847719 0.867442
vt 0.863857 0.887023
vt 0.874357 0.879847
vt 0.877256 0.868258
vt 0.879624 0.867792
vt 0.876023 0.881222
vt 0.852985 0.879847
vt 0.850086 0.868258
vt 0.863671 0.871259
vt 0.857661 0.858856
vt 0.869681 0.858856
vt 0.863671 0.884891
vt 0.856715 0.856881
vt 0.870627 0.856881
vt 0.851319 0.881222
vt 0.847719 0.867792
vt 0.863671 0.887023
vt 0.874357 0.879847
vt 0.877256 0.868258
vt 0.879624 0.867792
vt 0.876023 0.881222
vt 0.852985 0.879847
vt 0.850086 0.868258
vt 0.863671 0.871259
vt 0.857661 0.858856
vt 0.869681 0.858856
vt 0.863671 0.884891
vt 0.856715 0.856881
vt 0.870627 0.856881
vt 0.851320 0.881223
vt 0.847719 0.867792
vt 0.863671 0.887023
vn -0.0864 0.9962 -0.0098
vn -0.0730 0.0032 0.9973
vn -0.0069 -0.9998 0.0166
vn 0.9999 0.0153 0.0043
vn 0.0097 -0.0013 -1.0000
vn -0.9998 0.0007 -0.0221
vn -0.0168 -0.0004 -0.9999
vn 0.0049 0.0045 1.0000
vn 0.0002 0.0088 -1.0000
vn -0.0060 -0.9998 -0.0187
vn -0.0096 0.0018 1.0000
vn 0.0000 1.0000 0.0000
vn -0.0560 0.0011 -0.9984
vn -0.8960 0.4437 0.0170
vn 0.9795 0.2002 -0.0201
vn 0.0152 -0.0175 0.9997
vn 0.9999 0.0065 0.0090
vn 0.0040 0.0018 1.0000
vn 0.0491 0.9978 -0.0444
vn 0.0185 -0.9998 -0.0083
vn -0.0009 0.0077 -1.0000
vn 0.0449 -0.0006 0.9990
vn -0.0040 -0.0020 -1.0000
vn -1.0000 -0.0001 0.0017
vn -0.0038 -0.0012 -1.0000
vn -0.0284 0.0008 0.9996
vn -0.0102 -0.0004 -0.9999
vn 0.9999 0.0064 0.0128
vn 0.0388 -0.0006 0.9992
vn 0.7163 0.4459 0.5367
vn 0.7953 -0.2820 0.5367
vn 0.9425 -0.3342 0.0000
vn 0.8489 0.5285 0.0000
vn -0.5942 0.5991 0.5367
vn -0.8388 -0.0910 0.5367
vn 0.0000 0.0000 1.0000
vn -0.4519 -0.7125 0.5367
vn 0.2754 -0.7975 0.5367
vn 0.0979 0.8380 0.5367
vn -0.5355 -0.8445 0.0000
vn 0.3264 -0.9452 0.0000
vn -0.7042 0.7100 0.0000
vn -0.9941 -0.1079 0.0000
vn 0.1161 0.9932 0.0000
vn 0.8076 0.2442 0.5367
vn 0.6945 -0.4792 0.5367
vn 0.8231 -0.5679 0.0000
vn 0.9572 0.2894 0.0000
vn -0.4178 0.7331 0.5367
vn -0.8336 0.1304 0.5367
vn -0.6217 -0.5704 0.5367
vn 0.0583 -0.8417 0.5367
vn 0.3126 0.7837 0.5367
vn -0.7368 -0.6760 0.0000
vn 0.0691 -0.9976 0.0000
vn -0.4951 0.8688 0.0000
vn -0.9880 0.1545 0.0000
vn 0.3705 0.9288 0.0000
vn 0.6597 0.5261 0.5367
vn 0.8226 -0.1877 0.5367
vn 0.9749 -0.2225 0.0000
vn 0.7818 0.6235 0.0000
vn -0.6597 0.5260 0.5367
vn -0.8226 -0.1877 0.5367
vn -0.3661 -0.7602 0.5367
vn 0.3661 -0.7602 0.5367
vn 0.0000 0.8437 0.5367
vn -0.4339 -0.9009 0.0000
vn 0.4339 -0.9010 0.0000
vn -0.7818 0.6235 0.0000
vn -0.9749 -0.2225 0.0000
vn -0.6597 0.5261 0.5367
vn -0.4339 -0.9010 0.0000
vn 0.4339 -0.9009 0.0000
s off
f 20/1/1 19/2/1 14/3/1 15/4/1
f 10/5/2 21/6/2 6/7/2
f 18/8/3 17/9/3 2/10/3 1/11/3
f 7/12/4 8/13/4 10/14/4 9/15/4
f 18/16/5 3/17/5 20/18/5
f 1/19/6 4/20/6 3/21/6
f 18/16/7 12/22/7 22/23/7
f 11/24/8 14/25/8 19/26/8
f 12/22/9 16/27/9 7/28/9 9/29/9
f 22/30/10 21/31/10 17/9/10 18/8/10
f 4/32/11 17/33/11 19/26/11
f 16/34/12 13/35/12 8/13/12 7/12/12
f 22/23/13 9/29/13 5/36/13
f 11/37/14 13/35/14 16/34/14 12/38/14
f 14/3/15 11/39/15 12/40/15 15/4/15
f 8/41/16 13/42/16 11/24/16 10/5/16
f 10/14/17 5/43/17 9/15/17
f 17/33/18 11/24/18 19/26/18
f 3/21/19 4/20/19 19/2/19 20/1/19
f 5/43/20 6/44/20 21/31/20 22/30/20
f 12/22/21 20/18/21 15/45/21
f 10/5/22 11/24/22 21/6/22
f 18/16/23 1/46/23 3/17/23
f 1/19/24 2/47/24 4/20/24
f 18/16/25 20/18/25 12/22/25
f 4/32/26 2/48/26 17/33/26
f 22/23/27 12/22/27 9/29/27
f 10/14/28 6/44/28 5/43/28
f 17/33/29 21/6/29 11/24/29
s 1
f 29/49/30 28/50/31 36/51/32 37/52/33
f 24/53/34 25/54/35 30/55/36
f 25/54/35 26/56/37 30/55/36
f 26/56/37 27/57/38 30/55/36
f 27/57/38 28/50/31 30/55/36
f 28/50/31 29/49/30 30/55/36
f 29/49/30 23/58/39 30/55/36
f 23/58/39 24/53/34 30/55/36
f 27/57/38 26/56/37 34/59/40 35/60/41
f 25/54/35 24/53/34 32/61/42 33/62/43
f 23/58/39 29/49/30 37/52/33 31/63/44
f 28/50/31 27/57/38 35/60/41 36/51/32
f 26/56/37 25/54/35 33/62/43 34/59/40
f 24/53/34 23/58/39 31/63/44 32/61/42
f 44/64/45 43/65/46 51/66/47 52/67/48
f 39/68/49 40/69/50 45/70/36
f 40/69/50 41/71/51 45/70/36
f 41/71/51 42/72/52 45/70/36
f 42/72/52 43/65/46 45/70/36
f 43/65/46 44/64/45 45/70/36
f 44/64/45 38/73/53 45/70/36
f 38/73/53 39/68/49 45/70/36
f 42/72/52 41/71/51 49/74/54 50/75/55
f 40/69/50 39/68/49 47/76/56 48/77/57
f 38/73/53 44/64/45 52/67/48 46/78/58
f 43/65/46 42/72/52 50/75/55 51/66/47
f 41/71/51 40/69/50 48/77/57 49/74/54
f 39/68/49 38/73/53 46/78/58 47/76/56
f 59/79/59 58/80/60 66/81/61 67/82/62
f 54/83/63 55/84/64 60/85/36
f 55/84/64 56/86/65 60/85/36
f 56/86/65 57/87/66 60/85/36
f 57/87/66 58/80/60 60/85/36
f 58/80/60 59/79/59 60/85/36
f 59/79/59 53/88/67 60/85/36
f 53/88/67 54/83/63 60/85/36
f 57/87/66 56/86/65 64/89/68 65/90/69
f 55/84/64 54/83/63 62/91/70 63/92/71
f 53/88/67 59/79/59 67/82/62 61/93/12
f 58/80/60 57/87/66 65/90/69 66/81/61
f 56/86/65 55/84/64 63/92/71 64/89/68
f 54/83/63 53/88/67 61/93/12 62/91/70
f 74/94/59 73/95/60 81/96/61 82/97/62
f 69/98/72 70/99/64 75/100/36
f 70/99/64 71/101/65 75/100/36
f 71/101/65 72/102/66 75/100/36
f 72/102/66 73/95/60 75/100/36
f 73/95/60 74/94/59 75/100/36
f 74/94/59 68/103/67 75/100/36
f 68/103/67 69/98/72 75/100/36
f 72/102/66 71/101/65 79/104/73 80/105/74
f 70/99/64 69/98/72 77/106/70 78/107/71
f 68/103/67 74/94/59 82/97/62 76/108/12
f 73/95/60 72/102/66 80/105/74 81/96/61
f 71/101/65 70/99/64 78/107/71 79/104/73
f 69/98/72 68/103/67 76/108/12 77/106/70
