# Blender v2.79 (sub 0) OBJ File: 'polyswamp v1.1.blend'
# www.blender.org
g plank_01_Cube.003
v -0.120134 -0.476161 -0.026272
v -0.120043 -0.474991 0.028231
v -0.111232 0.477582 -0.029238
v -0.112477 0.481444 0.027126
v 0.111279 -0.476562 -0.031244
v 0.110476 -0.474755 0.030606
v 0.119364 0.477619 -0.028433
v 0.119364 0.477619 0.027526
v 0.110112 0.390120 -0.029196
v 0.109604 0.392392 0.025564
v 0.063857 0.391685 0.027649
v 0.061600 0.391424 -0.028722
v 0.078516 0.477619 0.027526
v 0.055219 0.482488 0.027526
v 0.055219 0.482488 -0.028433
v 0.078516 0.477619 -0.028433
v -0.039342 -0.475773 0.030524
v -0.038488 -0.476461 -0.026600
v -0.026468 0.475958 0.027958
v -0.027265 0.474783 -0.028421
v 0.037070 -0.481810 0.027526
v 0.055109 -0.475026 0.027526
v 0.049075 -0.372484 0.026757
v 0.055109 -0.475026 -0.028433
v 0.037070 -0.481810 -0.028433
v 0.048511 -0.369701 -0.028205
v 0.091231 -0.440967 0.029111
v 0.094164 -0.453850 0.029309
v 0.085944 -0.464181 0.028754
v 0.072760 -0.464181 0.027864
v 0.064540 -0.453850 0.027310
v 0.067473 -0.440967 0.027508
v 0.079352 -0.435234 0.028309
v 0.078903 -0.450461 0.034964
v 0.091062 -0.440967 0.031610
v 0.093996 -0.453850 0.031808
v 0.085776 -0.464181 0.031253
v 0.072591 -0.464181 0.030363
v 0.064371 -0.453850 0.029809
v 0.067305 -0.440967 0.030007
v 0.079184 -0.435234 0.030808
v -0.094153 -0.435234 0.031187
v -0.106053 -0.440967 0.030818
v -0.108992 -0.453850 0.030726
v -0.100757 -0.464181 0.030982
v -0.087549 -0.464181 0.031392
v -0.079314 -0.453850 0.031648
v -0.082253 -0.440967 0.031557
v -0.094283 -0.450461 0.035351
v -0.094075 -0.435234 0.028684
v -0.105975 -0.440967 0.028314
v -0.108914 -0.453850 0.028223
v -0.100679 -0.464181 0.028479
v -0.087471 -0.464181 0.028889
v -0.079237 -0.453850 0.029144
v -0.082176 -0.440967 0.029053
v 0.065889 0.465680 0.028859
v 0.053984 0.459947 0.028859
v 0.051044 0.447064 0.028859
v 0.059282 0.436733 0.028859
v 0.072496 0.436733 0.028859
v 0.080735 0.447064 0.028859
v 0.077795 0.459947 0.028859
v 0.065889 0.450452 0.033025
v 0.065889 0.459454 -0.031062
v 0.058851 0.456065 -0.031062
v 0.057113 0.448449 -0.031062
v 0.061984 0.442342 -0.031062
v 0.069795 0.442342 -0.031062
v 0.074666 0.448449 -0.031062
v 0.072927 0.456065 -0.031062
v -0.083966 0.465680 0.028859
v -0.095871 0.459947 0.028859
v -0.098812 0.447064 0.028859
v -0.090573 0.436733 0.028859
v -0.077359 0.436733 0.028859
v -0.069120 0.447064 0.028859
v -0.072060 0.459947 0.028859
v -0.083966 0.450452 0.033025
v -0.083966 0.465680 0.026354
v -0.095871 0.459947 0.026354
v -0.098812 0.447064 0.026354
v -0.090573 0.436733 0.026354
v -0.077359 0.436733 0.026354
v -0.069120 0.447064 0.026354
v -0.072060 0.459947 0.026354
vt 0.404517 0.935325
vt 0.402901 0.935315
vt 0.402916 0.932949
vt 0.404531 0.932959
vt 0.098026 0.893398
vt 0.095633 0.917763
vt 0.098120 0.920866
vt 0.404461 0.967775
vt 0.402812 0.967735
vt 0.402899 0.965405
vt 0.404473 0.965417
vt 0.396910 0.940988
vt 0.398526 0.940988
vt 0.398526 0.943529
vt 0.396910 0.943529
vt 0.100451 0.893337
vt 0.402886 0.937759
vt 0.404502 0.937769
vt 0.094039 0.895809
vt 0.095440 0.895783
vt 0.095376 0.895775
vt 0.095646 0.893155
vt 0.098003 0.893363
vt 0.095625 0.917843
vt 0.094972 0.893290
vt 0.093793 0.893280
vt 0.093793 0.920833
vt 0.095417 0.920802
vt 0.098157 0.920846
vt 0.095947 0.921002
vt 0.404496 0.969963
vt 0.402880 0.969949
vt 0.100488 0.893224
vt 0.396910 0.939706
vt 0.398526 0.939706
vt 0.404463 0.973216
vt 0.402876 0.973125
vt 0.398526 0.937165
vt 0.396910 0.937165
vt 0.402932 0.930328
vt 0.404547 0.930338
vt 0.093793 0.893280
vt 0.094972 0.893290
vt 0.094053 0.895744
vt 0.396696 0.968553
vt 0.095936 0.921003
vt 0.093826 0.920782
vt 0.095427 0.920802
vt 0.398543 0.973076
vt 0.396960 0.973216
vt 0.396839 0.970171
vt 0.398454 0.970111
vt 0.398483 0.968510
vt 0.095646 0.893155
vt 0.100477 0.920878
vt 0.100488 0.920842
vt 0.877076 0.868264
vt 0.874101 0.879890
vt 0.863418 0.871222
vt 0.852668 0.879761
vt 0.863346 0.884886
vt 0.863331 0.887023
vt 0.850998 0.881106
vt 0.869490 0.858807
vt 0.870441 0.856827
vt 0.879473 0.867801
vt 0.849803 0.868162
vt 0.847719 0.867686
vt 0.875765 0.881281
vt 0.857440 0.858785
vt 0.856503 0.856827
vt 0.874101 0.879890
vt 0.877076 0.868264
vt 0.879473 0.867801
vt 0.875765 0.881281
vt 0.852668 0.879761
vt 0.849803 0.868162
vt 0.863418 0.871222
vt 0.857440 0.858785
vt 0.869490 0.858806
vt 0.863346 0.884885
vt 0.856503 0.856827
vt 0.870442 0.856827
vt 0.850998 0.881106
vt 0.847719 0.867686
vt 0.863331 0.887023
vt 0.874732 0.879746
vt 0.877672 0.867994
vt 0.880073 0.867521
vt 0.876421 0.881140
vt 0.853059 0.879746
vt 0.850119 0.867994
vt 0.863896 0.871037
vt 0.857801 0.858459
vt 0.869990 0.858459
vt 0.863896 0.884861
vt 0.856842 0.856457
vt 0.870949 0.856457
vt 0.851370 0.881140
vt 0.847719 0.867521
vt 0.863896 0.887023
vt 0.874357 0.879847
vt 0.877256 0.868258
vt 0.879624 0.867792
vt 0.876023 0.881222
vt 0.852985 0.879847
vt 0.850086 0.868258
vt 0.863671 0.871259
vt 0.857661 0.858856
vt 0.869681 0.858856
vt 0.863671 0.884891
vt 0.856715 0.856881
vt 0.870627 0.856881
vt 0.851320 0.881222
vt 0.847719 0.867792
vt 0.863671 0.887023
vn -0.0179 0.9995 -0.0274
vn -0.0194 0.9994 -0.0270
vn -0.0864 0.9962 -0.0098
vn 0.0032 -0.0004 -1.0000
vn -0.0310 0.0006 -0.9995
vn -0.0122 -0.0005 -0.9999
vn -0.0414 -0.9991 0.0110
vn -0.0403 -0.9991 0.0111
vn -0.0069 -0.9998 0.0166
vn 0.9940 -0.1095 0.0068
vn 0.9984 -0.0559 0.0081
vn 0.9986 -0.0525 0.0081
vn 0.0089 -0.0021 -1.0000
vn -1.0000 0.0080 0.0006
vn -0.9997 0.0092 -0.0218
vn -0.9997 0.0093 -0.0227
vn -0.0083 0.0033 -1.0000
vn -0.0053 0.0016 -1.0000
vn 0.0192 -0.0041 0.9998
vn 0.0051 0.0018 1.0000
vn -0.0016 0.0017 1.0000
vn -0.0066 0.0038 1.0000
vn -0.0052 0.0068 -1.0000
vn -0.0481 0.0002 -0.9988
vn -0.0500 -0.0010 -0.9987
vn 0.0068 0.0020 1.0000
vn 0.0394 0.0027 0.9992
vn -0.0745 -0.9972 0.0055
vn -0.0105 0.0027 0.9999
vn 0.0000 1.0000 0.0000
vn 0.9944 -0.1053 -0.0077
vn -0.9834 0.1804 0.0193
vn 0.9964 0.0823 -0.0202
vn 0.0242 -0.0142 0.9996
vn 0.0320 -0.0082 0.9995
vn 0.9999 0.0011 0.0128
vn -0.0239 0.0045 -0.9997
vn -0.0547 0.0047 0.9985
vn -0.0556 0.0042 0.9984
vn 0.0491 0.9978 -0.0444
vn -0.9982 -0.0606 0.0036
vn -0.0114 -0.9998 0.0153
vn -0.0004 0.0031 -1.0000
vn -0.0040 -0.0031 -1.0000
vn -1.0000 0.0079 0.0015
vn -0.0284 0.0014 0.9996
vn 0.9999 0.0011 0.0130
vn 0.1917 -0.0587 0.9797
vn 0.1409 0.1645 0.9763
vn -0.0673 0.0000 0.9977
vn -0.4329 0.9010 -0.0292
vn 0.7801 -0.6235 0.0525
vn -0.9727 0.2225 -0.0656
vn -0.0649 0.2638 0.9624
vn -0.2708 0.1645 0.9485
vn 0.4329 0.9010 0.0292
vn 0.0000 -1.0000 0.0000
vn -0.7801 -0.6235 -0.0527
vn -0.3216 -0.0587 0.9451
vn -0.1792 -0.2377 0.9547
vn 0.0493 -0.2377 0.9701
vn 0.9727 0.2225 0.0656
vn 0.9745 0.2225 0.0303
vn -0.2361 0.1645 0.9577
vn -0.2870 -0.0587 0.9561
vn -0.0310 0.0000 0.9995
vn -0.1444 -0.2377 0.9605
vn 0.0845 -0.2377 0.9677
vn 0.2272 -0.0587 0.9721
vn 0.1763 0.1645 0.9705
vn -0.0299 0.2639 0.9641
vn -0.9745 0.2225 -0.0303
vn 0.4337 0.9010 0.0135
vn 0.7815 -0.6235 0.0243
vn -0.7815 -0.6235 -0.0243
vn -0.4337 0.9010 -0.0135
vn 0.9707 0.2215 -0.0932
vn -0.2063 0.1645 0.9646
vn -0.2572 -0.0587 0.9646
vn 0.0000 -0.0000 1.0000
vn -0.1145 -0.2377 0.9646
vn 0.1145 -0.2377 0.9646
vn 0.2572 -0.0587 0.9646
vn 0.2063 0.1645 0.9646
vn 0.0000 0.2639 0.9646
vn -0.0000 -0.9956 -0.0932
vn -0.9707 0.2215 -0.0932
vn 0.4320 0.8970 -0.0932
vn 0.7784 -0.6208 -0.0932
vn -0.7784 -0.6208 -0.0932
vn -0.4320 0.8970 -0.0932
vn -0.0000 0.0000 -1.0000
vn 0.9749 0.2225 0.0000
vn 0.0000 0.2638 0.9646
vn -0.9749 0.2225 0.0000
vn 0.4339 0.9010 0.0000
vn 0.7818 -0.6235 0.0000
vn -0.7818 -0.6235 0.0000
vn -0.4339 0.9010 0.0000
s 1
f 20/1/1 19/2/2 14/3/3 15/4/3
f 20/5/4 26/6/5 18/7/6
f 18/8/7 17/9/8 2/10/9 1/11/9
f 7/12/10 8/13/10 10/14/11 9/15/12
f 18/7/6 3/16/13 20/5/4
f 1/11/14 4/17/15 3/18/16
f 9/19/17 26/6/5 12/20/18
f 11/21/19 14/22/20 19/23/21
f 19/23/21 23/24/22 11/21/19
f 12/20/18 16/25/23 7/26/23 9/19/17
f 26/6/5 5/27/24 24/28/25
f 23/24/22 17/29/26 21/30/27
f 25/31/28 21/32/28 17/9/8 18/8/7
f 4/33/29 17/29/26 19/23/21
f 16/34/30 13/35/30 8/13/30 7/12/30
f 26/36/31 23/37/31 21/32/31 25/31/31
f 11/38/32 13/35/32 16/34/32 12/39/32
f 14/3/33 11/40/33 12/41/33 15/4/33
f 8/42/34 13/43/34 11/21/19 10/44/35
f 10/14/11 5/45/36 9/15/12
f 18/7/6 26/6/5 25/46/37
f 6/47/38 23/24/22 22/48/39
f 3/18/40 4/17/40 19/2/2 20/1/1
f 23/49/41 26/50/41 24/51/41 22/52/41
f 5/45/42 6/53/42 22/52/42 24/51/42
f 12/20/18 20/5/4 15/54/43
f 10/44/35 23/24/22 6/47/38
f 20/5/4 12/20/18 26/6/5
f 18/7/6 1/55/44 3/16/13
f 1/11/14 2/10/45 4/17/15
f 9/19/17 5/27/24 26/6/5
f 19/23/21 17/29/26 23/24/22
f 4/33/29 2/56/46 17/29/26
f 10/14/11 6/53/47 5/45/36
f 10/44/35 11/21/19 23/24/22
f 36/57/48 35/58/49 34/59/50
f 40/60/51 41/61/51 33/62/51 32/63/51
f 36/57/52 37/64/52 29/65/52 28/66/52
f 39/67/53 40/60/53 32/63/53 31/68/53
f 41/61/54 40/60/55 34/59/50
f 35/58/49 41/61/54 34/59/50
f 41/61/56 35/58/56 27/69/56 33/62/56
f 37/64/57 38/70/57 30/71/57 29/65/57
f 38/70/58 39/67/58 31/68/58 30/71/58
f 39/67/59 38/70/60 34/59/50
f 37/64/61 36/57/48 34/59/50
f 38/70/60 37/64/61 34/59/50
f 35/58/62 36/57/62 28/66/62 27/69/62
f 40/60/55 39/67/59 34/59/50
f 48/72/63 47/73/63 55/74/63 56/75/63
f 43/76/64 44/77/65 49/78/66
f 44/77/65 45/79/67 49/78/66
f 45/79/67 46/80/68 49/78/66
f 46/80/68 47/73/69 49/78/66
f 47/73/69 48/72/70 49/78/66
f 48/72/70 42/81/71 49/78/66
f 42/81/71 43/76/64 49/78/66
f 46/80/57 45/79/57 53/82/57 54/83/57
f 44/77/72 43/76/72 51/84/72 52/85/72
f 42/81/73 48/72/73 56/75/73 50/86/73
f 47/73/74 46/80/74 54/83/74 55/74/74
f 45/79/75 44/77/75 52/85/75 53/82/75
f 43/76/76 42/81/76 50/86/76 51/84/76
f 63/87/77 62/88/77 70/89/77 71/90/77
f 58/91/78 59/92/79 64/93/80
f 59/92/79 60/94/81 64/93/80
f 60/94/81 61/95/82 64/93/80
f 61/95/82 62/88/83 64/93/80
f 62/88/83 63/87/84 64/93/80
f 63/87/84 57/96/85 64/93/80
f 57/96/85 58/91/78 64/93/80
f 61/95/86 60/94/86 68/97/86 69/98/86
f 59/92/87 58/91/87 66/99/87 67/100/87
f 57/96/88 63/87/88 71/90/88 65/101/88
f 62/88/89 61/95/89 69/98/89 70/89/89
f 60/94/90 59/92/90 67/100/90 68/97/90
f 58/91/91 57/96/91 65/101/91 66/99/91
f 67/100/92 65/101/92 70/89/92
f 67/100/92 66/99/92 65/101/92
f 65/101/92 71/90/92 70/89/92
f 70/89/92 69/98/92 68/97/92
f 68/97/92 67/100/92 70/89/92
f 78/102/93 77/103/93 85/104/93 86/105/93
f 73/106/78 74/107/79 79/108/80
f 74/107/79 75/109/81 79/108/80
f 75/109/81 76/110/82 79/108/80
f 76/110/82 77/103/83 79/108/80
f 77/103/83 78/102/84 79/108/80
f 78/102/84 72/111/94 79/108/80
f 72/111/94 73/106/78 79/108/80
f 76/110/57 75/109/57 83/112/57 84/113/57
f 74/107/95 73/106/95 81/114/95 82/115/95
f 72/111/96 78/102/96 86/105/96 80/116/96
f 77/103/97 76/110/97 84/113/97 85/104/97
f 75/109/98 74/107/98 82/115/98 83/112/98
f 73/106/99 72/111/99 80/116/99 81/114/99
