# Blender v2.79 (sub 0) OBJ File: 'polyswamp v1.1.blend'
# www.blender.org
g pole_01_Cube.008
v 0.028358 0.118759 0.010093
v 0.023884 0.130800 -0.029578
v 0.034694 0.124635 -0.036297
v 0.030938 0.112129 -0.030865
v 0.020128 0.118294 -0.024147
v -0.005433 0.120681 -0.046184
v -0.003064 0.111834 -0.056960
v 0.000956 0.101802 -0.047839
v -0.001413 0.110649 -0.037064
v -0.034294 0.110674 -0.024649
v -0.040969 0.099379 -0.029927
v -0.031025 0.090944 -0.024452
v -0.024351 0.102239 -0.019173
v -0.041683 0.115172 0.011365
v -0.049625 0.104019 0.014906
v -0.038610 0.095449 0.012617
v -0.030669 0.106602 0.009075
v -0.025404 0.116725 0.028333
v -0.030042 0.106151 0.036498
v -0.023389 0.096828 0.028204
v -0.018750 0.107402 0.020038
v -0.001878 0.119005 0.039022
v -0.000214 0.109082 0.048960
v 0.002298 0.099446 0.038917
v 0.000635 0.109370 0.028980
v 0.013107 0.030966 -0.035467
v 0.018186 0.020538 -0.043558
v 0.013582 0.011014 -0.034172
v 0.008502 0.021442 -0.026082
v -0.006587 0.030736 -0.038219
v -0.009151 0.020265 -0.047372
v -0.007053 0.010773 -0.037101
v -0.004488 0.021244 -0.027948
v -0.041562 0.034072 -0.013814
v -0.050581 0.024126 -0.018258
v -0.042412 0.014135 -0.012474
v -0.033394 0.024081 -0.008030
v -0.045476 0.036409 0.021069
v -0.054983 0.027348 0.026315
v -0.046410 0.016543 0.023190
v -0.036903 0.025604 0.017944
v -0.014156 0.038667 0.041339
v -0.015112 0.030944 0.053148
v -0.012180 0.019258 0.045742
v -0.011225 0.026981 0.033934
v 0.021134 0.045726 0.032587
v 0.028777 0.038636 0.042142
v 0.024155 0.026402 0.036762
v 0.016512 0.033491 0.027206
v 0.031098 0.040696 0.011831
v 0.041820 0.032828 0.016639
v 0.033224 0.021631 0.017487
v 0.022501 0.029499 0.012678
v 0.032652 0.033460 -0.013032
v 0.042773 0.023690 -0.014492
v 0.034014 0.013849 -0.009351
v 0.023893 0.023619 -0.007891
v 0.013107 0.010002 -0.035467
v 0.018186 -0.000426 -0.043558
v 0.013582 -0.009950 -0.034172
v 0.008502 0.000478 -0.026082
v -0.006587 0.009772 -0.038219
v -0.009151 -0.000700 -0.047372
v -0.007053 -0.010192 -0.037101
v -0.004488 0.000280 -0.027948
v -0.041562 0.013108 -0.013814
v -0.050581 0.003161 -0.018258
v -0.042412 -0.006829 -0.012474
v -0.033394 0.003117 -0.008030
v -0.045476 0.015444 0.021069
v -0.054983 0.006383 0.026315
v -0.046410 -0.004421 0.023190
v -0.036903 0.004640 0.017944
v -0.014156 0.017702 0.041339
v -0.015112 0.009980 0.053148
v -0.012180 -0.001707 0.045742
v -0.011225 0.006016 0.033934
v 0.021134 0.024762 0.032587
v 0.028777 0.017672 0.042142
v 0.024155 0.005437 0.036762
v 0.016512 0.012527 0.027206
v 0.031098 0.019732 0.011831
v 0.041820 0.011864 0.016639
v 0.033224 0.000666 0.017487
v 0.022501 0.008535 0.012678
v 0.032652 0.012496 -0.013032
v 0.042773 0.002726 -0.014492
v 0.034014 -0.007115 -0.009351
v 0.023893 0.002654 -0.007891
v -0.014319 0.226437 0.029829
v -0.029056 0.226437 -0.000716
v 0.017298 0.226437 0.029829
v 0.032034 0.226437 -0.000716
v 0.017298 0.226437 -0.031261
v -0.014319 0.226437 -0.031261
v -0.014610 -0.266944 0.029829
v 0.031743 -0.266944 -0.000716
v 0.017007 -0.266944 0.029829
v -0.014610 -0.266944 -0.031261
v -0.029346 -0.266944 -0.000716
v 0.017007 -0.266944 -0.031261
v 0.001489 0.241602 -0.000716
v 0.041186 0.112893 0.011117
v 0.046891 0.125697 0.012989
v 0.034064 0.131563 0.011965
v 0.022254 0.116338 0.021458
v 0.031549 0.108994 0.029182
v 0.034199 0.120513 0.036946
v 0.024904 0.127857 0.029222
vt 0.107341 0.893549
vt 0.108321 0.893549
vt 0.108321 0.907795
vt 0.107341 0.907795
vt 0.105772 0.893549
vt 0.106557 0.893549
vt 0.106557 0.907795
vt 0.105772 0.907795
vt 0.397606 0.929225
vt 0.396724 0.928800
vt 0.398488 0.927887
vt 0.398488 0.928800
vt 0.109890 0.893549
vt 0.110869 0.893549
vt 0.110869 0.907795
vt 0.109890 0.907795
vt 0.109105 0.893549
vt 0.109105 0.907795
vt 0.396724 0.927887
vt 0.397606 0.927461
vt 0.396701 0.927839
vt 0.397643 0.927387
vt 0.397634 0.928335
vt 0.397625 0.929284
vt 0.396701 0.928809
vt 0.398567 0.927862
vt 0.398567 0.928832
vt 0.605924 0.861271
vt 0.605920 0.862529
vt 0.605462 0.862525
vt 0.605438 0.861270
vt 0.606420 0.861275
vt 0.606371 0.862525
vt 0.606988 0.861284
vt 0.606923 0.862491
vt 0.606948 0.859896
vt 0.606386 0.859914
vt 0.606358 0.858662
vt 0.605905 0.859899
vt 0.605979 0.858671
vt 0.605486 0.859889
vt 0.604903 0.862491
vt 0.604857 0.861265
vt 0.604965 0.859893
vt 0.606401 0.857931
vt 0.605965 0.857920
vt 0.605533 0.858659
vt 0.605002 0.858653
vt 0.606426 0.857031
vt 0.605946 0.857018
vt 0.605523 0.857931
vt 0.604986 0.857947
vt 0.605524 0.857027
vt 0.606975 0.857047
vt 0.606932 0.857964
vt 0.606467 0.855954
vt 0.606426 0.857031
vt 0.605946 0.857018
vt 0.606022 0.855919
vt 0.605524 0.857027
vt 0.605530 0.855940
vt 0.604977 0.857029
vt 0.607038 0.856021
vt 0.606975 0.857047
vt 0.606658 0.855144
vt 0.606028 0.854889
vt 0.604977 0.857029
vt 0.604986 0.856004
vt 0.605368 0.855091
vt 0.604801 0.855438
vt 0.606371 0.862525
vt 0.606477 0.864153
vt 0.605924 0.864340
vt 0.605920 0.862529
vt 0.605362 0.864179
vt 0.605462 0.862525
vt 0.607217 0.855464
vt 0.604801 0.863975
vt 0.604903 0.862491
vt 0.606420 0.861275
vt 0.605924 0.861271
vt 0.606923 0.862491
vt 0.607042 0.863967
vt 0.605438 0.861270
vt 0.605905 0.859899
vt 0.605486 0.859889
vt 0.606948 0.859896
vt 0.606988 0.861284
vt 0.606386 0.859914
vt 0.606358 0.858662
vt 0.605979 0.858671
vt 0.604857 0.861265
vt 0.604965 0.859893
vt 0.606872 0.858655
vt 0.606401 0.857931
vt 0.605965 0.857920
vt 0.605533 0.858659
vt 0.605002 0.858653
vt 0.606872 0.858655
vt 0.605523 0.857931
vt 0.606932 0.857964
vt 0.606467 0.855954
vt 0.606426 0.857031
vt 0.605946 0.857018
vt 0.606022 0.855919
vt 0.604986 0.857947
vt 0.605524 0.857027
vt 0.605530 0.855940
vt 0.604977 0.857029
vt 0.604986 0.856004
vt 0.606658 0.855144
vt 0.606028 0.854889
vt 0.605368 0.855091
vt 0.607038 0.856021
vt 0.606975 0.857047
vt 0.607217 0.855464
vt 0.606371 0.862525
vt 0.606477 0.864153
vt 0.605924 0.864340
vt 0.605920 0.862529
vt 0.604801 0.855438
vt 0.605362 0.864179
vt 0.605462 0.862525
vt 0.604801 0.863975
vt 0.604903 0.862491
vt 0.606420 0.861275
vt 0.605924 0.861271
vt 0.605438 0.861270
vt 0.606923 0.862491
vt 0.607042 0.863967
vt 0.605905 0.859899
vt 0.605486 0.859889
vt 0.606386 0.859914
vt 0.606948 0.859896
vt 0.606988 0.861283
vt 0.605979 0.858671
vt 0.605533 0.858659
vt 0.606872 0.858655
vt 0.606358 0.858662
vt 0.604965 0.859893
vt 0.605002 0.858653
vt 0.606401 0.857931
vt 0.605965 0.857920
vt 0.605523 0.857931
vt 0.606932 0.857964
vt 0.604986 0.857947
vt 0.604857 0.861265
vt 0.607042 0.863967
vt 0.606477 0.864153
vt 0.605362 0.864179
vt 0.604801 0.863975
vt 0.605924 0.864340
vt 0.607217 0.855464
vt 0.607038 0.856021
vt 0.606467 0.855954
vt 0.606658 0.855144
vt 0.605368 0.855091
vt 0.605530 0.855940
vt 0.604986 0.856004
vt 0.604801 0.855438
vt 0.606028 0.854889
vt 0.606022 0.855919
vn 0.9007 -0.0005 -0.4345
vn 0.0000 -0.0000 1.0000
vn 0.0000 -1.0000 0.0000
vn -0.9007 0.0005 0.4345
vn 0.9007 -0.0005 0.4345
vn -0.0000 0.0000 -1.0000
vn -0.9007 0.0005 -0.4345
vn 0.4348 0.8758 0.2098
vn -0.4348 0.8758 0.2098
vn -0.0000 0.8957 -0.4447
vn -0.4348 0.8758 -0.2098
vn 0.0000 0.8957 0.4447
vn 0.4348 0.8758 -0.2098
vn -0.0774 0.0492 -0.9958
vn 0.7228 0.3196 -0.6127
vn 0.4802 -0.8577 -0.1836
vn 0.2875 -0.9078 -0.3052
vn -0.3240 0.9337 -0.1519
vn -0.2181 0.9746 -0.0507
vn 0.0921 -0.0947 0.9912
vn -0.7309 -0.3169 0.6044
vn 0.8407 0.0742 0.5364
vn -0.3300 0.9362 -0.1208
vn -0.3216 0.9467 -0.0136
vn -0.8176 -0.2033 -0.5386
vn -0.9551 -0.0915 0.2816
vn 0.0472 -0.9965 -0.0685
vn -0.1572 0.9843 0.0794
vn -0.5681 -0.0692 0.8200
vn -0.0719 -0.9908 0.1149
vn 0.9350 0.1815 -0.3048
vn -0.2082 0.9631 0.1705
vn -0.0327 -0.0369 0.9988
vn 0.0497 -0.9972 0.0560
vn 0.5582 0.0660 -0.8270
vn 0.2039 -0.9671 0.1518
vn 0.0617 -0.0559 -0.9965
vn 0.0579 0.9764 -0.2079
vn 0.0873 0.9667 -0.2405
vn 0.9438 -0.0208 -0.3299
vn 0.4842 -0.0593 -0.8729
vn 0.2139 -0.9687 0.1258
vn 0.0968 -0.9927 -0.0717
vn -0.4841 0.0394 0.8741
vn -0.9379 -0.0758 0.3385
vn -0.0186 0.9754 -0.2195
vn -0.2353 -0.0595 -0.9701
vn -0.0618 -0.9930 -0.1007
vn 0.2315 0.0338 0.9722
vn -0.1163 0.9812 -0.1541
vn -0.8627 0.0067 -0.5057
vn -0.2079 -0.9778 -0.0252
vn 0.8574 -0.0011 0.5147
vn -0.1681 0.9857 -0.0111
vn -0.9052 0.0758 0.4182
vn -0.2476 -0.9474 0.2027
vn -0.1909 0.1376 0.9719
vn 0.0672 -0.9335 0.3521
vn 0.2000 -0.2652 -0.9432
vn 0.9026 -0.1234 -0.4123
vn -0.1375 0.9903 -0.0184
vn -0.0424 0.9967 -0.0693
vn 0.6010 0.2948 0.7429
vn -0.0178 0.9660 -0.2579
vn 0.9654 0.1617 0.2046
vn 0.2774 -0.8810 0.3833
vn -0.6289 -0.2041 -0.7502
vn 0.1821 -0.9351 0.3038
vn -0.9680 -0.1607 -0.1925
vn -0.9210 -0.3609 -0.1466
vn -0.1934 0.9790 0.0643
vn 0.5007 -0.8654 -0.0200
vn 0.9306 0.3371 0.1423
vn -0.5953 -0.2142 -0.7744
vn -0.2297 0.9644 0.1311
vn 0.4217 -0.8992 0.1165
vn 0.6021 0.1954 0.7741
s off
f 97/1/1 101/2/1 94/3/1 93/4/1
f 96/5/2 98/6/2 92/7/2 90/8/2
f 97/9/3 98/10/3 99/11/3 101/12/3
f 100/13/4 96/14/4 90/15/4 91/16/4
f 98/6/5 97/1/5 93/4/5 92/7/5
f 101/2/6 99/17/6 95/18/6 94/3/6
f 99/17/7 100/13/7 91/16/7 95/18/7
f 98/10/3 96/19/3 100/20/3 99/11/3
f 92/21/8 93/22/8 102/23/8
f 91/24/9 90/25/9 102/23/9
f 94/26/10 95/27/10 102/23/10
f 95/27/11 91/24/11 102/23/11
f 90/25/12 92/21/12 102/23/12
f 93/22/13 94/26/13 102/23/13
s 1
f 7/28/14 3/29/15 4/30/16 8/31/17
f 6/32/18 2/33/19 3/29/15 7/28/14
f 9/34/20 5/35/21 2/33/19 6/32/18
f 13/36/22 9/34/20 6/32/18 10/37/23
f 14/38/24 10/37/23 11/39/25 15/40/26
f 11/39/25 7/28/14 8/31/17 12/41/27
f 8/31/17 4/30/16 5/42/21 9/43/20
f 12/41/27 8/31/17 9/43/20 13/44/22
f 10/37/23 6/32/18 7/28/14 11/39/25
f 18/45/28 14/38/24 15/40/26 19/46/29
f 16/47/30 12/41/27 13/44/22 17/48/31
f 22/49/32 18/45/28 19/46/29 23/50/33
f 20/51/34 16/47/30 17/48/31 21/52/35
f 23/50/33 19/46/29 20/51/34 24/53/36
f 25/54/37 21/55/35 18/45/28 22/49/32
f 26/56/38 54/57/39 55/58/40 27/59/41
f 27/59/41 55/58/40 56/60/42 28/61/43
f 24/53/36 20/51/34 21/52/35 25/62/37
f 29/63/44 57/64/45 54/57/39 26/56/38
f 30/65/46 26/56/38 27/59/41 31/66/47
f 28/61/43 56/60/42 57/67/45 29/68/44
f 31/66/47 27/59/41 28/61/43 32/69/48
f 32/69/48 28/61/43 29/68/44 33/70/49
f 34/71/50 30/72/46 31/73/47 35/74/51
f 35/74/51 31/73/47 32/75/48 36/76/52
f 33/77/49 29/63/44 26/56/38 30/65/46
f 36/76/52 32/75/48 33/78/49 37/79/53
f 38/80/54 34/71/50 35/74/51 39/81/55
f 37/82/53 33/83/49 30/72/46 34/71/50
f 39/81/55 35/74/51 36/76/52 40/84/56
f 43/85/57 39/81/55 40/84/56 44/86/58
f 45/87/59 41/88/60 38/80/54 42/89/61
f 46/90/62 42/89/61 43/85/57 47/91/63
f 41/88/60 37/82/53 34/71/50 38/80/54
f 42/89/61 38/80/54 39/81/55 43/85/57
f 44/86/58 40/84/56 41/92/60 45/93/59
f 15/40/26 11/39/25 12/41/27 16/47/30
f 17/94/31 13/36/22 10/37/23 14/38/24
f 19/46/29 15/40/26 16/47/30 20/51/34
f 21/55/35 17/94/31 14/38/24 18/45/28
f 50/95/64 46/90/62 47/91/63 51/96/65
f 48/97/66 44/86/58 45/93/59 49/98/67
f 49/99/67 45/87/59 42/89/61 46/90/62
f 54/57/39 50/95/64 51/96/65 55/58/40
f 55/58/40 51/96/65 52/100/68 56/60/42
f 53/101/69 49/99/67 46/90/62 50/95/64
f 57/64/45 53/101/69 50/95/64 54/57/39
f 58/102/38 86/103/39 87/104/40 59/105/41
f 56/60/42 52/100/68 53/106/69 57/67/45
f 59/105/41 87/104/40 88/107/42 60/108/43
f 60/108/43 88/107/42 89/109/45 61/110/44
f 62/111/46 58/102/38 59/105/41 63/112/47
f 63/112/47 59/105/41 60/108/43 64/113/48
f 61/114/44 89/115/45 86/103/39 58/102/38
f 65/116/49 61/114/44 58/102/38 62/111/46
f 66/117/50 62/118/46 63/119/47 67/120/51
f 64/113/48 60/108/43 61/110/44 65/121/49
f 67/120/51 63/119/47 64/122/48 68/123/52
f 68/123/52 64/122/48 65/124/49 69/125/53
f 70/126/54 66/117/50 67/120/51 71/127/55
f 71/127/55 67/120/51 68/123/52 72/128/56
f 69/129/53 65/130/49 62/118/46 66/117/50
f 40/84/56 36/76/52 37/79/53 41/92/60
f 47/91/63 43/85/57 44/86/58 48/97/66
f 51/96/65 47/91/63 48/97/66 52/100/68
f 52/100/68 48/97/66 49/98/67 53/106/69
f 75/131/57 71/127/55 72/128/56 76/132/58
f 74/133/61 70/126/54 71/127/55 75/131/57
f 77/134/59 73/135/60 70/126/54 74/133/61
f 79/136/63 75/131/57 76/132/58 80/137/66
f 81/138/67 77/134/59 74/133/61 78/139/62
f 80/137/66 76/132/58 77/140/59 81/141/67
f 82/142/64 78/139/62 79/136/63 83/143/65
f 83/143/65 79/136/63 80/137/66 84/144/68
f 85/145/69 81/138/67 78/139/62 82/142/64
f 84/144/68 80/137/66 81/141/67 85/146/69
f 86/103/39 82/142/64 83/143/65 87/104/40
f 87/104/40 83/143/65 84/144/68 88/107/42
f 89/115/45 85/145/69 82/142/64 86/103/39
f 88/107/42 84/144/68 85/146/69 89/109/45
f 73/135/60 69/129/53 66/117/50 70/126/54
f 72/128/56 68/123/52 69/125/53 73/147/60
f 76/132/58 72/128/56 73/147/60 77/140/59
f 78/139/62 74/133/61 75/131/57 79/136/63
f 5/35/21 1/148/70 105/149/71 2/33/19
f 4/30/16 103/150/72 1/151/70 5/42/21
f 3/29/15 104/152/73 103/150/72 4/30/16
f 2/33/19 105/149/71 104/152/73 3/29/15
f 1/153/70 106/154/74 109/155/75 105/156/71
f 103/157/72 107/158/76 106/159/74 1/160/70
f 104/161/73 108/162/77 107/158/76 103/157/72
f 105/156/71 109/155/75 108/162/77 104/161/73
f 106/154/74 25/54/37 22/49/32 109/155/75
f 107/158/76 24/53/36 25/62/37 106/159/74
f 108/162/77 23/50/33 24/53/36 107/158/76
f 109/155/75 22/49/32 23/50/33 108/162/77
