# Blender v2.79 (sub 0) OBJ File: 'polyswamp v1.1.blend'
# www.blender.org
g DB_01_moss_CUBezierCurve.004
v 0.978904 0.202592 0.505632
v 1.038437 0.108039 0.435810
v -0.067371 0.024198 -0.006649
v -0.117464 0.059681 0.189383
v -0.193682 0.031139 0.012943
v -0.675257 0.134357 0.319543
v -0.673057 0.174050 0.059738
v -1.187386 0.108754 0.360276
v -1.167200 0.263756 0.073595
v 0.224653 0.460984 -0.506510
v 0.237408 0.435357 -0.629012
v 0.238095 0.474283 -0.626318
v -0.082306 0.063996 -0.113235
v -0.184538 0.059144 -0.169606
v 0.710569 0.112897 0.224822
v 0.258094 0.062575 0.099210
v 0.296530 0.004202 -0.063091
v 0.744951 0.031880 0.095643
v 0.215772 0.501936 -0.508204
v -0.018035 0.271035 -0.400299
v -0.181757 0.098070 -0.169606
v -0.064590 0.063124 0.016522
v -0.114683 0.098607 0.166541
v -0.670276 0.212976 0.082908
v -1.138675 0.339690 0.096765
v -0.105061 0.243382 -0.483220
v -0.107696 0.204456 -0.484107
v -0.190902 0.070065 0.036113
v -0.011788 0.230083 -0.406834
v 1.009319 0.221782 0.469975
v 1.056556 0.143289 0.432533
v -0.072813 0.094768 -0.118809
v 0.299311 0.043128 -0.039921
v -0.672476 0.173283 0.296701
v -1.158861 0.184687 0.337433
v 0.260875 0.101500 0.076368
v 0.713349 0.151823 0.201980
v 0.760015 0.060528 0.108237
vt 0.106165 0.680645
vt 0.105557 0.681310
vt 0.104793 0.681779
vt 0.103824 0.681411
vt 0.111995 0.706966
vt 0.109558 0.711540
vt 0.107232 0.706432
vt 0.076005 0.722055
vt 0.082507 0.714705
vt 0.084303 0.718418
vt 0.076969 0.723258
vt 0.127557 0.713091
vt 0.125810 0.718608
vt 0.135824 0.716713
vt 0.136025 0.721461
vt 0.107402 0.701688
vt 0.110767 0.700228
vt 0.096972 0.711953
vt 0.095025 0.708758
vt 0.106124 0.690254
vt 0.105125 0.690937
vt 0.111056 0.689634
vt 0.110056 0.689419
vt 0.111948 0.700430
vt 0.125487 0.719757
vt 0.109472 0.713005
vt 0.094725 0.707433
vt 0.105986 0.705164
vt 0.084872 0.719588
vt 0.076506 0.724777
vt 0.112922 0.705632
vt 0.127807 0.711898
vt 0.106620 0.702286
vt 0.137722 0.715913
vt 0.137069 0.723458
vt 0.075113 0.721635
vt 0.082533 0.713790
vt 0.097447 0.713278
vn 0.2188 0.1405 -0.9656
vn 0.4141 0.7813 -0.4669
vn 0.2853 0.7917 0.5402
vn 0.7617 0.0631 0.6449
vn -0.1062 0.9514 -0.2890
vn 0.1874 0.8866 0.4229
vn 0.1815 0.9107 -0.3710
vn 0.9715 0.2315 -0.0499
vn 0.5425 0.3476 -0.7647
vn -0.0693 0.9966 -0.0448
vn 0.3839 0.8228 0.4189
vn 0.1545 0.8829 -0.4434
vn 0.1945 0.7575 0.6232
vn -0.3241 0.9019 -0.2853
vn -0.4333 0.6529 0.6212
vn 0.6943 0.6701 0.2624
vn -0.8057 0.5866 0.0817
vn -0.0220 0.9819 0.1880
vn 0.0766 0.6754 -0.7334
vn 0.0114 0.7419 0.6704
vn 0.8645 -0.0269 0.5018
vn -0.8745 0.0735 -0.4793
vn -0.7566 0.5004 -0.4209
vn -0.9916 0.0774 -0.1032
vn 0.1606 0.4125 0.8967
vn 0.2327 0.4798 0.8459
vn 0.0732 0.4669 -0.8812
vn 0.6671 0.2564 -0.6994
vn -0.4540 0.6393 0.6206
vn -0.0644 0.5773 0.8139
vn -0.7823 0.3528 -0.5134
vn 0.0616 0.4429 -0.8944
vn 0.9928 -0.1129 -0.0407
vn -0.7116 0.5093 -0.4840
vn -0.4400 0.4512 0.7764
vn 0.9528 -0.2791 -0.1199
vn 0.4398 0.2214 -0.8703
vn -0.0272 0.5073 0.8613
s 1
f 11/1/1 12/2/2 19/3/3 10/4/4
f 28/5/5 23/6/6 22/7/7
f 31/8/8 38/9/9 37/10/10 30/11/11
f 24/12/12 34/13/13 23/6/6 28/5/5
f 25/14/14 35/15/15 34/13/13 24/12/12
f 28/5/5 22/7/7 32/16/16 21/17/17
f 22/7/7 23/6/6 36/18/18 33/19/19
f 20/20/20 29/21/21 10/4/4 19/3/3
f 27/22/22 26/23/23 12/2/2 11/1/1
f 38/9/9 33/19/19 36/18/18 37/10/10
f 26/23/23 20/20/20 19/3/3 12/2/2
f 14/24/24 21/17/17 26/23/23 27/22/22
f 6/25/25 4/26/26 23/6/6 34/13/13
f 17/27/27 3/28/28 22/7/7 33/19/19
f 15/29/29 1/30/30 30/11/11 37/10/10
f 5/31/31 7/32/32 24/12/12 28/5/5
f 14/24/24 5/31/31 28/5/5 21/17/17
f 32/16/16 13/33/33 29/21/21 20/20/20
f 9/34/34 8/35/35 35/15/15 25/14/14
f 2/36/36 18/37/37 38/9/9 31/8/8
f 4/26/26 16/38/38 36/18/18 23/6/6
f 8/35/35 6/25/25 34/13/13 35/15/15
f 1/30/30 2/36/36 31/8/8 30/11/11
f 16/38/38 15/29/29 37/10/10 36/18/18
f 3/28/28 13/33/33 32/16/16 22/7/7
f 18/37/37 17/27/27 33/19/19 38/9/9
f 7/32/32 9/34/34 25/14/14 24/12/12
f 21/17/17 32/16/16 20/20/20 26/23/23
g DeadBranch_01_CUBezierCurve.000
v 0.905727 0.154803 0.489067
v 0.983222 0.212716 0.445585
v 1.041770 0.125133 0.433282
v 0.964274 0.067220 0.476764
v -0.067371 0.024198 0.016522
v -0.076637 -0.113410 0.053637
v -0.117464 0.059681 0.166541
v -0.125478 -0.081760 0.199648
v -0.193682 0.031139 0.036113
v -0.200408 -0.113714 0.065408
v -0.704077 -0.077507 0.257068
v -0.675257 0.134357 0.296701
v -0.673057 0.174050 0.082908
v -0.701877 -0.037813 0.043276
v -1.192720 -0.092891 0.181122
v -1.161641 0.145761 0.337433
v -1.141455 0.300764 0.096765
v -1.172535 0.062111 -0.059546
v 0.243873 0.409302 -0.514968
v 0.275959 0.509787 -0.526073
v 0.292772 0.492995 -0.629443
v 0.260686 0.392511 -0.618338
v 0.028861 0.151430 -0.412617
v -0.042299 0.238271 -0.398486
v -0.107797 0.198119 -0.481569
v -0.036637 0.111278 -0.495699
v -0.090783 -0.060797 -0.093815
v -0.075593 0.055842 -0.118809
v -0.184538 0.059144 -0.169606
v -0.199727 -0.057495 -0.144612
v 0.241367 -0.055796 0.135250
v 0.688977 0.027020 0.278167
v 0.710569 0.112897 0.201980
v 0.258094 0.062575 0.076368
v 0.296530 0.004202 -0.039921
v 0.744951 0.031880 0.118813
v 0.723425 -0.055299 0.195359
v 0.279947 -0.112534 0.019724
vt 0.419574 0.721736
vt 0.421233 0.717913
vt 0.422903 0.721991
vt 0.421458 0.714051
vt 0.420610 0.710020
vt 0.423802 0.710670
vt 0.394545 0.707250
vt 0.396142 0.700122
vt 0.407975 0.705531
vt 0.406703 0.711082
vt 0.410008 0.700161
vt 0.421491 0.706359
vt 0.458591 0.725225
vt 0.446472 0.724909
vt 0.447484 0.721663
vt 0.458447 0.722440
vt 0.406531 0.722155
vt 0.406292 0.716628
vt 0.447911 0.718047
vt 0.457515 0.719804
vt 0.464036 0.556662
vt 0.468098 0.570166
vt 0.464967 0.570379
vt 0.461813 0.558124
vt 0.393860 0.722366
vt 0.393922 0.714762
vt 0.447405 0.714569
vt 0.457996 0.717188
vt 0.462053 0.582853
vt 0.462895 0.586709
vt 0.459932 0.587486
vt 0.459183 0.582330
vt 0.461592 0.571107
vt 0.458307 0.571615
vt 0.468098 0.584062
vt 0.465222 0.584204
vt 0.464362 0.580566
vt 0.467280 0.579292
vt 0.399329 0.693346
vt 0.432732 0.715905
vt 0.432827 0.719972
vt 0.433213 0.724062
vt 0.460936 0.560742
vt 0.458340 0.560095
vt 0.455303 0.571631
vt 0.456886 0.557602
vt 0.456235 0.586291
vt 0.456407 0.580891
vt 0.434043 0.711869
vt 0.424706 0.706516
vt 0.435132 0.708200
vt 0.447993 0.711314
vt 0.459666 0.714792
vt 0.459378 0.556148
vt 0.460833 0.558640
vt 0.387417 0.705652
vt 0.389015 0.698525
vt 0.462062 0.716462
vt 0.460392 0.718858
vn -0.2864 0.8892 -0.3566
vn 0.1789 0.7936 0.5815
vn 0.3678 0.7848 -0.4987
vn 0.1234 -0.5952 0.7940
vn -0.2449 -0.9092 -0.3367
vn 0.1924 -0.9626 -0.1910
vn -0.6445 -0.7252 0.2422
vn -0.5494 -0.1994 -0.8114
vn 0.0259 -0.5665 -0.8237
vn 0.0138 -0.8173 0.5760
vn 0.1899 0.8288 -0.5264
vn 0.9929 0.1149 0.0291
vn 0.5379 0.0344 -0.8422
vn -0.0812 0.9888 -0.1252
vn 0.2809 0.9097 0.3058
vn 0.1739 0.5231 0.8343
vn -0.5163 -0.0983 0.8507
vn -0.3662 0.2064 0.9073
vn 0.5707 0.6721 -0.4717
vn -0.8120 0.3520 -0.4654
vn -0.1413 0.8298 0.5398
vn 0.3849 0.7514 0.5359
vn -0.4317 0.8550 -0.2874
vn -0.5281 0.3320 0.7815
vn 0.2593 -0.9652 -0.0324
vn 0.3961 -0.6777 0.6196
vn 0.6860 -0.6971 -0.2083
vn -0.6028 -0.7163 -0.3514
vn 0.8463 -0.4186 0.3294
vn -0.1160 -0.6933 -0.7112
vn 0.6440 0.6838 0.3429
vn -0.8775 0.4787 -0.0289
vn -0.0131 -0.3840 0.9232
vn -0.0459 0.9783 0.2021
vn 0.1171 0.2408 -0.9635
vn 0.7558 -0.3364 0.5617
vn 0.5158 -0.4526 -0.7274
vn 0.0699 -0.9246 -0.3744
s 1
f 47/39/39 45/40/40 43/41/41
f 46/42/42 48/43/43 44/44/44
f 53/45/45 56/46/46 52/47/47 49/48/48
f 52/47/47 51/49/49 47/50/39 48/43/43
f 49/48/48 52/47/47 48/43/43 46/42/42
f 41/51/50 74/52/51 71/53/52 40/54/53
f 51/55/49 50/56/54 45/40/40 47/39/39
f 71/53/52 70/57/55 39/58/56 40/54/53
f 59/59/57 63/60/58 62/61/59 58/62/60
f 55/63/61 54/64/62 50/56/54 51/55/49
f 70/57/55 75/65/63 42/66/64 39/58/56
f 65/67/65 44/68/44 48/69/43 68/70/66
f 61/71/67 65/67/65 68/70/66 64/72/68
f 47/73/39 43/74/41 66/75/69 67/76/70
f 56/46/46 55/77/61 51/49/49 52/47/47
f 45/40/40 46/42/42 69/78/71 72/79/72
f 43/41/41 45/40/40 72/79/72 73/80/73
f 62/61/59 57/81/74 58/62/60
f 43/74/41 44/68/44 65/67/65 66/75/69
f 60/82/75 63/83/58 59/84/57
f 68/70/66 48/69/43 47/85/39 67/86/70
f 66/75/69 61/71/67 62/61/59
f 64/72/68 68/70/66 67/86/70 63/83/58
f 50/56/54 49/48/48 46/42/42 45/40/40
f 74/52/51 73/80/73 72/79/72 71/53/52
f 76/87/76 44/44/44 43/88/41 73/89/73
f 70/57/55 71/53/52 72/79/72 69/78/71
f 69/78/71 76/87/76 75/65/63 70/57/55
f 61/71/67 64/72/68 60/82/75 57/81/74
f 67/76/70 66/75/69 62/61/59 63/60/58
f 69/78/71 46/42/42 44/44/44 76/87/76
f 54/64/62 53/45/45 49/48/48 50/56/54
f 42/66/64 75/65/63 74/90/51 41/91/50
f 59/84/57 58/92/60 57/93/74 60/82/75
f 53/45/45 54/94/62 55/95/61 56/46/46
f 62/61/59 61/71/67 57/81/74
f 60/82/75 64/72/68 63/83/58
f 66/75/69 65/67/65 61/71/67
f 40/96/53 39/97/56 42/66/64 41/91/50
f 75/65/63 76/87/76 73/89/73 74/90/51
