# Blender v2.79 (sub 0) OBJ File: 'polyswamp v1.1.blend'
# www.blender.org
g SwampHut_poles.001_poles
v -1.438735 1.944277 1.425990
v -1.533560 1.919951 1.490498
v -1.503413 1.927685 1.425990
v -1.438735 1.944277 1.555007
v -1.501178 -0.012080 1.546386
v -1.408589 1.952010 1.490498
v -1.416366 -0.012080 1.490498
v -1.443329 -0.012080 1.546386
v -1.501178 -0.012080 1.434610
v -1.528142 -0.012080 1.490498
v -1.443329 -0.012080 1.434610
v -1.503413 1.927685 1.555007
v -1.479331 1.968167 1.490498
v 1.407378 1.944277 1.493725
v 1.510657 1.919951 1.543591
v 1.439717 1.927685 1.549738
v 1.519111 1.944277 1.429216
v 1.542866 -0.012080 1.487604
v 1.448171 1.952010 1.435363
v 1.452060 -0.012080 1.442098
v 1.513942 -0.012080 1.437505
v 1.446066 -0.012080 1.543492
v 1.507948 -0.012080 1.538899
v 1.417141 -0.012080 1.493393
v 1.551450 1.927685 1.485229
v 1.483542 1.968167 1.496628
v -1.438735 1.944277 -1.531512
v -1.533560 1.919951 -1.467003
v -1.503413 1.927685 -1.531512
v -1.438735 1.944277 -1.402494
v -1.501178 -0.012080 -1.411115
v -1.408589 1.952010 -1.467003
v -1.416366 -0.012080 -1.467003
v -1.443329 -0.012080 -1.411115
v -1.501178 -0.012080 -1.522891
v -1.528142 -0.012080 -1.467003
v -1.443329 -0.012080 -1.522891
v -1.503413 1.927685 -1.402494
v -1.479331 1.968167 -1.467003
v 1.407378 1.944277 -1.463776
v 1.510657 1.919951 -1.413911
v 1.439717 1.927685 -1.407764
v 1.519111 1.944277 -1.528285
v 1.542866 -0.012080 -1.469898
v 1.448171 1.952010 -1.522139
v 1.452060 -0.012080 -1.515404
v 1.513942 -0.012080 -1.519996
v 1.446066 -0.012080 -1.414010
v 1.507948 -0.012080 -1.418603
v 1.417141 -0.012080 -1.464108
v 1.551450 1.927685 -1.472273
v 1.483542 1.968167 -1.460874
v -0.051212 2.954774 1.457765
v 0.058671 2.954774 1.457765
v -0.051212 2.954774 1.546732
v 0.058671 2.954774 1.546732
v 0.059045 1.870330 1.443741
v -0.050439 1.878838 1.443742
v -0.050439 1.878838 1.533209
v 0.059045 1.870330 1.533209
v 0.055612 1.867057 -1.426618
v -0.047006 1.875031 -1.426619
v -0.047005 1.875031 -1.510474
v 0.055612 1.867057 -1.510475
v 0.058671 2.954774 -1.410290
v -0.051212 2.954774 -1.410290
v 0.058671 2.954774 -1.499257
v -0.051212 2.954774 -1.499257
v -1.421939 1.893921 1.512390
v -1.422355 1.893479 -1.439310
v -1.506933 1.893478 -1.472615
v -1.506065 1.893922 1.479261
v -1.506065 1.783535 1.479261
v -1.506933 1.783979 -1.472615
v -1.422355 1.783978 -1.439310
v -1.421939 1.783536 1.512390
v 0.092139 3.117999 1.738748
v -0.082836 3.117999 1.722749
v 0.092139 2.938997 1.738748
v -0.087139 2.940701 -1.725179
v 0.090062 2.940701 -1.725179
v -0.087139 3.116296 -1.725179
v 0.090062 3.116296 -1.725179
v -0.082836 2.938997 1.722749
v 0.091536 2.912308 0.732192
v 0.090666 2.913022 -0.718623
v -0.085893 2.913023 -0.726644
v -0.084082 2.912306 0.724213
v -0.084082 3.090322 0.724213
v -0.085893 3.089606 -0.726644
v 0.090666 3.089607 -0.718623
v 0.091536 3.090320 0.732191
v 0.527151 1.675064 1.489193
v 0.417208 -0.004157 1.596407
v 0.400658 0.610086 1.488280
v 0.401101 1.050901 1.488819
v 0.401102 1.055874 1.598303
v 0.400657 0.615033 1.597180
v 0.511045 0.615033 1.597180
v 0.510600 1.055874 1.598303
v 0.510601 1.050901 1.488819
v 0.511044 0.610086 1.488280
v -0.416727 0.610086 1.589910
v -0.417267 1.050901 1.589467
v -0.526750 1.055874 1.589466
v -0.525627 0.615033 1.589911
v -0.525627 0.615033 1.479523
v -0.526750 1.055874 1.479968
v -0.417267 1.050901 1.479967
v -0.416727 0.610086 1.479524
v -0.524854 -0.004157 1.496074
v -0.417641 1.675064 1.606017
v -0.527523 1.675064 1.606017
v -0.417641 1.675064 1.497131
v -0.527523 1.675064 1.497131
v -0.416353 -0.014078 1.496074
v -0.524854 -0.004157 1.607073
v -0.416353 -0.014078 1.607073
v 0.527151 1.675064 1.599076
v 0.418265 1.675064 1.489193
v 0.418265 1.675064 1.599076
v 0.417208 -0.014078 1.487905
v 0.528207 -0.004157 1.596407
v 0.528207 -0.014078 1.487905
v 0.588199 1.784378 1.597098
v -0.595657 1.674435 1.489884
v -0.257401 1.657885 1.598011
v 0.240840 1.658328 1.597472
v 0.246462 1.658329 1.487988
v -0.251809 1.657884 1.489111
v -0.251809 1.768271 1.489111
v 0.246462 1.767827 1.487988
v 0.240840 1.767828 1.597472
v -0.257401 1.768270 1.598011
v 0.588199 1.784378 1.487215
v 0.588199 1.675492 1.597098
v 0.588199 1.675492 1.487215
v -0.602651 1.674434 1.598386
v -0.595657 1.785434 1.489884
v -0.602651 1.785434 1.598386
v 1.513036 1.902723 1.512390
v 1.512619 1.902280 -1.439310
v 1.428041 1.902279 -1.472615
v 1.428909 1.902724 1.479261
v 1.428909 1.792336 1.479261
v 1.428041 1.792781 -1.472615
v 1.512619 1.792780 -1.439310
v 1.513036 1.792337 1.512390
v -1.493673 1.772438 -1.407070
v 1.449596 1.772881 -1.407265
v 1.482806 1.772882 -1.493428
v -1.460639 1.772437 -1.493009
v -1.460639 1.882824 -1.493009
v 1.482806 1.882380 -1.493428
v 1.449596 1.882381 -1.407265
v -1.493673 1.882823 -1.407070
v -1.493673 1.775870 1.548553
v 1.449596 1.776313 1.548255
v 1.482806 1.776314 1.442427
v -1.460639 1.775869 1.443028
v -1.460639 1.886257 1.443028
v 1.482806 1.885812 1.442427
v 1.449596 1.885813 1.548255
v -1.493673 1.886256 1.548553
vt 0.209363 0.903859
vt 0.210554 0.903859
vt 0.210554 0.944139
vt 0.209363 0.944139
vt 0.211745 0.903859
vt 0.211745 0.944139
vt 0.215578 0.903859
vt 0.217028 0.903859
vt 0.217028 0.944139
vt 0.215578 0.944139
vt 0.359270 0.868941
vt 0.358625 0.870235
vt 0.357944 0.868941
vt 0.357264 0.870235
vt 0.356619 0.868940
vt 0.357264 0.867646
vt 0.358625 0.867646
vt 0.213196 0.903859
vt 0.213196 0.944139
vt 0.214387 0.903859
vt 0.214387 0.944139
vt 0.209363 0.903859
vt 0.210554 0.903859
vt 0.210554 0.944139
vt 0.209363 0.944139
vt 0.211745 0.903859
vt 0.211745 0.944139
vt 0.215578 0.903859
vt 0.217028 0.903859
vt 0.217028 0.944139
vt 0.215578 0.944139
vt 0.356619 0.868940
vt 0.357264 0.867646
vt 0.357944 0.868940
vt 0.358625 0.867646
vt 0.359270 0.868940
vt 0.358625 0.870235
vt 0.357264 0.870235
vt 0.213196 0.903859
vt 0.213196 0.944139
vt 0.214387 0.903859
vt 0.214387 0.944139
vt 0.209363 0.903859
vt 0.210554 0.903859
vt 0.210554 0.944139
vt 0.209363 0.944139
vt 0.211745 0.903859
vt 0.211745 0.944139
vt 0.215578 0.903859
vt 0.217028 0.903859
vt 0.217028 0.944139
vt 0.215578 0.944139
vt 0.356619 0.868941
vt 0.357264 0.867646
vt 0.357944 0.868940
vt 0.358625 0.867646
vt 0.359270 0.868940
vt 0.358625 0.870235
vt 0.357264 0.870235
vt 0.213196 0.903859
vt 0.213196 0.944139
vt 0.214387 0.903859
vt 0.214387 0.944139
vt 0.209363 0.903859
vt 0.210554 0.903859
vt 0.210554 0.944139
vt 0.209363 0.944139
vt 0.211745 0.903859
vt 0.211745 0.944139
vt 0.215578 0.903859
vt 0.217028 0.903859
vt 0.217028 0.944139
vt 0.215578 0.944139
vt 0.356619 0.868941
vt 0.357264 0.867646
vt 0.357944 0.868941
vt 0.358625 0.867646
vt 0.359270 0.868941
vt 0.358625 0.870235
vt 0.357264 0.870235
vt 0.213196 0.903859
vt 0.213196 0.944139
vt 0.214387 0.903859
vt 0.214387 0.944139
vt 0.214082 0.968333
vt 0.214082 0.946102
vt 0.215962 0.946121
vt 0.215962 0.968352
vt 0.218192 0.968333
vt 0.218192 0.946102
vt 0.212111 0.968352
vt 0.212111 0.946121
vt 0.209973 0.968333
vt 0.209973 0.946102
vt 0.214070 0.968458
vt 0.214070 0.946102
vt 0.212098 0.946121
vt 0.212098 0.968477
vt 0.209973 0.968477
vt 0.209973 0.946121
vt 0.215950 0.968477
vt 0.215950 0.946121
vt 0.218180 0.968458
vt 0.218180 0.946102
vt 0.203745 0.903834
vt 0.205639 0.903834
vt 0.205639 0.964439
vt 0.203745 0.964439
vt 0.201448 0.964439
vt 0.199554 0.964439
vt 0.199554 0.903834
vt 0.201448 0.903834
vt 0.197257 0.903834
vt 0.197257 0.964439
vt 0.144970 0.782148
vt 0.165503 0.782148
vt 0.165503 0.785751
vt 0.144970 0.785751
vt 0.144970 0.789335
vt 0.165503 0.789336
vt 0.144970 0.778563
vt 0.165503 0.778563
vt 0.451080 0.792822
vt 0.447753 0.792822
vt 0.447753 0.789503
vt 0.451080 0.789503
vt 0.382551 0.789503
vt 0.382551 0.792823
vt 0.379225 0.792822
vt 0.379225 0.789503
vt 0.215742 0.782148
vt 0.195208 0.782148
vt 0.195208 0.778563
vt 0.215742 0.778563
vt 0.215742 0.785751
vt 0.195208 0.785751
vt 0.195208 0.774960
vt 0.215742 0.774960
vt 0.195208 0.789336
vt 0.215742 0.789336
vt 0.165503 0.774960
vt 0.144970 0.774960
vt 0.130841 0.878095
vt 0.133005 0.878333
vt 0.133005 0.887394
vt 0.130841 0.887156
vt 0.128551 0.887156
vt 0.126273 0.887156
vt 0.126273 0.878095
vt 0.128551 0.878095
vt 0.123983 0.878095
vt 0.123983 0.887156
vt 0.128465 0.900226
vt 0.130755 0.900226
vt 0.126187 0.900227
vt 0.130841 0.865312
vt 0.133005 0.865549
vt 0.132919 0.900464
vt 0.123983 0.865312
vt 0.126273 0.865312
vt 0.128551 0.865312
vt 0.123897 0.900226
vt 0.130670 0.878144
vt 0.132919 0.878144
vt 0.132919 0.887240
vt 0.130670 0.887240
vt 0.128408 0.900073
vt 0.128408 0.887240
vt 0.130670 0.900073
vt 0.130670 0.865312
vt 0.132919 0.865312
vt 0.128408 0.878144
vt 0.132919 0.900073
vt 0.128408 0.865312
vt 0.126158 0.900073
vt 0.126158 0.887240
vt 0.126158 0.878144
vt 0.123897 0.900073
vt 0.123897 0.887240
vt 0.123897 0.878144
vt 0.123897 0.865312
vt 0.126158 0.865312
vt 0.351675 0.899080
vt 0.351675 0.897015
vt 0.353783 0.897015
vt 0.353783 0.899080
vt 0.111456 0.891773
vt 0.109181 0.891773
vt 0.109181 0.881558
vt 0.111456 0.881558
vt 0.113744 0.881558
vt 0.116019 0.881558
vt 0.116019 0.891773
vt 0.113744 0.891773
vt 0.118307 0.891773
vt 0.118307 0.881558
vt 0.113744 0.874485
vt 0.111456 0.874485
vt 0.116019 0.874485
vt 0.111456 0.898845
vt 0.109181 0.898845
vt 0.109181 0.874485
vt 0.118307 0.898845
vt 0.116019 0.898845
vt 0.113744 0.898845
vt 0.118307 0.874485
vt 0.353783 0.874573
vt 0.351675 0.874573
vt 0.351675 0.872508
vt 0.353783 0.872508
vt 0.203750 0.903834
vt 0.205646 0.903834
vt 0.205646 0.964439
vt 0.203750 0.964439
vt 0.201451 0.964439
vt 0.199556 0.964439
vt 0.199556 0.903834
vt 0.201451 0.903834
vt 0.197257 0.903834
vt 0.197257 0.964439
vt 0.203673 0.903834
vt 0.205568 0.903834
vt 0.205568 0.964436
vt 0.203673 0.964436
vt 0.201413 0.964436
vt 0.199517 0.964436
vt 0.199517 0.903834
vt 0.201413 0.903834
vt 0.197257 0.903834
vt 0.197257 0.964436
vt 0.203750 0.903834
vt 0.205639 0.903834
vt 0.205639 0.964439
vt 0.203750 0.964439
vt 0.201413 0.964439
vt 0.199556 0.964439
vt 0.199556 0.903834
vt 0.201413 0.903834
vt 0.197257 0.903834
vt 0.197257 0.964439
vn 0.0006 -0.0044 -1.0000
vn -0.9034 -0.0027 -0.4287
vn 0.9036 -0.0038 -0.4284
vn -0.6488 0.7297 0.2157
vn -0.2209 0.8611 0.4579
vn 0.2174 0.9519 0.2157
vn 0.2174 0.9519 -0.2157
vn -0.2209 0.8611 -0.4579
vn -0.6488 0.7297 -0.2157
vn -0.9034 -0.0027 0.4287
vn 0.0006 -0.0044 1.0000
vn 0.9036 -0.0038 0.4284
vn -0.8663 -0.0044 0.4995
vn 0.0804 -0.0027 0.9968
vn -0.8228 -0.0038 -0.5683
vn 0.5112 0.7297 0.4540
vn 0.5070 0.8611 -0.0376
vn 0.0781 0.9519 -0.2961
vn -0.2955 0.9519 -0.0804
vn -0.2861 0.8611 0.4203
vn 0.1376 0.7297 0.6698
vn 0.8230 -0.0027 0.5680
vn 0.8657 -0.0044 -0.5005
vn -0.0808 -0.0038 -0.9967
vn 0.5070 0.8611 -0.0377
vn -1.0000 -0.0007 0.0000
vn -0.0005 -0.0125 0.9999
vn 0.0005 0.0130 -0.9999
vn 1.0000 0.0003 0.0000
vn -1.0000 -0.0039 -0.0000
vn -0.0006 -0.0151 0.9999
vn 0.0004 0.0104 -0.9999
vn 1.0000 -0.0028 0.0000
vn 0.0001 1.0000 -0.0002
vn 0.0001 -1.0000 -0.0002
vn 1.0000 0.0000 -0.0001
vn -1.0000 0.0000 0.0003
vn -1.0000 0.0000 0.0012
vn -0.0006 0.9996 0.0266
vn 0.0006 -0.9996 -0.0276
vn -0.0911 0.0000 0.9958
vn 0.0000 0.0000 -1.0000
vn -0.0018 -0.9996 0.0266
vn 1.0000 0.0000 -0.0006
vn 0.0019 0.9996 -0.0276
vn 0.0000 -1.0000 -0.0005
vn 0.0000 1.0000 -0.0005
vn 1.0000 0.0010 -0.0000
vn -1.0000 0.0010 -0.0000
vn 0.0000 0.0012 -1.0000
vn 0.0000 -0.0012 1.0000
vn -0.9996 0.0276 -0.0006
vn 0.9996 0.0276 -0.0019
vn 0.9996 -0.0266 0.0006
vn 0.0000 0.0006 -1.0000
vn -0.9996 -0.0266 0.0018
vn 0.0000 -0.0025 1.0000
vn 0.0000 0.0010 1.0000
vn -1.0000 -0.0012 0.0000
vn 0.0019 0.0276 0.9996
vn -1.0000 -0.0025 0.0000
vn -0.0006 -0.0266 0.9996
vn 0.0006 0.0276 -0.9996
vn 0.0000 0.0010 -1.0000
vn 1.0000 0.0006 0.0000
vn 1.0000 0.0012 0.0000
vn -0.0018 -0.0266 -0.9996
vn -0.9979 0.0000 -0.0643
vn 0.0009 1.0000 0.0000
vn 0.0009 -1.0000 0.0000
vn 0.0011 -0.0000 1.0000
vn -0.0023 0.0000 -1.0000
vn 0.0498 -0.9988 0.0013
vn 0.0498 0.9988 0.0029
vn -0.0480 0.9988 -0.0012
vn -0.0480 -0.9988 -0.0028
vn 1.0000 0.0000 0.0000
vn -0.0022 0.0000 -1.0000
vn 0.0002 1.0000 0.0001
vn 0.0002 -1.0000 0.0001
vn 0.0001 0.0000 1.0000
vn -0.0001 0.0000 -1.0000
vn 0.0002 1.0000 0.0000
vn 0.0002 -1.0000 0.0000
vn -0.0002 0.0000 -1.0000
s off
f 11/1/1 9/2/1 3/3/1 1/4/1
f 3/3/2 9/2/2 10/5/2 2/6/2
f 7/7/3 11/8/3 1/9/3 6/10/3
f 2/11/4 12/12/4 13/13/4
f 12/12/5 4/14/5 13/13/5
f 4/14/6 6/15/6 13/13/6
f 6/15/7 1/16/7 13/13/7
f 1/16/8 3/17/8 13/13/8
f 3/17/9 2/11/9 13/13/9
f 10/5/10 5/18/10 12/19/10 2/6/10
f 12/19/11 5/18/11 8/20/11 4/21/11
f 7/7/12 6/10/12 4/21/12 8/20/12
f 24/22/13 22/23/13 16/24/13 14/25/13
f 16/24/14 22/23/14 23/26/14 15/27/14
f 20/28/15 24/29/15 14/30/15 19/31/15
f 15/32/16 25/33/16 26/34/16
f 25/33/17 17/35/17 26/34/17
f 17/35/18 19/36/18 26/34/18
f 19/36/19 14/37/19 26/34/19
f 14/37/20 16/38/20 26/34/20
f 16/38/21 15/32/21 26/34/21
f 23/26/22 18/39/22 25/40/22 15/27/22
f 25/40/23 18/39/23 21/41/23 17/42/23
f 20/28/24 19/31/24 17/42/24 21/41/24
f 37/43/1 35/44/1 29/45/1 27/46/1
f 29/45/2 35/44/2 36/47/2 28/48/2
f 33/49/3 37/50/3 27/51/3 32/52/3
f 28/53/4 38/54/4 39/55/4
f 38/54/5 30/56/5 39/55/5
f 30/56/6 32/57/6 39/55/6
f 32/57/7 27/58/7 39/55/7
f 27/58/8 29/59/8 39/55/8
f 29/59/9 28/53/9 39/55/9
f 36/47/10 31/60/10 38/61/10 28/48/10
f 38/61/11 31/60/11 34/62/11 30/63/11
f 33/49/12 32/52/12 30/63/12 34/62/12
f 50/64/13 48/65/13 42/66/13 40/67/13
f 42/66/14 48/65/14 49/68/14 41/69/14
f 46/70/15 50/71/15 40/72/15 45/73/15
f 41/74/16 51/75/16 52/76/16
f 51/75/25 43/77/25 52/76/25
f 43/77/18 45/78/18 52/76/18
f 45/78/19 40/79/19 52/76/19
f 40/79/20 42/80/20 52/76/20
f 42/80/21 41/74/21 52/76/21
f 49/68/22 44/81/22 51/82/22 41/69/22
f 51/82/23 44/81/23 47/83/23 43/84/23
f 46/70/24 45/73/24 43/84/24 47/83/24
f 53/85/26 58/86/26 59/87/26 55/88/26
f 56/89/27 55/88/27 59/87/27 60/90/27
f 58/86/28 53/85/28 54/91/28 57/92/28
f 54/91/29 56/93/29 60/94/29 57/92/29
f 68/95/30 63/96/30 62/97/30 66/98/30
f 65/99/31 66/98/31 62/97/31 61/100/31
f 63/96/32 68/95/32 67/101/32 64/102/32
f 67/101/33 65/103/33 61/104/33 64/102/33
f 72/105/34 69/106/34 70/107/34 71/108/34
f 74/109/35 75/110/35 76/111/35 73/112/35
f 69/113/36 76/111/36 75/110/36 70/114/36
f 73/112/37 72/105/37 71/108/37 74/109/37
f 80/115/38 87/116/38 90/117/38 82/118/38
f 83/119/39 82/118/39 90/117/39 91/120/39
f 87/116/40 80/115/40 81/121/40 86/122/40
f 77/123/41 78/124/41 84/125/41 79/126/41
f 80/127/42 82/128/42 83/129/42 81/130/42
f 84/131/43 88/132/43 85/133/43 79/134/43
f 88/132/38 84/131/38 78/135/38 89/136/38
f 85/133/44 92/137/44 77/138/44 79/134/44
f 92/139/45 89/136/45 78/135/45 77/140/45
f 92/137/44 85/133/44 86/122/44 91/141/44
f 88/132/38 89/136/38 90/117/38 87/116/38
f 87/116/46 86/122/46 85/133/46 88/132/46
f 89/136/47 92/139/47 91/120/47 90/117/47
f 81/121/44 83/142/44 91/141/44 86/122/44
f 99/143/48 102/144/48 101/145/48 100/146/48
f 97/147/49 96/148/49 95/149/49 98/150/49
f 102/151/50 95/149/50 96/148/50 101/152/50
f 121/153/51 97/147/51 100/146/51 119/154/51
f 97/147/52 121/153/52 120/155/52 96/148/52
f 102/144/53 99/143/53 123/156/53 124/157/53
f 93/158/54 119/154/54 100/146/54 101/145/54
f 95/149/55 102/151/55 124/159/55 122/160/55
f 94/161/56 98/150/56 95/149/56 122/160/56
f 120/155/55 93/162/55 101/152/55 96/148/55
f 98/150/57 99/143/57 100/146/57 97/147/57
f 98/150/51 94/161/51 123/156/51 99/143/51
f 106/163/58 103/164/58 104/165/58 105/166/58
f 115/167/59 108/168/59 105/166/59 113/169/59
f 103/164/60 106/163/60 117/170/60 118/171/60
f 107/172/61 106/163/61 105/166/61 108/168/61
f 112/173/62 113/169/62 105/166/62 104/165/62
f 107/172/59 111/174/59 117/170/59 106/163/59
f 108/168/63 115/167/63 114/175/63 109/176/63
f 108/168/64 109/176/64 110/177/64 107/172/64
f 114/175/65 112/178/65 104/179/65 109/176/65
f 103/180/66 110/177/66 109/176/66 104/179/66
f 110/177/65 103/180/65 118/181/65 116/182/65
f 111/174/67 107/172/67 110/177/67 116/182/67
f 140/183/68 139/184/68 126/185/68 138/186/68
f 131/187/69 134/188/69 133/189/69 132/190/69
f 129/191/70 128/192/70 127/193/70 130/194/70
f 134/195/71 127/193/71 128/192/71 133/196/71
f 137/197/72 129/191/72 132/190/72 135/198/72
f 129/191/73 137/197/73 136/199/73 128/192/73
f 134/188/74 131/187/74 139/200/74 140/201/74
f 125/202/75 135/198/75 132/190/75 133/189/75
f 127/193/71 134/195/71 140/203/71 138/204/71
f 126/205/76 130/194/76 127/193/76 138/204/76
f 136/199/71 125/206/71 133/196/71 128/192/71
f 137/207/77 135/208/77 125/209/77 136/210/77
f 130/194/72 131/187/72 132/190/72 129/191/72
f 130/194/78 126/205/78 139/200/78 131/187/78
f 144/211/34 141/212/34 142/213/34 143/214/34
f 146/215/35 147/216/35 148/217/35 145/218/35
f 141/219/36 148/217/36 147/216/36 142/220/36
f 145/218/37 144/211/37 143/214/37 146/215/37
f 153/221/79 156/222/79 155/223/79 154/224/79
f 151/225/80 150/226/80 149/227/80 152/228/80
f 156/229/81 149/227/81 150/226/81 155/230/81
f 152/228/82 153/221/82 154/224/82 151/225/82
f 161/231/83 164/232/83 163/233/83 162/234/83
f 159/235/84 158/236/84 157/237/84 160/238/84
f 164/239/81 157/237/81 158/236/81 163/240/81
f 160/238/85 161/231/85 162/234/85 159/235/85
