# Blender v2.79 (sub 0) OBJ File: 'polyswamp v1.1.blend'
# www.blender.org
mtllib swamp_lantern_m.mtl
g Lantern_Glass_Circle.008
v -0.000000 -0.287324 0.062322
v -0.044069 -0.287324 0.044069
v -0.062322 -0.287323 0.000000
v -0.044069 -0.287323 -0.044069
v -0.000000 -0.287323 -0.062322
v 0.044069 -0.287323 -0.044069
v 0.062322 -0.287323 0.000000
v 0.044069 -0.287324 0.044069
v -0.000000 -0.080049 0.060522
v -0.042795 -0.080049 0.042795
v -0.060522 -0.080049 0.000000
v -0.042795 -0.080049 -0.042795
v -0.000000 -0.080049 -0.060522
v 0.042795 -0.080049 -0.042795
v 0.060522 -0.080049 0.000000
v 0.042795 -0.080049 0.042795
v 0.079069 -0.122968 0.000000
v 0.088312 -0.176270 0.000000
v 0.079069 -0.244404 0.000000
v 0.055911 -0.244404 0.055911
v 0.062446 -0.176270 0.062446
v 0.055911 -0.122968 0.055911
v -0.000000 -0.122968 -0.079069
v 0.000000 -0.176270 -0.088312
v -0.000000 -0.244404 -0.079069
v 0.055911 -0.244404 -0.055910
v 0.062446 -0.176270 -0.062446
v 0.055911 -0.122968 -0.055910
v -0.079069 -0.122968 0.000000
v -0.088312 -0.176270 0.000000
v -0.079069 -0.244404 0.000000
v -0.055911 -0.244404 -0.055911
v -0.062446 -0.176270 -0.062446
v -0.055911 -0.122968 -0.055911
v -0.000000 -0.122968 0.079069
v -0.000000 -0.176270 0.088312
v -0.000000 -0.244404 0.079069
v -0.055911 -0.244404 0.055911
v -0.062446 -0.176270 0.062446
v -0.055911 -0.122968 0.055911
vt 0.276023 0.269657
vt 0.271292 0.269657
vt 0.271292 0.263473
vt 0.276023 0.263473
vt 0.276022 0.282025
vt 0.271292 0.282025
vt 0.271292 0.275841
vt 0.276022 0.275841
vt 0.276022 0.294393
vt 0.271292 0.294393
vt 0.271292 0.288209
vt 0.276022 0.288209
vt 0.276022 0.306761
vt 0.271292 0.306761
vt 0.271292 0.300577
vt 0.276022 0.300577
vt 0.276023 0.312945
vt 0.271292 0.312945
vt 0.293115 0.300577
vt 0.288453 0.300577
vt 0.288453 0.294393
vt 0.293115 0.294393
vt 0.281496 0.300577
vt 0.281496 0.294393
vt 0.293115 0.288209
vt 0.288453 0.288209
vt 0.288453 0.282025
vt 0.293115 0.282025
vt 0.281496 0.288209
vt 0.281496 0.282025
vt 0.293115 0.275841
vt 0.288453 0.275841
vt 0.288453 0.269657
vt 0.293115 0.269657
vt 0.281496 0.275841
vt 0.281496 0.269657
vt 0.293115 0.312945
vt 0.288453 0.312945
vt 0.288453 0.306761
vt 0.293115 0.306761
vt 0.281496 0.312945
vt 0.281496 0.306761
vt 0.288453 0.263473
vt 0.293115 0.263473
vt 0.281496 0.263473
vn 0.9605 0.2782 0.0000
vn 0.9180 0.3967 -0.0000
vn 0.6491 0.3967 0.6491
vn 0.6792 0.2782 0.6792
vn 0.0000 0.2782 -0.9605
vn 0.0000 0.3967 -0.9180
vn 0.6491 0.3967 -0.6491
vn 0.6792 0.2782 -0.6792
vn -0.9605 0.2782 0.0000
vn -0.9180 0.3967 0.0000
vn -0.6491 0.3967 -0.6491
vn -0.6792 0.2782 -0.6792
vn -0.0000 0.2782 0.9605
vn 0.0000 0.3967 0.9180
vn -0.6491 0.3967 0.6491
vn -0.6792 0.2782 0.6792
vn -0.6587 -0.3635 0.6587
vn -0.6857 -0.2440 0.6857
vn -0.9698 -0.2440 -0.0000
vn -0.9316 -0.3635 -0.0000
vn -0.7070 0.0178 0.7070
vn -0.9998 0.0178 0.0000
vn -0.6587 -0.3635 -0.6587
vn -0.6857 -0.2440 -0.6857
vn 0.0000 -0.2440 -0.9698
vn 0.0000 -0.3635 -0.9316
vn -0.7070 0.0178 -0.7070
vn 0.0000 0.0178 -0.9998
vn 0.6587 -0.3635 -0.6587
vn 0.6857 -0.2440 -0.6857
vn 0.9698 -0.2440 -0.0000
vn 0.9316 -0.3635 -0.0000
vn 0.7070 0.0178 -0.7070
vn 0.9998 0.0178 -0.0000
vn 0.6587 -0.3635 0.6587
vn 0.6857 -0.2440 0.6857
vn 0.0000 -0.2440 0.9698
vn 0.0000 -0.3635 0.9316
vn 0.7070 0.0178 0.7070
vn 0.0000 0.0178 0.9998
usemtl polyswamp_atlas01
s 1
f 17/1/1 15/2/2 16/3/3 22/4/4
f 23/5/5 13/6/6 14/7/7 28/8/8
f 29/9/9 11/10/10 12/11/11 34/12/12
f 35/13/13 9/14/14 10/15/15 40/16/16
f 22/17/4 16/18/3 9/14/14 35/13/13
f 28/8/8 14/7/7 15/2/2 17/1/1
f 34/12/12 12/11/11 13/6/6 23/5/5
f 40/16/16 10/15/15 11/10/10 29/9/9
f 2/19/17 38/20/18 31/21/19 3/22/20
f 38/20/18 39/23/21 30/24/22 31/21/19
f 39/23/21 40/16/16 29/9/9 30/24/22
f 4/25/23 32/26/24 25/27/25 5/28/26
f 32/26/24 33/29/27 24/30/28 25/27/25
f 33/29/27 34/12/12 23/5/5 24/30/28
f 6/31/29 26/32/30 19/33/31 7/34/32
f 26/32/30 27/35/33 18/36/34 19/33/31
f 27/35/33 28/8/8 17/1/1 18/36/34
f 8/37/35 20/38/36 37/39/37 1/40/38
f 20/38/36 21/41/39 36/42/40 37/39/37
f 21/41/39 22/17/4 35/13/13 36/42/40
f 1/40/38 37/39/37 38/20/18 2/19/17
f 37/39/37 36/42/40 39/23/21 38/20/18
f 36/42/40 35/13/13 40/16/16 39/23/21
f 3/22/20 31/21/19 32/26/24 4/25/23
f 31/21/19 30/24/22 33/29/27 32/26/24
f 30/24/22 29/9/9 34/12/12 33/29/27
f 5/28/26 25/27/25 26/32/30 6/31/29
f 25/27/25 24/30/28 27/35/33 26/32/30
f 24/30/28 23/5/5 28/8/8 27/35/33
f 7/34/32 19/33/31 20/43/36 8/44/35
f 19/33/31 18/36/34 21/45/39 20/43/36
f 18/36/34 17/1/1 22/4/4 21/45/39
g Lantern_Circle.009
v 0.000000 -0.020105 0.000000
v 0.000000 -0.024989 0.005797
v 0.000000 -0.029872 -0.000000
v 0.000000 -0.024989 -0.005797
v 0.019054 -0.020031 0.000000
v 0.023153 -0.024131 0.005797
v 0.027252 -0.028230 -0.000000
v 0.023153 -0.024130 -0.005797
v 0.026949 -0.000978 -0.000000
v 0.032746 -0.000978 0.005797
v 0.038543 -0.000978 -0.000000
v 0.032746 -0.000978 -0.005797
v 0.019054 0.018076 0.000000
v 0.023153 0.022175 0.005797
v 0.027252 0.026274 -0.000000
v 0.023153 0.022175 -0.005797
v -0.000000 0.025971 0.000000
v 0.000000 0.031768 0.005797
v 0.000000 0.037565 -0.000000
v 0.000000 0.031768 -0.005797
v -0.019054 0.018076 0.000000
v -0.023153 0.022175 0.005797
v -0.027252 0.026274 0.000000
v -0.023153 0.022175 -0.005797
v -0.026949 -0.000978 0.000000
v -0.032746 -0.000978 0.005797
v -0.038543 -0.000978 0.000000
v -0.032746 -0.000978 -0.005797
v -0.019054 -0.020031 0.000000
v -0.023153 -0.024130 0.005797
v -0.027252 -0.028230 0.000000
v -0.023153 -0.024130 -0.005797
v -0.000000 -0.081624 0.063892
v -0.045179 -0.081624 0.045179
v -0.063892 -0.081624 0.000000
v -0.045179 -0.081624 -0.045179
v 0.000000 -0.081624 -0.063892
v 0.045179 -0.081624 -0.045179
v 0.063892 -0.081624 0.000000
v 0.045179 -0.081624 0.045179
v 0.013501 -0.012691 -0.009853
v 0.013621 -0.036237 -0.009827
v 0.013213 -0.012642 0.010040
v 0.013334 -0.036188 0.010066
v -0.013334 -0.012865 -0.010066
v -0.013213 -0.036411 -0.010040
v -0.013622 -0.012816 0.009827
v -0.013501 -0.036362 0.009853
v -0.000000 -0.035112 0.000000
v -0.000000 -0.042268 0.056277
v -0.000000 -0.049303 0.063892
v -0.045179 -0.049303 0.045179
v -0.039794 -0.042268 0.039794
v -0.063892 -0.049303 0.000000
v -0.056277 -0.042267 0.000000
v -0.045179 -0.049303 -0.045179
v -0.039794 -0.042267 -0.039794
v 0.000000 -0.049303 -0.063892
v -0.000000 -0.042267 -0.056277
v 0.045179 -0.049303 -0.045179
v 0.039794 -0.042267 -0.039794
v 0.063892 -0.049303 0.000000
v 0.056277 -0.042267 0.000000
v 0.045179 -0.049303 0.045179
v 0.039794 -0.042268 0.039794
v 0.056096 -0.282494 0.056096
v 0.063687 -0.292412 0.063687
v 0.079331 -0.282494 0.000000
v 0.090067 -0.292412 0.000000
v 0.056096 -0.282494 -0.056096
v 0.063687 -0.292412 -0.063687
v 0.000000 -0.282494 -0.079331
v 0.000000 -0.292412 -0.090067
v -0.056096 -0.282494 -0.056096
v -0.063687 -0.292412 -0.063687
v -0.079331 -0.282494 0.000000
v -0.090067 -0.292412 0.000000
v -0.056096 -0.282494 0.056096
v -0.063687 -0.292412 0.063687
v -0.000000 -0.292412 0.090067
v -0.000000 -0.282494 0.079331
v -0.000000 -0.282494 0.000000
v 0.071651 -0.363111 0.071651
v 0.101329 -0.363111 0.000000
v 0.071651 -0.363111 -0.071651
v 0.000000 -0.363111 -0.101329
v -0.071651 -0.363111 -0.071651
v -0.101329 -0.363111 0.000000
v -0.071651 -0.363111 0.071651
v -0.000000 -0.363111 0.101329
v -0.000000 -0.080573 0.000000
v -0.000000 -0.362484 0.000000
v 0.063389 -0.318671 -0.000000
v 0.071480 -0.327835 0.012179
v 0.078185 -0.336203 -0.000000
v 0.071480 -0.327835 -0.012180
v 0.088972 -0.269887 -0.000000
v 0.100879 -0.274422 0.013368
v 0.112012 -0.278965 -0.000000
v 0.100879 -0.274422 -0.013368
v 0.059067 -0.079207 -0.000000
v 0.060378 -0.065301 0.012231
v 0.061321 -0.052697 -0.000000
v 0.060378 -0.065301 -0.012231
v 0.076357 -0.084816 -0.000000
v 0.091327 -0.120894 -0.000000
v 0.104483 -0.117575 0.013370
v 0.085855 -0.074205 0.013335
v 0.094441 -0.064749 -0.000000
v 0.116866 -0.114446 -0.000000
v 0.104483 -0.117575 -0.013370
v 0.085855 -0.074205 -0.013336
v -0.061340 -0.318671 -0.000000
v -0.069431 -0.327835 -0.012180
v -0.076136 -0.336203 -0.000000
v -0.069431 -0.327835 0.012179
v -0.086923 -0.269887 -0.000000
v -0.098830 -0.274422 -0.013368
v -0.109962 -0.278965 -0.000000
v -0.098830 -0.274422 0.013368
v -0.057017 -0.079207 -0.000000
v -0.058328 -0.065301 -0.012231
v -0.059271 -0.052697 -0.000000
v -0.058328 -0.065301 0.012231
v -0.074307 -0.084816 -0.000000
v -0.089277 -0.120894 -0.000000
v -0.102433 -0.117575 -0.013370
v -0.083806 -0.074205 -0.013336
v -0.092392 -0.064749 -0.000000
v -0.114817 -0.114446 -0.000000
v -0.102433 -0.117575 0.013370
v -0.083806 -0.074205 0.013335
v -0.000000 -0.268737 0.086614
v -0.012962 -0.274033 0.091901
v -0.012962 -0.284626 0.102475
v -0.000000 -0.289922 0.107762
v 0.012962 -0.284626 0.102475
v 0.012962 -0.274033 0.091901
v -0.000000 -0.285626 0.069477
v -0.012962 -0.290922 0.074764
v -0.012962 -0.301515 0.085338
v -0.000000 -0.306811 0.090625
v 0.012962 -0.301515 0.085338
v 0.012962 -0.290922 0.074764
vt 0.185474 0.174121
vt 0.196199 0.174147
vt 0.196162 0.180818
vt 0.185437 0.180792
vt 0.185474 0.200806
vt 0.196199 0.200832
vt 0.196162 0.207504
vt 0.185437 0.207478
vt 0.185469 0.194135
vt 0.196194 0.194161
vt 0.196167 0.187490
vt 0.185442 0.187464
vt 0.196103 0.214175
vt 0.185378 0.214149
vt 0.179705 0.197494
vt 0.179651 0.184151
vt 0.173914 0.194181
vt 0.173887 0.187510
vt 0.195048 0.069052
vt 0.195048 0.075056
vt 0.192990 0.075056
vt 0.192990 0.069052
vt 0.188873 0.069052
vt 0.188873 0.075056
vt 0.186815 0.075056
vt 0.186815 0.069052
vt 0.190932 0.069052
vt 0.190932 0.075056
vt 0.195048 0.081548
vt 0.192990 0.081548
vt 0.188873 0.081548
vt 0.186815 0.081548
vt 0.190932 0.081548
vt 0.195048 0.088041
vt 0.192990 0.088041
vt 0.188873 0.088041
vt 0.186815 0.088041
vt 0.190932 0.088041
vt 0.195048 0.094534
vt 0.192990 0.094534
vt 0.188873 0.094534
vt 0.186815 0.094534
vt 0.190932 0.094534
vt 0.195048 0.101026
vt 0.192990 0.101026
vt 0.188873 0.101026
vt 0.186815 0.101026
vt 0.190932 0.101026
vt 0.195048 0.107519
vt 0.192990 0.107519
vt 0.188873 0.107519
vt 0.186815 0.107519
vt 0.190932 0.107519
vt 0.195048 0.114012
vt 0.192990 0.114012
vt 0.188873 0.114012
vt 0.186815 0.114012
vt 0.190932 0.114012
vt 0.195048 0.120015
vt 0.192990 0.120015
vt 0.188873 0.120015
vt 0.186815 0.120015
vt 0.190932 0.120015
vt 0.139473 0.206799
vt 0.135178 0.202544
vt 0.138778 0.198921
vt 0.143073 0.203175
vt 0.136487 0.182523
vt 0.141936 0.169240
vt 0.147476 0.182485
vt 0.128652 0.163792
vt 0.128690 0.174780
vt 0.155219 0.174688
vt 0.155181 0.163700
vt 0.173887 0.094162
vt 0.182185 0.094162
vt 0.182185 0.106717
vt 0.173887 0.106717
vt 0.136395 0.155995
vt 0.147384 0.155957
vt 0.173887 0.156936
vt 0.182185 0.156936
vt 0.182185 0.169491
vt 0.173887 0.169491
vt 0.173887 0.131827
vt 0.182185 0.131827
vt 0.182185 0.144382
vt 0.173887 0.144382
vt 0.182185 0.119272
vt 0.173887 0.119272
vt 0.173887 0.069052
vt 0.182185 0.069052
vt 0.182185 0.081607
vt 0.173887 0.081607
vt 0.148520 0.153344
vt 0.157832 0.162656
vt 0.135351 0.153344
vt 0.126040 0.162656
vt 0.126040 0.175824
vt 0.135351 0.185136
vt 0.148520 0.185136
vt 0.157832 0.175824
vt 0.143073 0.194666
vt 0.133923 0.194033
vt 0.138217 0.189778
vt 0.129640 0.189766
vt 0.130322 0.197656
vt 0.126040 0.193389
vt 0.126040 0.201922
vt 0.130895 0.206810
vt 0.050329 0.192940
vt 0.068709 0.192940
vt 0.068709 0.210638
vt 0.050329 0.210638
vt 0.050329 0.122147
vt 0.068709 0.122147
vt 0.068709 0.139845
vt 0.050329 0.139845
vt 0.050329 0.086750
vt 0.068709 0.086750
vt 0.068709 0.104449
vt 0.050329 0.104449
vt 0.077011 0.136433
vt 0.095673 0.144086
vt 0.077065 0.151870
vt 0.050329 0.175241
vt 0.068709 0.175241
vt 0.050329 0.157543
vt 0.068709 0.157543
vt 0.050329 0.069052
vt 0.068709 0.069052
vt 0.103457 0.162693
vt 0.104923 0.166420
vt 0.086422 0.166420
vt 0.088019 0.162748
vt 0.114280 0.136302
vt 0.118006 0.134835
vt 0.118006 0.153337
vt 0.114334 0.151739
vt 0.087889 0.125479
vt 0.086422 0.121753
vt 0.104923 0.121753
vt 0.103326 0.125425
vt 0.073339 0.153337
vt 0.073339 0.134835
vt 0.087419 0.117123
vt 0.073339 0.103043
vt 0.097374 0.093088
vt 0.094773 0.201362
vt 0.082217 0.201362
vt 0.088495 0.186206
vt 0.073339 0.192484
vt 0.073339 0.179928
vt 0.082217 0.171049
vt 0.094773 0.171049
vt 0.103652 0.179928
vt 0.103652 0.192484
vt 0.073339 0.083132
vt 0.087419 0.069052
vt 0.107330 0.069052
vt 0.121410 0.083132
vt 0.121410 0.103043
vt 0.107330 0.117123
vt 0.126040 0.148714
vt 0.126040 0.132081
vt 0.130972 0.132081
vt 0.130972 0.148714
vt 0.140401 0.148714
vt 0.140401 0.132081
vt 0.145333 0.132081
vt 0.145334 0.148714
vt 0.135686 0.148714
vt 0.135686 0.132081
vt 0.135686 0.089230
vt 0.140401 0.089230
vt 0.140401 0.076391
vt 0.140401 0.069052
vt 0.145334 0.069052
vt 0.145334 0.076391
vt 0.135686 0.076391
vt 0.135686 0.069052
vt 0.126040 0.089230
vt 0.130972 0.089230
vt 0.126040 0.076391
vt 0.126040 0.069052
vt 0.130972 0.069052
vt 0.130972 0.076391
vt 0.145334 0.089230
vt 0.169257 0.069052
vt 0.169257 0.085686
vt 0.164325 0.085686
vt 0.164325 0.069052
vt 0.154896 0.069052
vt 0.154896 0.085686
vt 0.149963 0.085686
vt 0.149963 0.069052
vt 0.159610 0.069052
vt 0.159610 0.085686
vt 0.159610 0.128536
vt 0.154896 0.128536
vt 0.154896 0.141376
vt 0.154896 0.148714
vt 0.149963 0.148714
vt 0.149963 0.141375
vt 0.159610 0.141375
vt 0.159610 0.148714
vt 0.169257 0.128536
vt 0.164325 0.128536
vt 0.169257 0.141375
vt 0.169257 0.148714
vt 0.164325 0.148714
vt 0.164325 0.141376
vt 0.149963 0.128536
vn -0.5000 -0.6168 0.6079
vn -0.5000 0.6168 -0.6079
vn 0.5000 0.6168 -0.6079
vn 0.5000 -0.6168 0.6079
vn -1.0000 -0.0000 0.0000
vn 1.0000 0.0000 0.0000
vn 0.0000 0.7065 0.7077
vn -0.0000 0.7875 -0.6163
vn -0.3599 0.6052 -0.7100
vn -0.4176 0.5606 -0.7151
vn 0.0000 0.7875 0.6163
vn -0.4176 0.5606 0.7151
vn -0.3599 0.6052 0.7100
vn -0.0000 -0.7838 0.6210
vn 0.4240 -0.5576 0.7136
vn 0.3723 -0.5986 0.7093
vn -0.0000 -0.7838 -0.6210
vn 0.3723 -0.5986 -0.7093
vn 0.4240 -0.5576 -0.7136
vn -0.7071 0.0000 -0.7071
vn -0.7071 0.0000 0.7071
vn 0.7071 0.0000 0.7071
vn 0.7071 -0.0000 -0.7071
vn -0.5000 -0.5000 -0.7071
vn -0.5000 -0.5000 0.7071
vn 0.5000 0.5000 0.7071
vn 0.5000 0.5000 -0.7071
vn 0.0000 -0.7071 -0.7071
vn -0.0000 -0.7071 0.7071
vn 0.0000 0.7071 0.7071
vn -0.0000 0.7071 -0.7071
vn 0.5000 -0.5000 -0.7071
vn 0.5000 -0.5000 0.7071
vn -0.5000 0.5000 0.7071
vn -0.5000 0.5000 -0.7071
vn 0.3599 0.6052 -0.7100
vn 0.4176 0.5606 -0.7151
vn 0.4176 0.5606 0.7151
vn 0.3599 0.6052 0.7100
vn -0.4240 -0.5576 0.7136
vn -0.3723 -0.5986 0.7093
vn -0.3723 -0.5986 -0.7093
vn -0.4240 -0.5576 -0.7136
vn -0.9999 -0.0051 -0.0144
vn 0.0892 0.9920 -0.0892
vn -0.0000 1.0000 0.0000
vn 0.1261 0.9920 0.0000
vn -0.0892 0.9920 -0.0892
vn 0.0000 0.9920 -0.1261
vn 0.0892 0.9920 0.0892
vn 0.0000 0.9920 0.1261
vn 0.0000 0.0000 1.0000
vn -0.1261 0.9920 0.0000
vn -0.0892 0.9920 0.0892
vn 0.0000 0.0000 -1.0000
vn -0.4798 0.7345 0.4798
vn 0.0000 0.7345 0.6786
vn -0.6786 0.7345 0.0000
vn -0.4798 0.7345 -0.4798
vn 0.0000 0.7345 -0.6786
vn 0.4798 0.7345 -0.4798
vn 0.6786 0.7345 -0.0000
vn 0.4798 0.7345 0.4798
vn 0.0079 -0.0011 -1.0000
vn 0.9999 0.0051 0.0144
vn -0.0079 0.0011 1.0000
vn -0.0065 1.0000 -0.0026
vn 0.6983 0.1573 -0.6983
vn 0.9875 0.1573 -0.0000
vn -0.6983 0.1573 0.6983
vn -0.9875 0.1573 -0.0000
vn 0.6983 0.1573 0.6983
vn 0.0000 0.1573 0.9875
vn 0.0000 0.1573 -0.9875
vn -0.6983 0.1573 -0.6983
vn 0.0044 -1.0000 -0.0044
vn 0.0062 -1.0000 -0.0000
vn -0.0000 -1.0000 -0.0000
vn 0.0116 -0.9999 -0.0116
vn 0.0164 -0.9999 -0.0000
vn 0.0116 -0.9999 0.0116
vn -0.0000 -0.9999 0.0164
vn -0.0116 -0.9999 0.0116
vn -0.0164 -0.9999 -0.0000
vn -0.0116 -0.9999 -0.0116
vn -0.0000 -0.9999 -0.0164
vn 0.0044 -1.0000 0.0044
vn -0.0000 -1.0000 0.0062
vn -0.0044 -1.0000 0.0044
vn -0.0062 -1.0000 -0.0000
vn -0.0044 -1.0000 -0.0044
vn -0.0000 -1.0000 -0.0062
vn -0.6442 0.3386 -0.6858
vn -0.6985 0.1715 -0.6948
vn -0.6946 0.1861 -0.6949
vn -0.6442 0.3386 0.6858
vn -0.6946 0.1861 0.6949
vn -0.6985 0.1715 0.6948
vn 0.6560 -0.3818 0.6510
vn 0.7134 -0.2135 0.6675
vn 0.7182 -0.1949 0.6680
vn 0.6560 -0.3818 -0.6510
vn 0.7182 -0.1949 -0.6680
vn 0.7134 -0.2135 -0.6675
vn 0.7225 0.1454 0.6759
vn 0.7242 0.1379 0.6756
vn -0.4663 -0.4821 0.7418
vn -0.2387 -0.6485 0.7228
vn -0.4674 -0.4810 0.7417
vn 0.4758 0.5193 0.7099
vn 0.2343 0.6912 0.6837
vn 0.4801 0.5155 0.7098
vn -0.7017 -0.1295 -0.7006
vn -0.6998 -0.1371 -0.7011
vn -0.4674 -0.4810 -0.7417
vn -0.2387 -0.6485 -0.7228
vn -0.4663 -0.4821 -0.7418
vn 0.4801 0.5155 -0.7098
vn 0.2343 0.6912 -0.6837
vn 0.4758 0.5193 -0.7099
vn 0.7242 0.1379 -0.6756
vn 0.7225 0.1454 -0.6759
vn -0.7017 -0.1295 0.7006
vn -0.6998 -0.1371 0.7011
vn 0.6442 0.3386 0.6858
vn 0.6985 0.1715 0.6948
vn 0.6946 0.1861 0.6949
vn 0.6442 0.3386 -0.6858
vn 0.6946 0.1861 -0.6949
vn 0.6985 0.1715 -0.6948
vn -0.6560 -0.3818 -0.6510
vn -0.7134 -0.2135 -0.6675
vn -0.7182 -0.1949 -0.6680
vn -0.6560 -0.3818 0.6510
vn -0.7182 -0.1949 0.6680
vn -0.7134 -0.2135 0.6675
vn -0.7225 0.1454 -0.6759
vn -0.7242 0.1379 -0.6756
vn 0.4663 -0.4821 -0.7418
vn 0.2387 -0.6485 -0.7228
vn 0.4674 -0.4810 -0.7417
vn -0.4758 0.5193 -0.7099
vn -0.2343 0.6912 -0.6837
vn -0.4801 0.5155 -0.7098
vn 0.7017 -0.1295 0.7006
vn 0.6998 -0.1371 0.7011
vn 0.4674 -0.4810 0.7417
vn 0.2387 -0.6485 0.7228
vn 0.4663 -0.4821 0.7418
vn -0.4801 0.5155 0.7098
vn -0.2343 0.6912 0.6837
vn -0.4758 0.5193 0.7099
vn -0.7242 0.1379 0.6756
vn -0.7225 0.1454 0.6759
vn 0.7017 -0.1295 -0.7006
vn 0.6998 -0.1371 -0.7011
usemtl polyswamp_atlas01
s off
f 175/46/41 181/47/41 182/48/41 176/49/41
f 173/50/42 179/51/42 180/52/42 174/53/42
f 178/54/43 184/55/43 179/51/43 173/50/43
f 176/49/44 182/48/44 183/56/44 177/57/44
f 174/53/45 180/52/45 181/58/45 175/59/45
f 177/57/46 183/56/46 184/55/46 178/54/46
f 173/60/47 176/61/47 177/57/47 178/54/47
f 174/62/47 175/63/47 176/61/47 173/60/47
s 1
f 41/64/48 45/65/49 48/66/50 44/67/48
f 42/68/51 46/69/52 45/70/53 41/71/51
f 43/72/54 47/73/55 46/69/56 42/68/54
f 44/67/57 48/66/58 47/73/59 43/72/57
f 45/65/49 49/74/60 52/75/60 48/66/50
f 46/69/52 50/76/61 49/77/61 45/70/53
f 47/73/55 51/78/62 50/76/62 46/69/56
f 48/66/58 52/75/63 51/78/63 47/73/59
f 49/74/60 53/79/64 56/80/64 52/75/60
f 50/76/61 54/81/65 53/82/65 49/77/61
f 51/78/62 55/83/66 54/81/66 50/76/62
f 52/75/63 56/80/67 55/83/67 51/78/63
f 53/79/64 57/84/68 60/85/68 56/80/64
f 54/81/65 58/86/69 57/87/69 53/82/65
f 55/83/66 59/88/70 58/86/70 54/81/66
f 56/80/67 60/85/71 59/88/71 55/83/67
f 57/84/68 61/89/72 64/90/72 60/85/68
f 58/86/69 62/91/73 61/92/73 57/87/69
f 59/88/70 63/93/74 62/91/74 58/86/70
f 60/85/71 64/90/75 63/93/75 59/88/71
f 61/89/72 65/94/63 68/95/63 64/90/72
f 62/91/73 66/96/62 65/97/62 61/92/73
f 63/93/74 67/98/61 66/96/61 62/91/74
f 64/90/75 68/95/60 67/98/60 63/93/75
f 65/94/63 69/99/76 72/100/77 68/95/63
f 66/96/62 70/101/78 69/102/79 65/97/62
f 67/98/61 71/103/80 70/101/81 66/96/61
f 68/95/60 72/100/82 71/103/83 67/98/60
f 69/99/76 41/104/48 44/105/48 72/100/77
f 70/101/78 42/106/51 41/107/51 69/102/79
f 71/103/80 43/108/54 42/106/54 70/101/81
f 72/100/82 44/105/57 43/108/57 71/103/83
f 88/109/84 87/110/84 85/111/84 86/112/84
f 101/113/85 89/114/86 103/115/87
f 97/116/88 89/114/86 99/117/89
f 105/118/90 89/114/86 90/119/91
f 73/120/92 91/121/92 92/122/61 74/123/61
f 103/115/87 89/114/86 105/118/90
f 99/117/89 89/114/86 101/113/85
f 95/124/93 89/114/86 97/116/88
f 93/125/94 89/114/86 95/124/93
f 78/126/63 100/127/63 102/128/46 79/129/46
f 76/130/60 96/131/60 98/132/95 77/133/95
f 74/123/61 92/122/61 94/134/45 75/135/45
f 79/136/46 102/137/46 104/138/62 80/139/62
f 77/133/95 98/132/95 100/127/63 78/126/63
f 75/135/45 94/134/45 96/131/60 76/130/60
f 80/139/62 104/138/62 91/121/92 73/120/92
f 93/125/96 92/140/96 91/141/97 90/119/97
f 95/124/98 94/142/98 92/140/96 93/125/96
f 97/116/99 96/143/99 94/142/98 95/124/98
f 99/117/100 98/144/100 96/143/99 97/116/99
f 101/113/101 100/145/101 98/144/100 99/117/100
f 103/115/102 102/146/102 100/145/101 101/113/101
f 105/118/103 104/147/103 102/146/102 103/115/102
f 90/119/97 91/141/97 104/147/103 105/118/103
f 90/119/91 89/114/86 93/125/94
f 86/148/104 85/111/104 81/149/104 82/150/104
f 82/151/105 81/149/105 83/152/105 84/153/105
f 84/154/106 83/152/106 87/110/106 88/155/106
f 81/149/107 85/111/107 87/110/107 83/152/107
f 125/156/108 111/157/108 109/158/109 124/159/109
f 129/160/110 119/161/110 117/162/111 128/163/111
f 123/164/112 107/165/112 120/166/113 130/167/113
f 121/168/86 122/169/86 118/170/86
f 126/171/114 113/172/114 111/157/108 125/156/108
f 127/173/115 115/174/115 113/172/114 126/171/114
f 124/175/109 109/176/109 107/165/112 123/164/112
f 128/163/111 117/162/111 115/174/115 127/173/115
f 114/177/99 115/178/99 117/179/98 116/180/98
f 110/181/101 111/182/101 113/183/100 112/184/100
f 106/185/103 107/186/103 109/187/102 108/188/102
f 116/180/98 117/179/98 119/189/96 118/170/96
f 112/184/100 113/183/100 115/178/99 114/177/99
f 108/188/102 109/187/102 111/182/101 110/181/101
f 121/168/97 120/190/97 107/186/103 106/185/103
f 118/170/86 122/169/86 116/180/86
f 112/184/86 122/169/86 110/181/86
f 108/188/86 122/169/86 106/185/86
f 130/167/113 120/166/113 119/161/110 129/160/110
f 106/185/86 122/169/86 121/168/86
f 114/177/86 122/169/86 112/184/86
f 110/181/86 122/169/86 108/188/86
f 116/180/86 122/169/86 114/177/86
f 118/170/96 119/189/96 120/190/97 121/168/97
f 129/191/116 128/192/117 132/193/118
f 74/194/119 75/195/120 131/196/118
f 75/195/120 76/197/121 131/196/118
f 76/197/121 77/198/122 131/196/118
f 77/198/122 78/199/123 131/196/118
f 78/199/123 79/200/124 131/196/118
f 79/200/124 80/201/125 131/196/118
f 80/201/125 73/202/126 131/196/118
f 73/202/126 74/194/119 131/196/118
f 128/192/117 127/203/127 132/193/118
f 127/203/127 126/204/128 132/193/118
f 126/204/128 125/205/129 132/193/118
f 125/205/129 124/206/130 132/193/118
f 124/206/130 123/207/131 132/193/118
f 123/207/131 130/208/132 132/193/118
f 130/208/132 129/191/116 132/193/118
f 133/209/133 137/210/134 140/211/135 136/212/133
f 134/213/136 138/214/137 137/215/138 133/216/136
f 135/217/139 139/218/140 138/214/141 134/213/139
f 136/212/142 140/211/143 139/218/144 135/217/142
f 139/218/140 150/219/145 147/220/146 138/214/141
f 148/221/147 142/222/148 141/223/148 145/224/149
f 149/225/150 143/226/151 142/222/151 148/221/152
f 137/210/134 146/227/153 151/228/154 140/211/135
f 145/229/155 141/230/156 144/231/156 152/232/157
f 152/232/158 144/231/159 143/226/159 149/225/160
f 140/211/143 151/228/161 150/219/162 139/218/144
f 146/233/163 147/220/164 148/221/147 145/224/149
f 150/219/162 151/228/161 152/232/158 149/225/160
f 147/220/146 150/219/145 149/225/150 148/221/152
f 145/229/155 152/232/157 151/228/154 146/227/153
f 138/214/137 147/220/164 146/233/163 137/215/138
f 153/234/165 157/235/166 160/236/167 156/237/165
f 154/238/168 158/239/169 157/240/170 153/241/168
f 155/242/171 159/243/172 158/239/173 154/238/171
f 156/237/174 160/236/175 159/243/176 155/242/174
f 159/243/172 170/244/177 167/245/178 158/239/173
f 168/246/179 162/247/180 161/248/180 165/249/181
f 169/250/182 163/251/183 162/247/183 168/246/184
f 157/235/166 166/252/185 171/253/186 160/236/167
f 165/254/187 161/255/188 164/256/188 172/257/189
f 172/257/190 164/256/191 163/251/191 169/250/192
f 160/236/175 171/253/193 170/244/194 159/243/176
f 166/258/195 167/245/196 168/246/179 165/249/181
f 170/244/194 171/253/193 172/257/190 169/250/192
f 167/245/178 170/244/177 169/250/182 168/246/184
f 165/254/187 172/257/189 171/253/186 166/252/185
f 158/239/169 167/245/196 166/258/195 157/240/170
