# Blender v2.79 (sub 0) OBJ File: 'polyswamp v1.1.blend'
# www.blender.org
g swamp_sludge_Icosphere
v 0.359245 0.050470 1.183445
v -0.865529 0.050470 1.281707
v -0.894266 0.050470 -0.843994
v 0.271191 0.050404 -1.173771
v 1.034917 0.050470 -0.067607
v -0.039560 0.050470 0.031759
v 1.407484 0.019465 0.410033
v 0.123970 0.042887 2.307812
v -1.396170 0.026477 1.359953
v -0.943789 0.039802 -1.950559
v 0.847375 0.020464 -1.395489
v 0.772485 0.050470 0.621271
v -0.295970 0.050470 1.327294
v -0.983581 0.050440 0.247263
v -0.366839 0.050470 -1.276174
v 0.753596 0.050470 -0.621049
v 0.152160 0.050470 0.576310
v 0.507177 0.050470 0.021109
v -0.464948 0.050470 0.455673
v -0.480137 0.050470 -0.334074
v 0.124218 0.050470 -0.549877
v 1.516604 0.037917 -0.789509
v -0.080452 0.025614 -2.026528
v -1.390361 0.019090 -0.502802
v -0.923937 0.015235 2.672927
v 1.008439 0.032759 1.511663
v 1.698169 0.001886 0.504459
v 0.203686 0.001886 2.892776
v -1.685319 0.001886 1.604565
v -1.126501 0.001886 -2.441443
v 1.048841 0.001886 -1.639261
v 1.910553 0.001886 -1.099643
v -0.082444 0.001886 -2.396366
v -1.661204 0.001886 -0.635553
v -1.057122 0.001886 2.895170
v 1.282118 0.001886 1.861620
v 0.519077 0.001886 -1.865953
v -1.422433 0.001886 -1.627122
v -1.528281 0.001886 2.490005
v 0.667420 0.001886 2.158467
v 1.911113 0.001886 -0.422960
v 1.451544 0.001886 -1.393401
v -0.642566 0.001886 -2.600867
v -1.684244 0.001886 0.486618
v -0.341410 0.001886 3.078282
v 1.566158 0.001886 1.344574
vt 0.656547 0.575385
vt 0.658758 0.562804
vt 0.667202 0.570444
vt 0.670744 0.592836
vt 0.662934 0.585876
vt 0.676606 0.577083
vt 0.699237 0.566320
vt 0.685926 0.581310
vt 0.687249 0.567292
vt 0.688854 0.546725
vt 0.698282 0.553872
vt 0.682458 0.556564
vt 0.664553 0.550615
vt 0.675436 0.547335
vt 0.670057 0.558721
vt 0.676833 0.566091
vt 0.668011 0.535107
vt 0.684498 0.536295
vt 0.704588 0.540588
vt 0.714507 0.552974
vt 0.700999 0.577202
vt 0.676422 0.600848
vt 0.653073 0.611212
vt 0.644645 0.592725
vt 0.643990 0.570947
vt 0.653519 0.551728
vt 0.723314 0.549181
vt 0.716283 0.563401
vt 0.651817 0.615786
vt 0.640338 0.608632
vt 0.667131 0.525969
vt 0.676826 0.528327
vt 0.676844 0.607769
vt 0.663140 0.616895
vt 0.635896 0.571754
vt 0.639144 0.561453
vt 0.709507 0.535935
vt 0.719301 0.540760
vt 0.635896 0.599072
vt 0.639745 0.583644
vt 0.685175 0.530545
vt 0.694878 0.534687
vt 0.706182 0.579106
vt 0.691624 0.593610
vt 0.648591 0.549076
vt 0.658169 0.534524
vn 0.0000 1.0000 0.0000
vn 0.0001 1.0000 -0.0001
vn -0.0000 1.0000 -0.0001
vn -0.0001 1.0000 0.0000
vn 0.0148 0.9999 -0.0075
vn 0.0081 0.9993 -0.0377
vn 0.0388 0.9987 -0.0340
vn 0.0051 0.9995 -0.0312
vn 0.0140 0.9995 -0.0278
vn -0.0076 0.9999 -0.0093
vn -0.0669 0.9977 -0.0054
vn -0.0692 0.9976 -0.0042
vn -0.0444 0.9990 0.0050
vn -0.0020 0.9997 0.0252
vn -0.0206 0.9997 0.0166
vn 0.0016 1.0000 0.0071
vn 0.0199 0.9997 0.0146
vn 0.0509 0.9987 0.0064
vn 0.0558 0.9982 0.0213
vn 0.0351 0.9984 -0.0435
vn -0.0676 0.9977 -0.0066
vn -0.0417 0.9989 0.0235
vn 0.0216 0.9997 0.0113
vn 0.0568 0.9982 0.0205
vn -0.1044 0.9938 -0.0379
vn -0.0133 0.9986 0.0520
vn 0.0409 0.9971 -0.0639
vn -0.0737 0.9972 0.0131
vn 0.0661 0.9972 0.0363
vn 0.0234 0.9977 -0.0641
vn 0.0908 0.9942 0.0573
vn 0.0240 0.9981 -0.0562
vn -0.0628 0.9980 -0.0013
vn 0.0562 0.9983 0.0129
vn -0.0567 0.9983 -0.0137
vn -0.0875 0.9961 -0.0127
vn 0.0227 0.9975 0.0668
vn -0.0099 0.9988 0.0472
vn 0.0309 0.9982 -0.0506
vn 0.0309 0.9975 -0.0628
vn -0.0340 0.9986 0.0396
vn -0.0277 0.9994 0.0185
vn 0.0574 0.9983 0.0090
vn 0.0579 0.9983 0.0089
vn -0.0226 0.9974 -0.0686
vn 0.0118 0.9985 -0.0528
vn 0.0308 0.9975 0.0639
vn 0.1025 0.9896 0.1013
vn 0.0566 0.9963 -0.0642
vn 0.0614 0.9947 -0.0821
vn -0.0848 0.9964 -0.0001
vn -0.0725 0.9974 -0.0042
vn 0.0910 0.9958 -0.0001
vn 0.0708 0.9972 0.0218
s off
f 1/1/1 12/2/1 17/3/1
f 2/4/1 13/5/1 19/6/1
f 3/7/1 14/8/1 20/9/1
f 4/10/2 15/11/2 21/12/2
f 5/13/1 16/14/1 18/15/1
f 18/15/1 21/12/1 6/16/1
f 18/15/1 16/14/1 21/12/1
f 16/14/3 4/10/3 21/12/3
f 21/12/1 20/9/1 6/16/1
f 21/12/1 15/11/1 20/9/1
f 15/11/1 3/7/1 20/9/1
f 20/9/1 19/6/1 6/16/1
f 20/9/4 14/8/4 19/6/4
f 14/8/1 2/4/1 19/6/1
f 19/6/1 17/3/1 6/16/1
f 19/6/1 13/5/1 17/3/1
f 13/5/1 1/1/1 17/3/1
f 17/3/1 18/15/1 6/16/1
f 17/3/1 12/2/1 18/15/1
f 12/2/1 5/13/1 18/15/1
f 22/17/5 16/14/5 5/13/5
f 22/17/6 11/18/6 16/14/6
f 11/18/7 4/10/7 16/14/7
f 23/19/8 15/11/8 4/10/8
f 23/19/9 10/20/9 15/11/9
f 10/20/10 3/7/10 15/11/10
f 24/21/11 14/8/11 3/7/11
f 24/21/12 9/22/12 14/8/12
f 9/22/13 2/4/13 14/8/13
f 25/23/14 13/5/14 2/4/14
f 25/23/15 8/24/15 13/5/15
f 8/24/16 1/1/16 13/5/16
f 26/25/17 12/2/17 1/1/17
f 26/25/18 7/26/18 12/2/18
f 7/26/19 5/13/19 12/2/19
f 11/18/20 23/19/20 4/10/20
f 10/20/21 24/21/21 3/7/21
f 9/22/22 25/23/22 2/4/22
f 8/24/23 26/25/23 1/1/23
f 7/26/24 22/17/24 5/13/24
f 10/20/25 30/27/25 38/28/25
f 25/23/26 35/29/26 45/30/26
f 22/17/27 32/31/27 42/32/27
f 9/22/28 29/33/28 39/34/28
f 26/25/29 36/35/29 46/36/29
f 23/19/30 33/37/30 43/38/30
f 8/24/31 28/39/31 40/40/31
f 11/18/32 31/41/32 37/42/32
f 24/21/33 34/43/33 44/44/33
f 7/26/34 27/45/34 41/46/34
f 34/43/35 24/21/35 38/28/35
f 24/21/36 10/20/36 38/28/36
f 28/39/37 8/24/37 45/30/37
f 8/24/38 25/23/38 45/30/38
f 31/41/39 11/18/39 42/32/39
f 11/18/40 22/17/40 42/32/40
f 35/29/41 25/23/41 39/34/41
f 25/23/42 9/22/42 39/34/42
f 27/45/43 7/26/43 46/36/43
f 7/26/44 26/25/44 46/36/44
f 30/27/45 10/20/45 43/38/45
f 10/20/46 23/19/46 43/38/46
f 36/35/47 26/25/47 40/40/47
f 26/25/48 8/24/48 40/40/48
f 33/37/49 23/19/49 37/42/49
f 23/19/50 11/18/50 37/42/50
f 29/33/51 9/22/51 44/44/51
f 9/22/52 24/21/52 44/44/52
f 32/31/53 22/17/53 41/46/53
f 22/17/54 7/26/54 41/46/54
