# Blender v2.79 (sub 0) OBJ File: 'polyswamp v1.1.blend'
# www.blender.org
g waterweed_Circle.004
v 0.009554 0.035551 -0.003231
v 0.000272 0.035521 -0.008589
v 0.000272 0.035521 -0.019305
v 0.009554 0.035551 -0.024663
v 0.018838 0.035586 -0.019306
v 0.018838 0.035586 -0.008588
v 0.055520 0.354131 -0.028299
v 0.002573 0.004150 -0.013946
v 0.036765 0.084194 -0.014184
v 0.027842 0.084941 -0.008987
v 0.027733 0.084471 -0.029669
v 0.036710 0.083959 -0.024539
v 0.018887 0.085444 -0.014130
v 0.018832 0.085209 -0.024459
v 0.030097 0.263770 -0.014254
v 0.024172 0.188939 -0.013239
v 0.015038 0.188812 -0.007935
v 0.021619 0.263653 -0.009347
v 0.021616 0.263720 -0.028949
v 0.015041 0.188884 -0.029059
v 0.024164 0.188984 -0.023773
v 0.030095 0.263811 -0.024048
v 0.013120 0.263586 -0.014243
v 0.005861 0.188743 -0.013210
v 0.005870 0.188772 -0.023798
v 0.013124 0.263613 -0.024059
v 0.028269 0.136664 -0.118362
v -0.062156 0.136664 -0.066154
v -0.062156 0.136664 0.038260
v 0.028269 0.136664 0.090468
v 0.118695 0.136664 -0.066154
v 0.118695 0.136664 0.038260
v 0.028269 0.084679 -0.013947
v 0.063819 0.209776 -0.082447
v -0.017746 0.209776 -0.086722
v -0.062231 0.209776 -0.018222
v -0.025150 0.209776 0.054553
v 0.100900 0.209776 -0.009672
v 0.056415 0.209776 0.058828
v 0.019334 0.169111 -0.013947
v 0.096605 0.278243 -0.054785
v 0.026741 0.289307 -0.095624
v -0.043123 0.300371 -0.054785
v -0.043123 0.300371 0.026892
v 0.096605 0.278243 0.026892
v 0.026741 0.289307 0.067730
v 0.020381 0.249142 -0.013947
v 0.097937 0.299727 -0.047457
v 0.044634 0.322695 -0.080966
v -0.008669 0.345663 -0.047457
v -0.008669 0.345663 0.019563
v 0.097937 0.299727 0.019563
v 0.044634 0.322695 0.053073
v 0.031430 0.292051 -0.013947
v 0.020098 0.077355 -0.118362
v -0.067221 0.100855 -0.066154
v -0.067221 0.100855 0.038260
v 0.020098 0.077355 0.090468
v 0.107417 0.053855 -0.066154
v 0.107417 0.053855 0.038260
v 0.006588 0.027156 -0.013947
v 0.062356 0.236903 -0.084700
v -0.019237 0.240584 -0.085136
v -0.060159 0.247968 -0.014837
v -0.019489 0.251671 0.055898
v 0.103027 0.240606 -0.013966
v 0.062104 0.247990 0.056333
v 0.019590 0.203789 -0.011221
v 0.062581 0.183264 -0.082447
v -0.018194 0.171933 -0.086722
v -0.062247 0.165753 -0.018222
v -0.025526 0.170905 0.054553
v 0.099302 0.188415 -0.009672
v 0.055248 0.182236 0.058828
v 0.024176 0.136814 -0.013947
v 0.103172 0.338941 -0.041199
v 0.059822 0.357620 -0.068452
v 0.016473 0.376299 -0.041199
v 0.016473 0.376299 0.013306
v 0.103172 0.338941 0.013306
v 0.059822 0.357620 0.040558
v 0.049084 0.332699 -0.013947
vt 0.049119 0.704491
vt 0.042705 0.703759
vt 0.042641 0.684788
vt 0.047649 0.684648
vt 0.036774 0.705679
vt 0.030709 0.709190
vt 0.032138 0.684626
vt 0.037503 0.684707
vt 0.019874 0.715862
vt 0.026607 0.684325
vt 0.055475 0.707616
vt 0.052837 0.684497
vt 0.065760 0.714987
vt 0.058269 0.684048
vt 0.025724 0.629708
vt 0.031155 0.629715
vt 0.043118 0.723145
vt 0.036526 0.629718
vt 0.042016 0.629720
vt 0.047599 0.629680
vt 0.036831 0.591449
vt 0.031995 0.592204
vt 0.041311 0.542464
vt 0.056515 0.591491
vt 0.051531 0.591418
vt 0.053093 0.629591
vt 0.026969 0.591813
vt 0.041701 0.590646
vt 0.046685 0.590732
vt 0.058576 0.629432
vt 0.065442 0.671961
vt 0.065442 0.592416
vt 0.134330 0.632188
vt 0.065442 0.671961
vt 0.065442 0.592416
vt 0.134330 0.632188
vt 0.134330 0.552643
vt 0.203218 0.592416
vt 0.203218 0.671961
vt 0.134330 0.711734
vt 0.134330 0.552643
vt 0.203218 0.592416
vt 0.203218 0.671961
vt 0.134330 0.711734
vt 0.065442 0.671961
vt 0.065442 0.592416
vt 0.134330 0.632188
vt 0.134330 0.552643
vt 0.203218 0.592416
vt 0.203218 0.671961
vt 0.134330 0.711734
vt 0.065442 0.671961
vt 0.065442 0.592416
vt 0.134330 0.632188
vt 0.134330 0.552643
vt 0.203218 0.592416
vt 0.203218 0.671961
vt 0.134330 0.711734
vt 0.065442 0.671961
vt 0.065442 0.592416
vt 0.134330 0.632188
vt 0.134330 0.552643
vt 0.203218 0.592416
vt 0.203218 0.671961
vt 0.134330 0.711734
vt 0.065442 0.671961
vt 0.065442 0.592416
vt 0.134330 0.632188
vt 0.134330 0.552643
vt 0.203218 0.592416
vt 0.203218 0.671961
vt 0.134330 0.711734
vt 0.065442 0.671961
vt 0.065442 0.592416
vt 0.134330 0.632188
vt 0.134330 0.552643
vt 0.203218 0.592416
vt 0.203218 0.671961
vt 0.134330 0.711734
vt 0.065442 0.671961
vt 0.065442 0.592416
vt 0.134330 0.632188
vt 0.134330 0.552643
vt 0.203218 0.592416
vt 0.203218 0.671961
vt 0.134330 0.711734
vn 0.7923 -0.3398 0.5067
vn 0.7881 -0.4024 -0.4658
vn 0.8679 -0.1216 -0.4815
vn 0.8863 -0.0823 0.4556
vn -0.0381 -0.1898 -0.9811
vn -0.8733 0.0618 -0.4832
vn -0.8337 0.0723 -0.5475
vn 0.0688 -0.0587 -0.9959
vn -0.8579 0.0981 0.5044
vn -0.8444 0.1289 0.5199
vn -0.0258 -0.0875 0.9958
vn 0.0814 0.0380 0.9959
vn -0.8722 -0.0113 0.4889
vn -0.8755 -0.0115 -0.4831
vn -0.1991 -0.9799 0.0000
vn -0.0334 0.0026 -0.9994
vn 0.8579 0.0181 -0.5134
vn 0.8574 0.0190 0.5142
vn -0.0410 0.0244 -0.9988
vn -0.8551 0.2191 -0.4698
vn 0.3469 0.9332 -0.0936
vn -0.8394 0.2535 0.4808
vn -0.0323 0.1249 0.9916
vn -0.0312 0.0034 0.9995
vn 0.8474 -0.1690 -0.5033
vn 0.8421 -0.1022 0.5295
vn -0.4451 0.8952 -0.0233
vn -0.2427 0.8952 0.3738
vn 0.0000 1.0000 0.0000
vn -0.3860 0.8952 0.2228
vn 0.0000 0.8952 0.4457
vn 0.3860 0.8952 0.2228
vn 0.3860 0.8952 -0.2228
vn 0.0000 0.8952 -0.4457
vn -0.3860 0.8952 -0.2228
vn 0.2023 0.8952 0.3971
vn 0.4451 0.8952 0.0233
vn 0.2427 0.8952 -0.3738
vn -0.2023 0.8952 -0.3971
vn -0.2412 0.9445 -0.2228
vn -0.2412 0.9445 0.2228
vn 0.1564 0.9877 0.0000
vn 0.1400 0.8842 0.4457
vn 0.5212 0.8238 0.2228
vn 0.5212 0.8238 -0.2228
vn 0.1400 0.8842 -0.4457
vn -0.0002 0.9749 -0.2228
vn -0.0002 0.9749 0.2228
vn 0.3957 0.9184 0.0000
vn 0.3542 0.8221 0.4457
vn 0.7087 0.6694 0.2228
vn 0.7087 0.6694 -0.2228
vn 0.3542 0.8221 -0.4457
vn -0.1400 0.9647 0.2228
vn 0.2326 0.8644 0.4457
vn 0.2599 0.9656 0.0000
vn 0.6053 0.7641 0.2228
vn 0.6053 0.7641 -0.2228
vn 0.2326 0.8644 -0.4457
vn -0.1400 0.9647 -0.2228
vn -0.4046 0.9116 -0.0724
vn -0.1827 0.9318 0.3136
vn 0.0453 0.9959 -0.0782
vn 0.2625 0.9117 0.3160
vn 0.4858 0.8714 -0.0676
vn 0.2639 0.8512 -0.4536
vn -0.1813 0.8713 -0.4560
vn -0.5651 0.8247 -0.0233
vn -0.3647 0.8528 0.3738
vn -0.1389 0.9903 0.0000
vn 0.0760 0.9146 0.3971
vn 0.3164 0.9483 0.0233
vn 0.1160 0.9202 -0.3738
vn -0.3247 0.8584 -0.3971
s 1
f 6/1/1 5/2/2 12/3/3 9/4/4
f 4/5/5 3/6/6 14/7/7 11/8/8
f 3/6/6 2/9/9 13/10/10 14/7/7
f 1/11/11 6/1/1 9/4/4 10/12/12
f 5/2/2 4/5/5 11/8/8 12/3/3
f 2/13/9 1/11/11 10/12/12 13/14/10
f 24/15/13 25/16/14 14/7/7 13/10/10
f 2/9/9 3/6/6 8/17/15
f 3/6/6 4/5/5 8/17/15
f 4/5/5 5/2/2 8/17/15
f 5/2/2 6/1/1 8/17/15
f 6/1/1 1/11/11 8/17/15
f 1/11/11 2/13/9 8/17/15
f 25/16/14 20/18/16 11/8/8 14/7/7
f 21/19/17 16/20/18 9/4/4 12/3/3
f 19/21/19 26/22/20 7/23/21
f 23/24/22 18/25/23 7/23/21
f 20/18/16 21/19/17 12/3/3 11/8/8
f 16/20/18 17/26/24 10/12/12 9/4/4
f 26/22/20 23/27/22 7/23/21
f 22/28/25 19/21/19 7/23/21
f 18/25/23 15/29/26 7/23/21
f 17/26/24 24/30/13 13/14/10 10/12/12
f 18/25/23 23/24/22 24/30/13 17/26/24
f 26/22/20 19/21/19 20/18/16 25/16/14
f 22/28/25 15/29/26 16/20/18 21/19/17
f 23/27/22 26/22/20 25/16/14 24/15/13
f 19/21/19 22/28/25 21/19/17 20/18/16
f 15/29/26 18/25/23 17/26/24 16/20/18
f 15/29/26 22/28/25 7/23/21
f 38/31/27 34/32/28 40/33/29
f 31/34/30 27/35/31 33/36/29
f 27/35/31 28/37/32 33/36/29
f 28/37/32 29/38/33 33/36/29
f 29/38/33 30/39/34 33/36/29
f 30/39/34 32/40/35 33/36/29
f 32/40/35 31/34/30 33/36/29
f 34/32/28 35/41/36 40/33/29
f 35/41/36 36/42/37 40/33/29
f 36/42/37 37/43/38 40/33/29
f 37/43/38 39/44/39 40/33/29
f 39/44/39 38/31/27 40/33/29
f 45/45/40 41/46/41 47/47/42
f 41/46/41 42/48/43 47/47/42
f 42/48/43 43/49/44 47/47/42
f 43/49/44 44/50/45 47/47/42
f 44/50/45 46/51/46 47/47/42
f 46/51/46 45/45/40 47/47/42
f 52/52/47 48/53/48 54/54/49
f 48/53/48 49/55/50 54/54/49
f 49/55/50 50/56/51 54/54/49
f 50/56/51 51/57/52 54/54/49
f 51/57/52 53/58/53 54/54/49
f 53/58/53 52/52/47 54/54/49
f 59/59/54 55/60/55 61/61/56
f 55/60/55 56/62/57 61/61/56
f 56/62/57 57/63/58 61/61/56
f 57/63/58 58/64/59 61/61/56
f 58/64/59 60/65/60 61/61/56
f 60/65/60 59/59/54 61/61/56
f 66/66/61 62/67/62 68/68/63
f 62/67/62 63/69/64 68/68/63
f 63/69/64 64/70/65 68/68/63
f 64/70/65 65/71/66 68/68/63
f 65/71/66 67/72/67 68/68/63
f 67/72/67 66/66/61 68/68/63
f 73/73/68 69/74/69 75/75/70
f 69/74/69 70/76/71 75/75/70
f 70/76/71 71/77/72 75/75/70
f 71/77/72 72/78/73 75/75/70
f 72/78/73 74/79/74 75/75/70
f 74/79/74 73/73/68 75/75/70
f 80/80/47 76/81/48 82/82/49
f 76/81/48 77/83/50 82/82/49
f 77/83/50 78/84/51 82/82/49
f 78/84/51 79/85/52 82/82/49
f 79/85/52 81/86/53 82/82/49
f 81/86/53 80/80/47 82/82/49
