# Blender v2.79 (sub 0) OBJ File: 'polyswamp v1.1.blend'
# www.blender.org
g waterlettuce_Circle.001
v -0.025895 0.004199 -0.015907
v 0.053866 0.005756 -0.055607
v 0.095425 0.018429 -0.077165
v 0.144170 0.040265 -0.080179
v 0.171566 0.054268 -0.064077
v 0.193479 0.058554 -0.006436
v 0.171566 0.054268 0.063691
v 0.144170 0.040265 0.080179
v 0.095425 0.018429 0.077165
v 0.053866 0.005756 0.055147
v 0.145030 0.036680 0.064066
v 0.147138 0.040271 -0.000230
v 0.145030 0.036680 -0.064296
v 0.095670 0.014571 0.061518
v 0.097034 0.018008 -0.000230
v 0.095670 0.014571 -0.061747
v 0.043379 0.009855 -0.002216
v 0.006149 -0.000513 0.021909
v 0.021437 0.006319 0.041693
v 0.048245 0.015105 0.071747
v 0.062060 0.028348 0.107517
v 0.046007 0.039386 0.137253
v 0.007379 0.039505 0.141177
v -0.026608 0.039474 0.160893
v -0.056535 0.028522 0.146114
v -0.066080 0.015341 0.108150
v -0.062059 0.006478 0.067774
v -0.055834 -0.000385 0.041645
v -0.033317 0.028320 0.139154
v 0.003260 0.028614 0.126715
v 0.039630 0.028181 0.115830
v -0.044354 0.014235 0.100885
v -0.008819 0.015019 0.088868
v 0.026633 0.014089 0.078282
v -0.019999 0.012098 0.048970
v -0.051449 -0.000586 0.024967
v -0.075282 0.007677 0.048898
v -0.097295 0.012265 0.074864
v -0.127645 0.024072 0.094963
v -0.160332 0.035721 0.087295
v -0.167917 0.039410 0.051836
v -0.192750 0.043233 0.026498
v -0.181298 0.036506 -0.005659
v -0.148931 0.024231 -0.021976
v -0.114675 0.014357 -0.026343
v -0.087936 0.004902 -0.026408
v -0.170523 0.033694 0.013477
v -0.155726 0.030091 0.044868
v -0.137662 0.026079 0.075106
v -0.137657 0.021296 -0.004329
v -0.123499 0.017843 0.026171
v -0.105658 0.013881 0.055682
v -0.088693 0.015270 0.008924
v -0.072758 0.003563 -0.027879
v -0.113915 0.003917 -0.032890
v -0.161365 0.012011 -0.040348
v -0.204185 0.031307 -0.065962
v -0.218374 0.046414 -0.094215
v -0.209554 0.054253 -0.123783
v -0.182389 0.057338 -0.149488
v -0.169803 0.063217 -0.175715
v -0.141434 0.063765 -0.194733
v -0.107620 0.053084 -0.192119
v -0.068429 0.032969 -0.161763
v -0.047221 0.018957 -0.120022
v -0.034668 0.012152 -0.077641
v -0.117501 0.056766 -0.180238
v -0.134182 0.039673 -0.155003
v -0.157119 0.042043 -0.131409
v -0.175173 0.030429 -0.101451
v -0.194799 0.039335 -0.079253
v -0.077514 0.036468 -0.149895
v -0.091096 0.019331 -0.125915
v -0.114992 0.021968 -0.102629
v -0.132049 0.010095 -0.072411
v -0.151742 0.019729 -0.052920
v -0.054262 0.012211 -0.097241
v -0.072774 0.014880 -0.069006
v -0.093597 0.003340 -0.045853
v -0.028762 0.009008 -0.065331
v -0.035863 0.014051 -0.101453
v -0.051141 0.023921 -0.155544
v -0.038385 0.048308 -0.205200
v -0.013754 0.065311 -0.220952
v 0.019351 0.074345 -0.223301
v 0.048447 0.074640 -0.200229
v 0.089325 0.080368 -0.197550
v 0.113449 0.076258 -0.174140
v 0.124665 0.062341 -0.145196
v 0.105925 0.037438 -0.097742
v 0.064462 0.022685 -0.064533
v 0.032086 0.014245 -0.042939
v 0.106040 0.056431 -0.149961
v 0.082331 0.051905 -0.167299
v 0.044315 0.055463 -0.176744
v 0.009331 0.045622 -0.194164
v -0.020959 0.045501 -0.196698
v 0.087567 0.031230 -0.101599
v 0.065812 0.024874 -0.116128
v 0.027945 0.030098 -0.126329
v -0.007221 0.018588 -0.143005
v -0.034454 0.020728 -0.146505
v 0.045572 0.016506 -0.068299
v 0.009413 0.021118 -0.074013
v -0.017929 0.011041 -0.091668
v -0.054556 0.010245 -0.026123
v -0.070951 0.018914 -0.044432
v -0.108825 0.038895 -0.062277
v -0.125436 0.065367 -0.091050
v -0.110242 0.085294 -0.118277
v -0.075929 0.088438 -0.137742
v -0.038152 0.088869 -0.150048
v -0.006210 0.071279 -0.143594
v 0.006025 0.044589 -0.112893
v -0.004692 0.022199 -0.073633
v -0.005336 0.012686 -0.047814
v -0.030158 0.066498 -0.135704
v -0.065983 0.068722 -0.118714
v -0.103279 0.062872 -0.103479
v -0.016176 0.038583 -0.104637
v -0.050997 0.041285 -0.087796
v -0.087490 0.035047 -0.073209
v -0.035770 0.023071 -0.051286
v -0.011026 0.022743 -0.031798
v 0.022482 0.042008 -0.060051
v 0.044137 0.059838 -0.065393
v 0.062751 0.076059 -0.043301
v 0.064903 0.075492 -0.024691
v 0.067659 0.077866 -0.006043
v 0.055572 0.064048 0.021426
v 0.033498 0.046063 0.023581
v -0.006305 0.024481 0.004043
v 0.056154 0.060361 -0.002876
v 0.050782 0.062214 -0.021825
v 0.051034 0.058476 -0.041746
v 0.033247 0.040972 0.001075
v 0.028051 0.043729 -0.017935
v 0.028125 0.039087 -0.037813
v -0.024086 0.003813 -0.022227
v -0.029560 0.003830 -0.019067
v -0.029560 0.003830 -0.012746
v -0.024086 0.003813 -0.009586
v -0.018610 0.003792 -0.012746
v -0.018610 0.003792 -0.019068
v -0.012174 -0.078740 -0.012188
v -0.025895 0.011949 -0.015907
v -0.017034 -0.008793 -0.015846
v -0.019347 -0.008986 -0.017192
v -0.019375 -0.008864 -0.011833
v -0.017049 -0.008732 -0.013162
v -0.021667 -0.009116 -0.015859
v -0.021681 -0.009056 -0.013183
v -0.018762 -0.055325 -0.015827
v -0.020298 -0.035935 -0.016090
v -0.022664 -0.035902 -0.017465
v -0.020959 -0.055295 -0.017099
v -0.020960 -0.055312 -0.012019
v -0.022664 -0.035920 -0.011991
v -0.020300 -0.035946 -0.013361
v -0.018763 -0.055336 -0.013289
v -0.023161 -0.055278 -0.015830
v -0.025043 -0.035884 -0.016098
v -0.025040 -0.035891 -0.013354
v -0.023160 -0.055285 -0.013286
v -0.019875 -0.028529 0.037235
v -0.065767 -0.028529 0.010739
v -0.065767 -0.028529 -0.042252
v -0.019875 -0.028529 -0.068747
v 0.026016 -0.028529 0.010739
v 0.026016 -0.028529 -0.042252
v -0.019875 -0.002146 -0.015756
v 0.000386 -0.046771 0.019008
v -0.041009 -0.046771 0.021177
v -0.063585 -0.046771 -0.013587
v -0.044767 -0.046771 -0.050520
v 0.019204 -0.046771 -0.017926
v -0.003372 -0.046771 -0.052690
v -0.022190 -0.026133 -0.015756
v 0.015580 -0.061733 0.004970
v -0.019876 -0.067348 0.025695
v -0.055332 -0.072963 0.004970
v -0.055332 -0.072963 -0.036482
v 0.015580 -0.061733 -0.036482
v -0.019876 -0.067348 -0.057208
v -0.023104 -0.046965 -0.015756
v 0.022265 -0.070123 0.004970
v -0.010703 -0.084328 0.025695
v -0.043671 -0.098534 0.004970
v -0.043671 -0.098534 -0.036482
v 0.022265 -0.070123 -0.036482
v -0.010703 -0.084328 -0.057208
v -0.018870 -0.065375 -0.015756
v -0.066507 0.011359 0.000151
v -0.021841 0.009630 0.028698
vt 0.024537 0.667252
vt 0.047766 0.663116
vt 0.053141 0.635029
vt 0.021590 0.718440
vt 0.049777 0.727072
vt 0.047189 0.707121
vt 0.021518 0.705760
vt 0.015963 0.684789
vt 0.022394 0.684340
vt 0.079240 0.705827
vt 0.072752 0.705497
vt 0.072873 0.718176
vt 0.047075 0.685024
vt 0.071658 0.684088
vt 0.014944 0.706157
vt 0.078004 0.684472
vt 0.069436 0.667023
vt 0.163440 0.605110
vt 0.178436 0.602630
vt 0.177321 0.595294
vt 0.161823 0.595253
vt 0.198354 0.641214
vt 0.183504 0.644111
vt 0.182917 0.662185
vt 0.205134 0.614479
vt 0.196178 0.616387
vt 0.201685 0.630673
vt 0.154109 0.607165
vt 0.166745 0.621643
vt 0.181401 0.619243
vt 0.191970 0.589698
vt 0.193625 0.599686
vt 0.203181 0.598120
vt 0.157809 0.622919
vt 0.166725 0.636729
vt 0.183767 0.635846
vt 0.171410 0.645938
vt 0.051549 0.613516
vt 0.037442 0.615056
vt 0.037639 0.621782
vt 0.051939 0.624512
vt 0.023024 0.576675
vt 0.036675 0.574038
vt 0.037891 0.556367
vt 0.014500 0.600847
vt 0.022862 0.599541
vt 0.018769 0.587160
vt 0.060482 0.613157
vt 0.050246 0.597786
vt 0.036427 0.599389
vt 0.024126 0.626321
vt 0.023473 0.615340
vt 0.014643 0.616140
vt 0.058633 0.597979
vt 0.053121 0.585429
vt 0.036011 0.583740
vt 0.049092 0.572154
vt 0.088057 0.621316
vt 0.102488 0.618844
vt 0.103009 0.604933
vt 0.088083 0.602385
vt 0.115078 0.662106
vt 0.101461 0.662815
vt 0.095158 0.691426
vt 0.113600 0.673248
vt 0.124508 0.658672
vt 0.134055 0.641272
vt 0.127926 0.640380
vt 0.076159 0.618615
vt 0.076056 0.607089
vt 0.068926 0.619354
vt 0.076819 0.640114
vt 0.087998 0.643321
vt 0.102373 0.640894
vt 0.114732 0.602522
vt 0.115326 0.621463
vt 0.127731 0.607360
vt 0.128769 0.618852
vt 0.135083 0.619689
vt 0.069772 0.640946
vt 0.079025 0.658406
vt 0.088117 0.661950
vt 0.115426 0.643471
vt 0.087421 0.673089
vt 0.167871 0.708055
vt 0.151537 0.708481
vt 0.152835 0.721127
vt 0.167749 0.725089
vt 0.136490 0.664425
vt 0.150828 0.661892
vt 0.156097 0.634442
vt 0.138006 0.653046
vt 0.128504 0.665873
vt 0.117326 0.684905
vt 0.125073 0.683287
vt 0.179761 0.705413
vt 0.180391 0.718530
vt 0.187609 0.706687
vt 0.177841 0.682460
vt 0.167251 0.684480
vt 0.151161 0.684490
vt 0.136213 0.725618
vt 0.135584 0.708572
vt 0.123593 0.719453
vt 0.123880 0.706310
vt 0.115855 0.707831
vt 0.185418 0.683834
vt 0.172289 0.665185
vt 0.164103 0.663998
vt 0.135477 0.684984
vt 0.164263 0.652623
vt 0.061578 0.548975
vt 0.077785 0.548215
vt 0.077624 0.536507
vt 0.061827 0.537943
vt 0.092258 0.581204
vt 0.076973 0.583572
vt 0.074459 0.600060
vt 0.087517 0.591284
vt 0.102983 0.565837
vt 0.093210 0.566480
vt 0.051429 0.548509
vt 0.061785 0.566333
vt 0.077702 0.565988
vt 0.093473 0.538089
vt 0.093585 0.549123
vt 0.103793 0.548749
vt 0.052083 0.565600
vt 0.062621 0.581064
vt 0.065586 0.591183
vt 0.133217 0.588637
vt 0.125089 0.588003
vt 0.124734 0.596008
vt 0.132379 0.597119
vt 0.143073 0.589008
vt 0.116947 0.595990
vt 0.117146 0.587470
vt 0.107383 0.586587
vt 0.118012 0.575646
vt 0.108743 0.575000
vt 0.134007 0.576755
vt 0.125914 0.576030
vt 0.143275 0.577380
vt 0.120229 0.558712
vt 0.130405 0.549486
vt 0.135277 0.559753
vt 0.159283 0.581008
vt 0.159152 0.576691
vt 0.158064 0.576674
vt 0.157900 0.580789
vt 0.156595 0.581149
vt 0.156951 0.576608
vt 0.155788 0.576540
vt 0.155247 0.581854
vt 0.154592 0.576423
vt 0.152834 0.583198
vt 0.160632 0.581745
vt 0.160278 0.576707
vt 0.162793 0.583441
vt 0.161460 0.576661
vt 0.154914 0.564570
vt 0.156092 0.564623
vt 0.157806 0.584997
vt 0.157257 0.564674
vt 0.158448 0.564726
vt 0.159659 0.564770
vt 0.157684 0.556378
vt 0.159117 0.545797
vt 0.156628 0.556496
vt 0.161952 0.556573
vt 0.160872 0.556510
vt 0.160851 0.564803
vt 0.155542 0.556364
vt 0.158747 0.556250
vt 0.159827 0.556315
vt 0.162042 0.564820
vt 0.206142 0.545852
vt 0.187263 0.556752
vt 0.206142 0.567651
vt 0.187263 0.578551
vt 0.168384 0.567651
vt 0.187263 0.556752
vt 0.168384 0.545852
vt 0.187263 0.534952
vt 0.206142 0.545852
vt 0.206142 0.567651
vt 0.187263 0.578551
vt 0.168384 0.567651
vt 0.168384 0.545852
vt 0.187263 0.534952
vt 0.206142 0.567651
vt 0.187263 0.556752
vt 0.187263 0.578551
vt 0.168384 0.567651
vt 0.168384 0.545852
vt 0.187263 0.534952
vt 0.206142 0.545852
vt 0.206142 0.567651
vt 0.187263 0.556752
vt 0.187263 0.578551
vt 0.168384 0.567651
vt 0.168384 0.545852
vt 0.187263 0.534952
vt 0.206142 0.545852
vn -0.1610 0.9860 0.0429
vn -0.1263 0.9920 0.0040
vn -0.0590 0.9912 0.1182
vn -0.4659 0.8824 -0.0652
vn -0.4415 0.8972 0.0030
vn -0.4256 0.9049 -0.0006
vn -0.4476 0.8878 -0.1073
vn -0.3047 0.9241 -0.2304
vn -0.2870 0.9534 -0.0926
vn -0.4566 0.8617 0.2212
vn -0.4462 0.8882 0.1091
vn -0.4620 0.8844 0.0663
vn -0.2990 0.9542 0.0002
vn -0.2864 0.9535 0.0934
vn -0.4570 0.8623 -0.2181
vn -0.3043 0.9235 0.2337
vn -0.1440 0.9884 -0.0482
vn -0.1163 0.9138 -0.3892
vn -0.1258 0.9080 -0.3996
vn -0.1547 0.8624 -0.4820
vn -0.1168 0.8726 -0.4743
vn -0.2903 0.9396 -0.1810
vn -0.0390 0.9810 -0.1897
vn -0.0526 0.9594 -0.2771
vn -0.0868 0.9687 -0.2325
vn -0.1549 0.9751 -0.1588
vn -0.1397 0.9286 -0.3437
vn -0.0609 0.9684 -0.2419
vn -0.0674 0.9734 -0.2191
vn -0.1803 0.8756 -0.4481
vn -0.1320 0.9156 -0.3798
vn -0.0893 0.9304 -0.3554
vn -0.1185 0.9584 -0.2596
vn 0.0623 0.9763 -0.2071
vn -0.0637 0.9792 -0.1927
vn 0.2146 0.9481 -0.2344
vn 0.3593 0.9305 -0.0710
vn 0.3771 0.9221 -0.0868
vn 0.4236 0.8983 -0.1168
vn 0.4153 0.9066 -0.0744
vn 0.1691 0.9467 -0.2742
vn 0.2237 0.9737 -0.0423
vn 0.3086 0.9505 -0.0369
vn 0.2604 0.9647 -0.0399
vn 0.1879 0.9757 -0.1125
vn 0.3336 0.9400 -0.0714
vn 0.2485 0.9686 -0.0051
vn 0.2416 0.9702 -0.0191
vn 0.3870 0.9130 -0.1288
vn 0.3552 0.9313 -0.0806
vn 0.3416 0.9381 -0.0565
vn 0.2742 0.9608 -0.0405
vn 0.2360 0.9679 0.0864
vn 0.2186 0.9752 -0.0351
vn 0.3142 0.9301 0.1898
vn 0.3031 0.9165 0.2611
vn 0.2717 0.8947 0.3544
vn 0.3134 0.8710 0.3783
vn 0.3150 0.8915 0.3256
vn -0.0198 0.9835 0.1798
vn 0.0098 0.9849 0.1729
vn 0.0351 0.9949 0.0941
vn -0.0310 0.9308 0.3641
vn 0.4288 0.9009 0.0664
vn 0.2239 0.9269 0.3010
vn 0.2030 0.9236 0.3251
vn 0.2815 0.9242 0.2579
vn 0.0129 0.8503 0.5261
vn 0.2164 0.9293 0.2990
vn 0.1758 0.9627 0.2054
vn 0.1399 0.9550 0.2615
vn 0.2644 0.8769 0.4015
vn 0.1981 0.8930 0.4041
vn 0.1817 0.8968 0.4033
vn 0.2340 0.9343 0.2689
vn 0.3785 0.9253 0.0235
vn 0.0517 0.8344 0.5487
vn 0.1906 0.9784 0.0798
vn -0.0031 0.9876 0.1568
vn 0.0978 0.9458 0.3097
vn -0.1040 0.9716 0.2126
vn -0.2547 0.8244 0.5054
vn -0.2513 0.8285 0.5004
vn -0.2984 0.7467 0.5944
vn -0.3012 0.7455 0.5944
vn -0.1344 0.9869 0.0893
vn -0.1345 0.9808 0.1408
vn -0.0560 0.9833 0.1730
vn -0.3071 0.9517 0.0044
vn -0.3532 0.9078 0.2262
vn -0.3537 0.9230 0.1516
vn -0.0824 0.8480 0.5235
vn -0.1228 0.7613 0.6366
vn -0.1102 0.8532 0.5098
vn 0.0347 0.9586 0.2825
vn -0.1772 0.9489 0.2611
vn -0.1782 0.9485 0.2616
vn -0.2719 0.7527 0.5995
vn -0.2607 0.8255 0.5005
vn -0.4340 0.7348 0.5212
vn -0.4033 0.8204 0.4052
vn -0.3706 0.8317 0.4133
vn -0.0114 0.9370 0.3492
vn 0.0801 0.9863 0.1438
vn -0.1332 0.9867 0.0929
vn -0.1766 0.9483 0.2636
vn -0.2231 0.9724 0.0676
vn 0.3072 0.7098 0.6339
vn 0.2495 0.7218 0.6455
vn 0.2726 0.6666 0.6938
vn 0.3167 0.6435 0.6968
vn 0.2100 0.8985 0.3855
vn 0.1391 0.8993 0.4147
vn 0.2611 0.8901 0.3735
vn 0.0128 0.8035 0.5951
vn 0.1414 0.8442 0.5169
vn 0.4089 0.7124 0.5703
vn 0.2162 0.8487 0.4826
vn 0.1834 0.8426 0.5063
vn 0.2474 0.6402 0.7272
vn 0.2029 0.7049 0.6796
vn 0.0873 0.6968 0.7119
vn 0.3641 0.8209 0.4400
vn 0.0570 0.8960 0.4403
vn 0.0023 0.8902 0.4555
vn -0.7176 0.6914 0.0836
vn -0.6986 0.7131 0.0594
vn -0.7591 0.6475 0.0678
vn -0.7840 0.6150 0.0840
vn -0.6609 0.7093 0.2452
vn -0.7861 0.6148 0.0632
vn -0.7230 0.6897 0.0403
vn -0.7107 0.6908 -0.1330
vn -0.5465 0.8366 -0.0375
vn -0.5504 0.8178 -0.1682
vn -0.5353 0.8384 0.1023
vn -0.5735 0.8183 0.0379
vn -0.5005 0.8357 0.2261
vn -0.4952 0.8649 -0.0813
vn -0.4783 0.8674 0.1372
vn -0.7984 -0.3193 0.5104
vn -0.8926 0.0484 0.4481
vn -0.8759 0.0051 -0.4823
vn -0.7952 -0.3799 -0.4725
vn 0.0391 -0.2015 -0.9787
vn -0.0798 0.0765 -0.9939
vn 0.8165 0.2034 -0.5404
vn 0.8743 -0.0089 -0.4853
vn 0.8240 0.2522 0.5073
vn 0.8635 0.0203 0.5040
vn 0.0267 -0.1156 0.9929
vn -0.0874 0.1741 0.9808
vn 0.8722 -0.0113 0.4889
vn 0.8755 -0.0115 -0.4831
vn 0.1470 -0.9891 0.0000
vn 0.0334 0.0026 -0.9994
vn -0.8579 0.0181 -0.5134
vn -0.8574 0.0190 0.5142
vn 0.0410 0.0244 -0.9988
vn -0.3469 0.9332 -0.0935
vn 0.8551 0.2191 -0.4698
vn 0.8394 0.2535 0.4808
vn 0.0323 0.1249 0.9916
vn 0.0312 0.0034 0.9995
vn -0.8474 -0.1690 -0.5033
vn -0.8421 -0.1022 0.5295
vn 0.4451 0.8952 -0.0233
vn 0.0000 1.0000 0.0000
vn 0.2427 0.8952 0.3738
vn -0.3860 -0.8952 -0.2228
vn 0.0000 -0.8952 -0.4457
vn 0.0000 -1.0000 0.0000
vn 0.3860 -0.8952 -0.2228
vn 0.3860 -0.8952 0.2228
vn 0.0000 -0.8952 0.4457
vn -0.3860 -0.8952 0.2228
vn -0.2023 0.8952 0.3971
vn -0.4451 0.8952 0.0233
vn -0.2427 0.8952 -0.3738
vn 0.2023 0.8952 -0.3971
vn 0.2412 0.9445 -0.2228
vn -0.1564 0.9877 0.0000
vn 0.2412 0.9445 0.2228
vn -0.1400 0.8842 0.4457
vn -0.5212 0.8238 0.2228
vn -0.5212 0.8238 -0.2228
vn -0.1400 0.8842 -0.4457
vn 0.0002 0.9749 -0.2228
vn -0.3957 0.9184 0.0000
vn 0.0002 0.9749 0.2228
vn -0.3542 0.8221 0.4457
vn -0.7087 0.6694 0.2228
vn -0.7087 0.6694 -0.2228
vn -0.3542 0.8221 -0.4457
s 1
f 10/1/1 17/2/2 1/3/3
f 7/4/4 6/5/5 12/6/6 11/7/7
f 9/8/8 14/9/9 10/1/1
f 4/10/10 13/11/11 5/12/12
f 11/7/7 12/6/6 15/13/13 14/9/9
f 13/11/11 16/14/14 15/13/13 12/6/6
f 7/4/4 11/7/7 8/15/15
f 3/16/16 16/14/14 13/11/11 4/10/10
f 14/9/9 15/13/13 17/2/2 10/1/1
f 16/14/14 2/17/17 17/2/2 15/13/13
f 8/15/15 11/7/7 14/9/9 9/8/8
f 2/17/17 16/14/14 3/16/16
f 1/3/3 17/2/2 2/17/17
f 31/18/18 30/19/19 23/20/20 22/21/21
f 28/22/22 194/23/23 1/24/3
f 26/25/24 32/26/25 27/27/26
f 21/28/27 31/18/18 22/21/21
f 34/29/28 33/30/29 30/19/19 31/18/18
f 24/31/30 23/20/20 30/19/19 29/32/31
f 24/31/30 29/32/31 25/33/32
f 20/34/33 34/29/28 31/18/18 21/28/27
f 19/35/34 35/36/35 33/30/29 34/29/28
f 29/32/31 30/19/19 33/30/29 32/26/25
f 25/33/32 29/32/31 32/26/25 26/25/24
f 19/35/34 34/29/28 20/34/33
f 18/37/36 194/23/23 35/36/35 19/35/34
f 32/26/25 33/30/29 35/36/35 27/27/26
f 49/38/37 48/39/38 41/40/39 40/41/40
f 46/42/41 193/43/42 1/44/3
f 44/45/43 50/46/44 45/47/45
f 39/48/46 49/38/37 40/41/40
f 52/49/47 51/50/48 48/39/38 49/38/37
f 42/51/49 41/40/39 48/39/38 47/52/50
f 42/51/49 47/52/50 43/53/51
f 38/54/52 52/49/47 49/38/37 39/48/46
f 37/55/53 53/56/54 51/50/48 52/49/47
f 47/52/50 48/39/38 51/50/48 50/46/44
f 43/53/51 47/52/50 50/46/44 44/45/43
f 37/55/53 52/49/47 38/54/52
f 36/57/55 193/43/42 53/56/54 37/55/53
f 50/46/44 51/50/48 53/56/54 45/47/45
f 70/58/56 69/59/57 60/60/58 59/61/59
f 77/62/60 78/63/61 1/64/3 66/65/62
f 65/66/63 77/62/60 66/65/62
f 64/67/64 72/68/65 65/66/63
f 71/69/66 70/58/56 59/61/59 58/70/67
f 57/71/68 71/69/66 58/70/67
f 76/72/69 75/73/70 70/58/56 71/69/66
f 75/73/70 74/74/71 69/59/57 70/58/56
f 61/75/72 60/60/58 69/59/57 68/76/73
f 62/77/74 61/75/72 68/76/73 67/78/75
f 62/77/74 67/78/75 63/79/76
f 56/80/77 76/72/69 71/69/66 57/71/68
f 55/81/78 79/82/79 75/73/70 76/72/69
f 79/82/79 78/63/61 74/74/71 75/73/70
f 68/76/73 69/59/57 74/74/71 73/83/80
f 67/78/75 68/76/73 73/83/80 72/68/65
f 63/79/76 67/78/75 72/68/65 64/67/64
f 55/81/78 76/72/69 56/80/77
f 54/84/81 1/64/3 78/63/61 79/82/79
f 73/83/80 74/74/71 78/63/61 77/62/60
f 72/68/65 73/83/80 77/62/60 65/66/63
f 54/84/81 79/82/79 55/81/78
f 96/85/82 95/86/83 86/87/84 85/88/85
f 103/89/86 104/90/87 1/91/3 92/92/88
f 91/93/89 103/89/86 92/92/88
f 90/94/90 98/95/91 91/93/89
f 97/96/92 96/85/82 85/88/85 84/97/93
f 83/98/94 97/96/92 84/97/93
f 102/99/95 101/100/96 96/85/82 97/96/92
f 101/100/96 100/101/97 95/86/83 96/85/82
f 87/102/98 86/87/84 95/86/83 94/103/99
f 88/104/100 87/102/98 94/103/99 93/105/101
f 88/104/100 93/105/101 89/106/102
f 82/107/103 102/99/95 97/96/92 83/98/94
f 81/108/104 105/109/105 101/100/96 102/99/95
f 105/109/105 104/90/87 100/101/97 101/100/96
f 94/103/99 95/86/83 100/101/97 99/110/106
f 93/105/101 94/103/99 99/110/106 98/95/91
f 89/106/102 93/105/101 98/95/91 90/94/90
f 81/108/104 102/99/95 82/107/103
f 80/111/107 1/91/3 104/90/87 105/109/105
f 99/110/106 100/101/97 104/90/87 103/89/86
f 98/95/91 99/110/106 103/89/86 91/93/89
f 80/111/107 105/109/105 81/108/104
f 119/112/108 118/113/109 111/114/110 110/115/111
f 115/116/112 123/117/113 1/118/3 116/119/114
f 114/120/115 120/121/116 115/116/112
f 109/122/117 119/112/108 110/115/111
f 122/123/118 121/124/119 118/113/109 119/112/108
f 112/125/120 111/114/110 118/113/109 117/126/121
f 112/125/120 117/126/121 113/127/122
f 108/128/123 122/123/118 119/112/108 109/122/117
f 107/129/124 123/117/113 121/124/119 122/123/118
f 117/126/121 118/113/109 121/124/119 120/121/116
f 113/127/122 117/126/121 120/121/116 114/120/115
f 107/129/124 122/123/118 108/128/123
f 106/130/125 1/118/3 123/117/113 107/129/124
f 120/121/116 121/124/119 123/117/113 115/116/112
f 135/131/126 134/132/127 128/133/128 127/134/129
f 126/135/130 135/131/126 127/134/129
f 129/136/131 133/137/132 130/138/133
f 130/138/133 133/137/132 136/139/134 131/140/135
f 138/141/136 137/142/137 134/132/127 135/131/126
f 129/136/131 128/133/128 134/132/127 133/137/132
f 125/143/138 138/141/136 135/131/126 126/135/130
f 131/140/135 136/139/134 132/144/139
f 136/139/134 137/142/137 1/145/3 132/144/139
f 133/137/132 134/132/127 137/142/137 136/139/134
f 124/146/140 138/141/136 125/143/138
f 124/146/140 1/145/3 137/142/137 138/141/136
f 144/147/141 147/148/142 150/149/143 143/150/144
f 142/151/145 149/152/146 152/153/147 141/154/148
f 141/154/148 152/153/147 151/155/149 140/156/150
f 139/157/151 148/158/152 147/148/142 144/147/141
f 143/150/144 150/149/143 149/152/146 142/151/145
f 140/159/150 151/160/149 148/158/152 139/157/151
f 162/161/153 151/155/149 152/153/147 163/162/154
f 140/156/150 146/163/155 141/154/148
f 141/154/148 146/163/155 142/151/145
f 142/151/145 146/163/155 143/150/144
f 143/150/144 146/163/155 144/147/141
f 144/147/141 146/163/155 139/157/151
f 139/157/151 146/163/155 140/159/150
f 163/162/154 152/153/147 149/152/146 158/164/156
f 159/165/157 150/149/143 147/148/142 154/166/158
f 157/167/159 145/168/160 164/169/161
f 161/170/162 145/168/160 156/171/163
f 158/164/156 149/152/146 150/149/143 159/165/157
f 154/166/158 147/148/142 148/158/152 155/172/164
f 164/169/161 145/168/160 161/173/162
f 160/174/165 145/168/160 157/167/159
f 156/171/163 145/168/160 153/175/166
f 155/172/164 148/158/152 151/160/149 162/176/153
f 156/171/163 155/172/164 162/176/153 161/170/162
f 164/169/161 163/162/154 158/164/156 157/167/159
f 160/174/165 159/165/157 154/166/158 153/175/166
f 161/173/162 162/161/153 163/162/154 164/169/161
f 157/167/159 158/164/156 159/165/157 160/174/165
f 153/175/166 154/166/158 155/172/164 156/171/163
f 153/175/166 145/168/160 160/174/165
f 176/177/167 178/178/168 172/179/169
f 169/180/170 165/181/171 171/182/172
f 165/181/171 166/183/173 171/182/172
f 166/183/173 167/184/174 171/182/172
f 167/184/174 168/185/175 171/182/172
f 168/185/175 170/186/176 171/182/172
f 170/186/176 169/180/170 171/182/172
f 172/179/169 178/178/168 173/187/177
f 173/187/177 178/178/168 174/188/178
f 174/188/178 178/178/168 175/189/179
f 175/189/179 178/178/168 177/190/180
f 177/190/180 178/178/168 176/177/167
f 183/191/181 185/192/182 179/193/183
f 179/193/183 185/192/182 180/194/184
f 180/194/184 185/192/182 181/195/185
f 181/195/185 185/192/182 182/196/186
f 182/196/186 185/192/182 184/197/187
f 184/197/187 185/192/182 183/191/181
f 190/198/188 192/199/189 186/200/190
f 186/200/190 192/199/189 187/201/191
f 187/201/191 192/199/189 188/202/192
f 188/202/192 192/199/189 189/203/193
f 189/203/193 192/199/189 191/204/194
f 191/204/194 192/199/189 190/198/188
f 13/11/11 12/6/6 6/5/5 5/12/12
f 45/47/45 53/56/54 193/43/42 46/42/41
f 1/44/3 193/43/42 36/57/55
f 27/27/26 35/36/35 194/23/23 28/22/22
f 1/24/3 194/23/23 18/37/36
