# Blender v2.79 (sub 0) OBJ File: 'polyswamp v1.1.blend'
# www.blender.org
mtllib swamp_bucket.mtl
g Bucket_Circle
v 0.000000 0.000000 -0.126038
v -0.074083 0.000000 -0.101967
v -0.119869 0.000000 -0.038948
v -0.119869 0.000000 0.038948
v -0.074083 0.000000 0.101967
v 0.000000 0.000000 0.126038
v 0.074083 0.000000 0.101967
v 0.119869 0.000000 0.038948
v 0.119869 0.000000 -0.038948
v 0.074083 0.000000 -0.101967
v 0.000000 0.257267 -0.153960
v -0.090496 0.257267 -0.124557
v -0.146425 0.257267 -0.043662
v -0.146425 0.257267 0.043662
v -0.090496 0.257267 0.124557
v 0.000000 0.257267 0.153960
v 0.090496 0.257267 0.124557
v 0.146425 0.257267 0.043662
v 0.146425 0.257267 -0.043662
v 0.090496 0.257267 -0.124557
v 0.075603 0.257267 -0.104059
v 0.122329 0.270147 -0.009204
v 0.122329 0.270147 0.009204
v 0.075603 0.257267 0.104059
v 0.000000 0.257267 0.128624
v -0.075603 0.257267 0.104059
v -0.122329 0.270147 0.009204
v -0.122329 0.270147 -0.009204
v -0.075603 0.257267 -0.104059
v 0.000000 0.257267 -0.128624
v 0.055532 0.015818 -0.076433
v 0.089853 0.015818 -0.029195
v 0.089853 0.015818 0.029195
v 0.055532 0.015818 0.076433
v 0.000000 0.015818 0.094477
v -0.055532 0.015818 0.076433
v -0.089853 0.015818 0.029195
v -0.089853 0.015818 -0.029195
v -0.055532 0.015818 -0.076433
v -0.000000 0.015818 -0.094477
v 0.000000 0.149218 0.149951
v 0.000000 0.108049 0.144582
v -0.084983 0.108049 -0.116969
v -0.088139 0.149218 -0.121313
v -0.142612 0.149218 -0.046338
v -0.137506 0.108049 -0.044678
v 0.137506 0.108049 -0.044678
v 0.142612 0.149218 -0.046338
v 0.088139 0.149218 -0.121313
v 0.084983 0.108049 -0.116969
v 0.000000 0.105119 0.137447
v 0.000000 0.152148 0.142551
v 0.083790 0.152148 0.115326
v 0.080789 0.105119 0.111197
v -0.130720 0.105119 -0.042473
v -0.135574 0.152148 -0.044051
v -0.135574 0.152148 0.044051
v -0.130720 0.105119 0.042473
v 0.080789 0.105119 -0.111197
v 0.083789 0.152148 -0.115326
v 0.000000 0.152148 -0.142551
v 0.000000 0.105119 -0.137447
v 0.135574 0.152148 0.044051
v 0.130720 0.105119 0.042473
v -0.083790 0.152148 0.115326
v -0.080789 0.105119 0.111197
v -0.083790 0.152148 -0.115326
v -0.080789 0.105119 -0.111197
v 0.135574 0.152148 -0.044051
v 0.130720 0.105119 -0.042473
v -0.088139 0.149218 0.121313
v -0.084983 0.108049 0.116969
v 0.142612 0.149218 0.046338
v 0.137506 0.108049 0.044678
v 0.000000 0.149218 -0.149951
v 0.000000 0.108049 -0.144582
v -0.142612 0.149218 0.046338
v -0.137506 0.108049 0.044678
v 0.088139 0.149218 0.121313
v 0.084983 0.108049 0.116969
v -0.146425 0.297761 0.027232
v -0.146425 0.297761 -0.027232
v 0.146425 0.297761 -0.027232
v 0.146425 0.297761 0.027232
v 0.122329 0.284881 -0.009091
v 0.122329 0.284881 0.009091
v -0.122329 0.284881 0.009091
v -0.122329 0.284881 -0.009091
v 0.122329 0.257267 -0.043662
v 0.122329 0.257267 0.043662
v -0.122329 0.257267 0.043662
v -0.122329 0.257267 -0.043662
v 0.122329 0.297761 -0.027232
v 0.122329 0.297761 0.027232
v -0.122329 0.297761 0.027232
v -0.122329 0.297761 -0.027232
v 0.116206 0.277489 -0.000000
v -0.116206 0.277489 -0.000000
vt 0.372924 0.616181
vt 0.372924 0.600553
vt 0.380745 0.600553
vt 0.380745 0.616181
vt 0.348639 0.558620
vt 0.348639 0.544642
vt 0.372924 0.544642
vt 0.372924 0.558620
vt 0.348639 0.600553
vt 0.348639 0.586575
vt 0.372924 0.586575
vt 0.348639 0.644137
vt 0.348639 0.630160
vt 0.372924 0.630160
vt 0.372924 0.644137
vt 0.409833 0.642486
vt 0.409833 0.656465
vt 0.385543 0.656465
vt 0.385543 0.642486
vt 0.409833 0.600553
vt 0.409833 0.614532
vt 0.385543 0.614532
vt 0.385543 0.600553
vt 0.409833 0.556970
vt 0.409833 0.570947
vt 0.385543 0.570947
vt 0.385543 0.556970
vt 0.409833 0.672092
vt 0.385543 0.672092
vt 0.409833 0.628509
vt 0.385543 0.628509
vt 0.409833 0.584925
vt 0.385543 0.584925
vt 0.461730 0.561427
vt 0.452735 0.573808
vt 0.438181 0.578537
vt 0.461730 0.546124
vt 0.423626 0.573808
vt 0.452735 0.533743
vt 0.414631 0.561427
vt 0.438181 0.529014
vt 0.414631 0.546124
vt 0.423626 0.533743
vt 0.285717 0.542920
vt 0.285717 0.529014
vt 0.343841 0.529014
vt 0.343841 0.542920
vt 0.466529 0.597489
vt 0.466529 0.580092
vt 0.471161 0.580092
vt 0.471161 0.597489
vt 0.466529 0.735553
vt 0.466529 0.718155
vt 0.471161 0.718155
vt 0.471161 0.735553
vt 0.466529 0.683361
vt 0.466529 0.665963
vt 0.471161 0.665963
vt 0.471161 0.683361
vt 0.466529 0.614885
vt 0.471161 0.614885
vt 0.471161 0.562694
vt 0.466529 0.562694
vt 0.466529 0.555579
vt 0.471161 0.555579
vt 0.466529 0.700758
vt 0.471161 0.700758
vt 0.466529 0.632283
vt 0.471161 0.632283
vt 0.409833 0.529014
vt 0.409833 0.542992
vt 0.385543 0.542992
vt 0.385543 0.529014
vt 0.285717 0.632799
vt 0.285717 0.620138
vt 0.343841 0.620138
vt 0.343841 0.632799
vt 0.285717 0.593569
vt 0.285717 0.580906
vt 0.343841 0.580906
vt 0.343841 0.593569
vt 0.285717 0.555583
vt 0.343841 0.555583
vt 0.285717 0.645461
vt 0.343841 0.645461
vt 0.285717 0.607475
vt 0.343841 0.607475
vt 0.285717 0.568244
vt 0.343841 0.568244
vt 0.285717 0.658123
vt 0.343841 0.658123
vt 0.414631 0.607632
vt 0.414631 0.596161
vt 0.421374 0.586880
vt 0.421374 0.616912
vt 0.432284 0.583335
vt 0.432284 0.620457
vt 0.443194 0.586880
vt 0.443194 0.616912
vt 0.449936 0.596161
vt 0.449936 0.607632
vt 0.348639 0.658114
vt 0.372924 0.658114
vt 0.348639 0.616181
vt 0.348639 0.572598
vt 0.372924 0.572598
vt 0.786077 0.788062
vt 0.786077 0.778375
vt 0.792686 0.778375
vt 0.792686 0.788062
vt 0.348639 0.529014
vt 0.372924 0.529014
vt 0.348639 0.672092
vt 0.372924 0.672092
vt 0.793914 0.866700
vt 0.793914 0.877530
vt 0.792686 0.877530
vt 0.792686 0.866700
vt 0.784810 0.866700
vt 0.784810 0.857013
vt 0.786077 0.857013
vt 0.786077 0.866700
vt 0.784810 0.847326
vt 0.786077 0.847326
vt 0.793914 0.827953
vt 0.793914 0.837640
vt 0.792686 0.837640
vt 0.792686 0.827953
vt 0.784810 0.817122
vt 0.784810 0.807435
vt 0.786077 0.807435
vt 0.786077 0.817122
vt 0.793914 0.817122
vt 0.792686 0.817122
vt 0.784810 0.877530
vt 0.786077 0.877530
vt 0.784810 0.827953
vt 0.786077 0.827953
vt 0.793914 0.847326
vt 0.792686 0.847326
vt 0.784810 0.837640
vt 0.786077 0.837640
vt 0.792686 0.807435
vt 0.786077 0.797749
vt 0.792686 0.797749
vt 0.792686 0.857013
vt 0.793914 0.857013
vt 0.793914 0.807435
vt 0.784810 0.797749
vt 0.784810 0.788062
vt 0.784810 0.778375
vt 0.793914 0.797749
vt 0.793914 0.788062
vt 0.793914 0.778375
vt 0.466529 0.658849
vt 0.466529 0.639398
vt 0.471161 0.639398
vt 0.471161 0.658849
vt 0.466529 0.536128
vt 0.471161 0.536128
vt 0.380745 0.529014
vt 0.380745 0.544642
vt 0.466529 0.529014
vt 0.471161 0.529014
vt 0.816803 0.778384
vt 0.816803 0.780943
vt 0.815732 0.779662
vt 0.420362 0.669858
vt 0.420350 0.666166
vt 0.422964 0.659091
vt 0.422964 0.676863
vt 0.433493 0.669858
vt 0.433482 0.666166
vt 0.436095 0.659091
vt 0.436095 0.676863
vt 0.417239 0.666163
vt 0.417262 0.669867
vt 0.414645 0.673563
vt 0.414631 0.662480
vt 0.430370 0.666163
vt 0.430393 0.669867
vt 0.427776 0.673563
vt 0.427762 0.662480
vt 0.816803 0.781797
vt 0.816803 0.784356
vt 0.815732 0.783075
vt 0.814655 0.784355
vt 0.814647 0.781788
vt 0.814655 0.780942
vt 0.814647 0.778375
vn -1.0000 -0.0000 0.0000
vn 0.8127 -0.0921 0.5753
vn -0.8127 -0.0921 0.5753
vn -0.3074 -0.1027 -0.9460
vn 0.8047 -0.1027 0.5847
vn -0.8047 -0.1027 0.5847
vn 0.9947 -0.1027 0.0000
vn -0.3074 -0.1027 0.9460
vn -0.8047 -0.1027 -0.5847
vn 0.0000 -1.0000 0.0000
vn -0.9911 0.1333 -0.0000
vn 0.0000 1.0000 0.0000
vn 0.0000 0.3760 0.9266
vn 0.8047 -0.1027 -0.5847
vn 0.3063 0.1333 0.9426
vn 0.7912 0.1380 -0.5958
vn -0.7912 0.1380 -0.5958
vn -0.3063 0.1333 0.9426
vn 0.9911 0.1333 -0.0000
vn -0.3063 0.1333 -0.9426
vn -0.7912 0.1380 0.5958
vn 0.7912 0.1380 0.5958
vn 0.3063 0.1333 -0.9426
vn 0.3074 -0.1027 -0.9460
vn -0.9947 -0.1027 0.0000
vn 0.3074 -0.1027 0.9460
vn 0.8029 -0.1231 -0.5833
vn 0.8127 -0.0921 -0.5753
vn -0.8127 -0.0921 -0.5753
vn 0.3964 -0.9181 0.0000
vn 0.3109 0.9232 0.2259
vn 0.1188 0.9232 0.3655
vn -0.3207 -0.9181 0.2330
vn -0.3109 0.9232 -0.2259
vn -0.3964 -0.9181 0.0000
vn 0.3843 0.9232 0.0000
vn -0.3843 0.9232 -0.0000
vn -0.1225 -0.9181 0.3770
vn -0.3109 0.9232 0.2259
vn -0.8029 -0.1231 -0.5833
vn -0.3067 -0.1231 0.9438
vn 0.9924 -0.1231 0.0000
vn -0.3067 -0.1231 -0.9438
vn -0.8029 -0.1231 0.5833
vn 0.8029 -0.1231 0.5833
vn 0.3067 -0.1231 -0.9438
vn -0.9924 -0.1231 0.0000
vn 0.3067 -0.1231 0.9438
vn 0.1225 -0.9181 0.3770
vn -0.3207 -0.9181 -0.2330
vn -0.1188 0.9232 -0.3655
vn 0.3207 -0.9181 0.2330
vn 0.3109 0.9232 -0.2259
vn -0.1188 0.9232 0.3655
vn 0.1188 0.9232 -0.3655
vn -0.1225 -0.9181 -0.3770
vn 0.1225 -0.9181 -0.3770
vn 0.3207 -0.9181 -0.2330
vn 0.0000 0.3760 -0.9266
vn 1.0000 -0.0000 0.0000
vn 0.7680 -0.6405 0.0000
vn -0.7680 -0.6405 0.0000
vn -0.8310 0.0042 0.5563
vn -0.7701 0.6379 0.0000
vn -0.8310 0.0042 -0.5563
vn 0.8310 0.0042 -0.5563
vn 0.7701 0.6379 0.0000
vn 0.8310 0.0042 0.5563
usemtl polyswamp_atlas01
s off
f 13/1/1 14/2/1 81/3/1 82/4/1
f 53/5/2 63/6/2 18/7/2 17/8/2
f 57/9/3 65/10/3 15/11/3 14/2/3
f 61/12/4 67/13/4 12/14/4 11/15/4
f 7/16/5 8/17/5 64/18/5 54/19/5
f 4/20/6 5/21/6 66/22/6 58/23/6
f 1/24/4 2/25/4 68/26/4 62/27/4
f 8/17/7 9/28/7 70/29/7 64/18/7
f 5/21/8 6/30/8 51/31/8 66/22/8
f 2/25/9 3/32/9 55/33/9 68/26/9
f 9/34/10 8/35/10 7/36/10 10/37/10
f 10/37/10 7/36/10 6/38/10 1/39/10
f 1/39/10 6/38/10 5/40/10 2/41/10
f 2/41/10 5/40/10 4/42/10 3/43/10
f 90/44/11 89/45/11 32/46/11 33/47/11
f 16/48/12 17/49/12 24/50/12 25/51/12
f 19/52/12 20/53/12 21/54/12 89/55/12
f 12/56/12 13/57/12 92/58/12 29/59/12
f 15/60/12 16/48/12 25/51/12 26/61/12
f 90/62/13 18/63/13 84/64/13 94/65/13
f 11/66/12 12/56/12 29/59/12 30/67/12
f 14/68/12 15/60/12 26/61/12 91/69/12
f 17/49/12 18/63/12 90/62/12 24/50/12
f 20/53/12 11/66/12 30/67/12 21/54/12
f 9/70/14 10/71/14 59/72/14 70/73/14
f 30/74/15 29/75/15 39/76/15 40/77/15
f 91/78/16 26/79/16 36/80/16 37/81/16
f 24/82/17 90/44/17 33/47/17 34/83/17
f 21/84/18 30/74/18 40/77/18 31/85/18
f 92/86/19 91/78/19 37/81/19 38/87/19
f 25/88/20 24/82/20 34/83/20 35/89/20
f 89/90/21 21/84/21 31/85/21 32/91/21
f 29/75/22 92/86/22 38/87/22 39/76/22
f 26/79/23 25/88/23 35/89/23 36/80/23
f 38/92/12 37/93/12 36/94/12 39/95/12
f 39/95/12 36/94/12 35/96/12 40/97/12
f 40/97/12 35/96/12 34/98/12 31/99/12
f 31/99/12 34/98/12 33/100/12 32/101/12
f 60/102/24 61/12/24 11/15/24 20/103/24
f 56/104/25 57/9/25 14/2/25 13/1/25
f 52/105/26 53/5/26 17/8/26 16/106/26
f 49/107/27 48/108/27 47/109/27 50/110/27
f 63/6/7 69/111/7 19/112/7 18/7/7
f 10/71/24 1/24/24 62/27/24 59/72/24
f 3/32/25 4/20/25 58/23/25 55/33/25
f 69/113/28 60/102/28 20/103/28 19/114/28
f 67/13/29 56/104/29 13/1/29 12/14/29
f 65/10/8 52/105/8 16/106/8 15/11/8
f 64/115/30 70/116/30 47/117/30 74/118/30
f 63/119/31 53/120/31 79/121/31 73/122/31
f 53/120/32 52/123/32 41/124/32 79/121/32
f 58/125/33 66/126/33 72/127/33 78/128/33
f 56/129/34 67/130/34 44/131/34 45/132/34
f 55/133/35 58/125/35 78/128/35 46/134/35
f 69/135/36 63/119/36 73/122/36 48/136/36
f 57/137/37 56/129/37 45/132/37 77/138/37
f 66/126/38 51/139/38 42/140/38 72/127/38
f 65/141/39 57/137/39 77/138/39 71/142/39
f 6/30/26 7/16/26 54/19/26 51/31/26
f 45/132/40 44/131/40 43/143/40 46/134/40
f 41/124/41 71/142/41 72/127/41 42/140/41
f 48/136/42 73/122/42 74/118/42 47/117/42
f 44/131/43 75/144/43 76/145/43 43/143/43
f 71/142/44 77/138/44 78/128/44 72/127/44
f 73/122/45 79/121/45 80/146/45 74/118/45
f 75/144/46 49/107/46 50/110/46 76/145/46
f 77/138/47 45/132/47 46/134/47 78/128/47
f 79/121/48 41/124/48 42/140/48 80/146/48
f 51/139/49 54/147/49 80/146/49 42/140/49
f 68/148/50 55/133/50 46/134/50 43/143/50
f 67/130/51 61/149/51 75/144/51 44/131/51
f 54/147/52 64/115/52 74/118/52 80/146/52
f 60/150/53 69/151/53 48/108/53 49/107/53
f 52/123/54 65/141/54 71/142/54 41/124/54
f 61/149/55 60/150/55 49/107/55 75/144/55
f 62/152/56 68/148/56 43/143/56 76/145/56
f 59/153/57 62/152/57 76/145/57 50/110/57
f 70/154/58 59/153/58 50/110/58 47/109/58
f 82/155/12 81/156/12 95/157/12 96/158/12
f 84/64/12 83/159/12 93/160/12 94/65/12
f 92/58/59 13/57/59 82/155/59 96/158/59
f 18/7/60 19/112/60 83/161/60 84/162/60
f 19/163/59 89/164/59 93/160/59 83/159/59
f 27/165/61 28/166/61 98/167/61
f 14/68/13 91/69/13 95/157/13 81/156/13
f 23/168/1 22/169/1 89/170/1 90/171/1
f 28/172/60 27/173/60 91/174/60 92/175/60
f 85/176/1 86/177/1 94/178/1 93/179/1
f 87/180/60 88/181/60 96/182/60 95/183/60
f 86/177/1 23/168/1 90/171/1 94/178/1
f 88/181/60 28/172/60 92/175/60 96/182/60
f 22/169/1 85/176/1 93/179/1 89/170/1
f 27/173/60 87/180/60 95/183/60 91/174/60
f 22/184/62 23/185/62 97/186/62
f 23/185/63 86/187/63 97/186/63
f 86/187/64 85/188/64 97/186/64
f 85/188/65 22/184/65 97/186/65
f 28/166/66 88/189/66 98/167/66
f 88/189/67 87/190/67 98/167/67
f 87/190/68 27/165/68 98/167/68
g Bucket_handle_Circle.010
v 0.147375 0.302238 -0.000000
v 0.156139 0.303988 -0.010124
v 0.166185 0.305786 0.000000
v 0.156139 0.303988 0.010124
v 0.143842 0.270581 0.010104
v 0.143842 0.287290 0.010114
v 0.143842 0.270581 -0.000000
v 0.143842 0.287290 -0.000000
v 0.143842 0.270581 -0.010104
v 0.155511 0.264027 -0.000000
v 0.079707 0.423512 0.010165
v 0.075175 0.415710 0.000000
v 0.079707 0.423512 -0.010165
v 0.085317 0.433185 0.000000
v 0.139565 0.363666 0.010165
v 0.131752 0.359142 0.000000
v 0.139565 0.363666 -0.010165
v 0.149237 0.369266 0.000000
v 0.155632 0.270581 0.010104
v 0.146274 0.270581 -0.000000
v 0.155632 0.270581 -0.010104
v 0.164656 0.270581 0.000000
v 0.146825 0.287290 -0.000000
v 0.155885 0.287290 -0.010114
v 0.165421 0.287290 0.000000
v 0.155885 0.287290 0.010114
v 0.121151 0.403908 0.000000
v 0.044115 0.443693 0.000000
v 0.113511 0.396271 0.010165
v 0.042147 0.433247 0.024077
v 0.044115 0.432185 -0.010267
v 0.042147 0.409195 0.000012
v 0.113511 0.396271 -0.010165
v -0.041126 0.409195 -0.000022
v 0.107338 0.390109 0.000000
v -0.041126 0.433247 -0.024055
v 0.042147 0.433247 -0.024054
v 0.044115 0.422730 0.000000
v -0.041126 0.457238 -0.000022
v 0.044115 0.432185 0.010267
v 0.042147 0.457238 0.000012
v -0.041126 0.433247 0.023955
v -0.041126 0.416112 0.017069
v 0.042147 0.416112 -0.017137
v -0.041126 0.450351 -0.017146
v -0.041126 0.416112 -0.017146
v -0.041126 0.450351 0.017069
v 0.042147 0.416112 0.017165
v 0.042147 0.450351 0.017165
v 0.042147 0.450351 -0.017137
v -0.048886 0.433225 -0.000043
v 0.050100 0.433225 0.000013
v 0.143842 0.287290 -0.010114
v -0.147375 0.302238 0.000000
v -0.156139 0.303988 0.010124
v -0.166185 0.305786 0.000000
v -0.156139 0.303988 -0.010124
v -0.143842 0.270581 -0.010104
v -0.143842 0.287290 -0.010114
v -0.143842 0.270581 0.000000
v -0.143842 0.287290 0.000000
v -0.143842 0.270581 0.010104
v -0.155511 0.264027 0.000000
v -0.079707 0.423512 -0.010165
v -0.075175 0.415710 -0.000000
v -0.079707 0.423512 0.010165
v -0.085317 0.433185 -0.000000
v -0.139565 0.363666 -0.010165
v -0.131752 0.359142 0.000000
v -0.139565 0.363666 0.010165
v -0.149237 0.369266 -0.000000
v -0.155632 0.270581 -0.010104
v -0.146274 0.270581 0.000000
v -0.155632 0.270581 0.010104
v -0.164656 0.270581 0.000000
v -0.146825 0.287290 0.000000
v -0.155885 0.287290 0.010114
v -0.165421 0.287290 0.000000
v -0.155885 0.287290 -0.010114
v -0.121151 0.403908 -0.000000
v -0.044115 0.443693 -0.000000
v -0.113511 0.396271 -0.010165
v -0.044115 0.432185 0.010267
v -0.113511 0.396271 0.010165
v -0.107338 0.390109 -0.000000
v -0.044115 0.422730 -0.000000
v -0.044115 0.432185 -0.010267
v -0.143842 0.287290 0.010114
vt 0.807152 0.793124
vt 0.807326 0.784285
vt 0.809323 0.784442
vt 0.809299 0.793200
vt 0.805150 0.793053
vt 0.805358 0.784177
vt 0.811446 0.793136
vt 0.811320 0.784295
vt 0.813289 0.784198
vt 0.813449 0.793075
vt 0.808495 0.779969
vt 0.809338 0.778726
vt 0.809335 0.779854
vt 0.807355 0.781743
vt 0.805915 0.780453
vt 0.807839 0.778663
vt 0.805194 0.781902
vt 0.809329 0.782003
vt 0.811304 0.781753
vt 0.810174 0.779973
vt 0.809333 0.780509
vt 0.813465 0.781924
vt 0.805078 0.805437
vt 0.805190 0.799110
vt 0.807186 0.799123
vt 0.807134 0.805403
vt 0.804703 0.810472
vt 0.806861 0.810964
vt 0.809250 0.811491
vt 0.809266 0.805332
vt 0.811398 0.805415
vt 0.811642 0.810977
vt 0.809283 0.799134
vt 0.813454 0.805459
vt 0.813802 0.810497
vt 0.811380 0.799134
vt 0.813377 0.799132
vt 0.810837 0.778671
vt 0.812751 0.780471
vt 0.434083 0.643405
vt 0.414636 0.643397
vt 0.414638 0.639771
vt 0.434085 0.639775
vt 0.434081 0.647030
vt 0.414634 0.647021
vt 0.434079 0.650660
vt 0.414633 0.650650
vt 0.434078 0.654293
vt 0.414631 0.654279
vt 0.434083 0.628889
vt 0.414636 0.628900
vt 0.414631 0.625278
vt 0.434078 0.625256
vt 0.434087 0.632519
vt 0.414640 0.632528
vt 0.434087 0.636143
vt 0.414640 0.636150
vt 0.308039 0.669056
vt 0.305526 0.671671
vt 0.303661 0.667297
vt 0.301902 0.671674
vt 0.299287 0.669157
vt 0.299284 0.665528
vt 0.301799 0.662922
vt 0.305427 0.662925
vt 0.308039 0.665436
vt 0.288338 0.662928
vt 0.291969 0.662922
vt 0.290103 0.667303
vt 0.294486 0.665530
vt 0.294486 0.669160
vt 0.291869 0.671681
vt 0.288236 0.671681
vt 0.285717 0.669067
vt 0.285720 0.665443
vt 0.804858 0.781591
vt 0.813802 0.781615
vt 0.809339 0.778375
vt 0.797208 0.793124
vt 0.797382 0.784285
vt 0.799379 0.784442
vt 0.799355 0.793200
vt 0.795206 0.793053
vt 0.795414 0.784177
vt 0.801503 0.793136
vt 0.801376 0.784295
vt 0.803345 0.784198
vt 0.803505 0.793075
vt 0.798551 0.779969
vt 0.799394 0.778726
vt 0.799391 0.779854
vt 0.797411 0.781743
vt 0.795971 0.780453
vt 0.797895 0.778663
vt 0.795250 0.781902
vt 0.799385 0.782003
vt 0.801361 0.781753
vt 0.800230 0.779973
vt 0.799389 0.780509
vt 0.803521 0.781925
vt 0.795134 0.805437
vt 0.795246 0.799110
vt 0.797242 0.799123
vt 0.797190 0.805403
vt 0.794760 0.810472
vt 0.796917 0.810964
vt 0.799306 0.811491
vt 0.799323 0.805332
vt 0.801455 0.805415
vt 0.801698 0.810977
vt 0.799339 0.799134
vt 0.803510 0.805459
vt 0.803858 0.810497
vt 0.801437 0.799134
vt 0.803433 0.799132
vt 0.800893 0.778671
vt 0.802808 0.780471
vt 0.794915 0.781591
vt 0.803858 0.781615
vt 0.799395 0.778375
vn 0.0413 0.0150 0.9990
vn 0.0337 -0.0038 0.9994
vn 0.9927 0.1201 0.0000
vn 0.8891 0.4577 0.0000
vn -0.8933 -0.4494 0.0000
vn -0.9930 -0.1176 0.0000
vn 0.0413 0.0150 -0.9990
vn 0.0337 -0.0038 -0.9994
vn 0.2720 -0.5068 0.8180
vn -0.1636 -0.9865 0.0000
vn -0.0009 -1.0000 0.0000
vn 0.2224 0.1620 0.9614
vn 0.0000 0.7069 0.7073
vn 0.0000 -0.7073 0.7069
vn -0.4460 0.8950 0.0000
vn 0.9995 -0.0299 0.0000
vn 0.2224 0.1620 -0.9614
vn 0.2720 -0.5068 -0.8180
vn 0.9132 -0.4074 0.0000
vn -0.4316 -0.9020 0.0000
vn -0.7087 -0.7055 0.0000
vn -0.0024 -0.0023 1.0000
vn 0.0198 0.0428 0.9989
vn -0.2279 -0.9737 0.0000
vn 0.0220 0.0555 0.9982
vn 0.2437 0.9698 0.0000
vn 0.4535 0.8913 0.0000
vn 0.0198 0.0428 -0.9989
vn 0.0220 0.0555 -0.9982
vn 0.7084 0.7057 0.0000
vn -0.0024 -0.0023 -1.0000
vn 0.0000 -0.7073 -0.7069
vn 0.0000 0.7069 -0.7073
vn 0.5257 0.6021 -0.6009
vn -0.5280 0.6010 -0.5999
vn -0.5297 0.8481 0.0001
vn 0.5274 0.8496 0.0002
vn 0.5273 0.0003 -0.8496
vn -0.5296 0.0003 -0.8482
vn 0.5257 -0.6014 -0.6015
vn -0.5280 -0.6004 -0.6005
vn 0.5272 -0.8497 0.0002
vn -0.5296 -0.8482 0.0001
vn 0.5254 -0.6012 0.6020
vn -0.5284 -0.6000 0.6006
vn 0.5267 0.0003 0.8500
vn -0.5303 0.0003 0.8478
vn 0.5253 0.6019 0.6014
vn -0.5284 0.6006 0.6000
vn -1.0000 0.0000 0.0000
vn 1.0000 0.0000 0.0000
vn 0.0000 1.0000 0.0000
vn 0.0000 -1.0000 0.0000
vn -0.0413 0.0150 -0.9990
vn -0.0337 -0.0038 -0.9994
vn -0.9927 0.1201 0.0000
vn -0.8891 0.4577 0.0000
vn 0.8933 -0.4494 0.0000
vn 0.9930 -0.1176 0.0000
vn -0.0413 0.0150 0.9990
vn -0.0337 -0.0038 0.9994
vn -0.2720 -0.5068 -0.8180
vn 0.1636 -0.9865 0.0000
vn 0.0009 -1.0000 0.0000
vn -0.2224 0.1620 -0.9614
vn 0.4460 0.8950 0.0000
vn -0.9995 -0.0299 0.0000
vn -0.2224 0.1620 0.9614
vn -0.2720 -0.5068 0.8180
vn -0.9132 -0.4074 0.0000
vn 0.4316 -0.9020 0.0000
vn 0.7087 -0.7055 0.0000
vn 0.0024 -0.0023 -1.0000
vn -0.0198 0.0428 -0.9989
vn 0.2279 -0.9737 0.0000
vn -0.0220 0.0555 -0.9982
vn -0.2437 0.9698 0.0000
vn -0.4535 0.8913 0.0000
vn -0.0198 0.0428 0.9989
vn -0.0220 0.0555 0.9982
vn -0.7084 0.7057 0.0000
vn 0.0024 -0.0023 1.0000
usemtl polyswamp_atlas01
s 1
f 113/191/69 102/192/70 101/193/71 116/194/72
f 114/195/73 99/196/74 102/192/70 113/191/69
f 115/197/75 100/198/76 99/199/74 114/200/73
f 116/194/72 101/193/71 100/198/76 115/197/75
f 117/201/77 118/202/78 108/203/79
f 117/201/77 124/204/80 104/205/81 103/206/82
f 99/196/74 121/207/83 124/204/80 102/192/70
f 101/193/71 123/208/84 122/209/85 100/198/76
f 118/202/78 119/210/86 108/203/79
f 120/211/87 117/201/77 108/203/79
f 102/192/70 124/204/80 123/208/84 101/193/71
f 100/198/76 122/209/85 121/212/83 99/199/74
f 110/213/88 133/214/89 127/215/90 109/216/91
f 136/217/92 110/213/88 109/216/91 138/218/93
f 126/219/94 112/220/95 111/221/96 129/222/97
f 109/216/91 127/215/90 125/223/98 112/220/95
f 129/222/97 111/221/96 110/224/88 136/225/92
f 111/221/96 131/226/99 133/227/89 110/224/88
f 112/220/95 125/223/98 131/226/99 111/221/96
f 127/215/90 113/191/69 116/194/72 125/223/98
f 133/214/89 114/195/73 113/191/69 127/215/90
f 131/226/99 115/197/75 114/200/73 133/227/89
f 125/223/98 116/194/72 115/197/75 131/226/99
f 124/204/80 117/201/77 120/211/87 123/208/84
f 123/208/84 120/211/87 119/210/86 122/209/85
f 122/209/85 119/210/86 107/228/100 151/229/101
f 119/210/86 120/211/87 108/203/79
f 138/218/93 109/216/91 112/220/95 126/219/94
f 148/230/102 143/231/103 137/232/104 139/233/105
f 135/234/106 134/235/107 143/231/103 148/230/102
f 142/236/108 144/237/109 134/235/107 135/234/106
f 130/238/110 132/239/111 144/237/109 142/236/108
f 146/240/112 141/241/113 132/242/111 130/243/110
f 128/244/114 140/245/115 141/241/113 146/240/112
f 147/246/116 145/247/117 140/245/115 128/244/114
f 139/233/105 137/232/104 145/247/117 147/246/116
f 137/248/104 143/249/103 149/250/118
f 143/249/103 134/251/107 149/250/118
f 134/251/107 144/252/109 149/250/118
f 144/252/109 132/253/111 149/250/118
f 132/253/111 141/254/113 149/250/118
f 141/254/113 140/255/115 149/250/118
f 140/255/115 145/256/117 149/250/118
f 145/256/117 137/248/104 149/250/118
f 139/257/105 147/258/116 150/259/119
f 147/258/116 128/260/114 150/259/119
f 128/260/114 146/261/112 150/259/119
f 146/261/112 130/262/110 150/259/119
f 130/262/110 142/263/108 150/259/119
f 142/263/108 135/264/106 150/259/119
f 135/264/106 148/265/102 150/259/119
f 148/265/102 139/257/105 150/259/119
f 124/204/80 121/207/83 106/266/120 104/205/81
f 121/212/83 122/209/85 151/229/101 106/267/120
f 119/210/86 118/202/78 105/268/121 107/228/100
f 118/202/78 117/201/77 103/206/82 105/268/121
f 166/269/122 155/270/123 154/271/124 169/272/125
f 167/273/126 152/274/127 155/270/123 166/269/122
f 168/275/128 153/276/129 152/277/127 167/278/126
f 169/272/125 154/271/124 153/276/129 168/275/128
f 170/279/130 171/280/131 161/281/132
f 170/279/130 177/282/133 157/283/101 156/284/100
f 152/274/127 174/285/134 177/282/133 155/270/123
f 154/271/124 176/286/135 175/287/136 153/276/129
f 171/280/131 172/288/137 161/281/132
f 173/289/138 170/279/130 161/281/132
f 155/270/123 177/282/133 176/286/135 154/271/124
f 153/276/129 175/287/136 174/290/134 152/277/127
f 163/291/139 183/292/140 180/293/141 162/294/142
f 184/295/143 163/291/139 162/294/142 185/296/144
f 179/297/145 165/298/146 164/299/147 181/300/148
f 162/294/142 180/293/141 178/301/149 165/298/146
f 181/300/148 164/299/147 163/302/139 184/303/143
f 164/299/147 182/304/150 183/305/140 163/302/139
f 165/298/146 178/301/149 182/304/150 164/299/147
f 180/293/141 166/269/122 169/272/125 178/301/149
f 183/292/140 167/273/126 166/269/122 180/293/141
f 182/304/150 168/275/128 167/278/126 183/305/140
f 178/301/149 169/272/125 168/275/128 182/304/150
f 177/282/133 170/279/130 173/289/138 176/286/135
f 176/286/135 173/289/138 172/288/137 175/287/136
f 175/287/136 172/288/137 160/306/82 186/307/81
f 172/288/137 173/289/138 161/281/132
f 185/296/144 162/294/142 165/298/146 179/297/145
f 177/282/133 174/285/134 159/308/120 157/283/101
f 174/290/134 175/287/136 186/307/81 159/309/120
f 172/288/137 171/280/131 158/310/121 160/306/82
f 171/280/131 170/279/130 156/284/100 158/310/121
